G04 EAGLE Gerber RS-274X export*
G75*
%MOMM*%
%FSLAX34Y34*%
%LPD*%
%INBottom Copper*%
%IPPOS*%
%AMOC8*
5,1,8,0,0,1.08239X$1,22.5*%
G01*
%ADD10R,1.600000X3.900000*%
%ADD11C,3.000000*%
%ADD12C,7.000000*%
%ADD13C,0.452400*%
%ADD14C,0.600000*%
%ADD15C,0.508000*%
%ADD16C,0.200000*%
%ADD17C,1.016000*%

G36*
X1194990Y994064D02*
X1194990Y994064D01*
X1194991Y994128D01*
X1194970Y994203D01*
X1194959Y994279D01*
X1194933Y994338D01*
X1194916Y994400D01*
X1194875Y994466D01*
X1194843Y994536D01*
X1194801Y994585D01*
X1194768Y994640D01*
X1194710Y994692D01*
X1194660Y994750D01*
X1194606Y994786D01*
X1194558Y994829D01*
X1194489Y994862D01*
X1194424Y994905D01*
X1194362Y994924D01*
X1194305Y994952D01*
X1194235Y994963D01*
X1194154Y994987D01*
X1194069Y994988D01*
X1194000Y994999D01*
X6000Y994999D01*
X5936Y994990D01*
X5872Y994991D01*
X5797Y994970D01*
X5721Y994959D01*
X5662Y994933D01*
X5600Y994916D01*
X5534Y994875D01*
X5464Y994843D01*
X5415Y994801D01*
X5360Y994768D01*
X5308Y994710D01*
X5250Y994660D01*
X5214Y994606D01*
X5171Y994558D01*
X5138Y994489D01*
X5095Y994424D01*
X5076Y994362D01*
X5048Y994305D01*
X5037Y994235D01*
X5013Y994154D01*
X5012Y994069D01*
X5001Y994000D01*
X5001Y420000D01*
X5010Y419936D01*
X5009Y419872D01*
X5030Y419797D01*
X5041Y419721D01*
X5067Y419662D01*
X5084Y419600D01*
X5125Y419534D01*
X5157Y419464D01*
X5199Y419415D01*
X5232Y419360D01*
X5290Y419308D01*
X5340Y419250D01*
X5394Y419214D01*
X5442Y419171D01*
X5511Y419138D01*
X5576Y419095D01*
X5638Y419076D01*
X5695Y419048D01*
X5765Y419037D01*
X5846Y419013D01*
X5931Y419012D01*
X6000Y419001D01*
X623748Y419001D01*
X623780Y419005D01*
X623812Y419003D01*
X623919Y419025D01*
X624027Y419041D01*
X624057Y419054D01*
X624088Y419060D01*
X624184Y419112D01*
X624284Y419157D01*
X624309Y419178D01*
X624337Y419193D01*
X624415Y419269D01*
X624498Y419340D01*
X624516Y419367D01*
X624539Y419390D01*
X624593Y419485D01*
X624653Y419576D01*
X624662Y419607D01*
X624678Y419635D01*
X624703Y419742D01*
X624735Y419846D01*
X624736Y419878D01*
X624743Y419910D01*
X624738Y420019D01*
X624739Y420128D01*
X624730Y420159D01*
X624729Y420191D01*
X624693Y420294D01*
X624664Y420400D01*
X624647Y420427D01*
X624636Y420458D01*
X624583Y420531D01*
X624516Y420640D01*
X624480Y420672D01*
X624454Y420707D01*
X621585Y423576D01*
X621585Y427324D01*
X624236Y429975D01*
X627984Y429975D01*
X630635Y427324D01*
X630635Y427088D01*
X630648Y426993D01*
X630653Y426896D01*
X630668Y426853D01*
X630675Y426808D01*
X630714Y426721D01*
X630746Y426630D01*
X630771Y426596D01*
X630791Y426551D01*
X630874Y426454D01*
X630927Y426381D01*
X633851Y423457D01*
X633928Y423400D01*
X633999Y423335D01*
X634040Y423315D01*
X634077Y423288D01*
X634167Y423254D01*
X634253Y423212D01*
X634295Y423206D01*
X634340Y423189D01*
X634468Y423179D01*
X634558Y423165D01*
X641777Y423165D01*
X641872Y423178D01*
X641968Y423183D01*
X642011Y423198D01*
X642056Y423205D01*
X642144Y423244D01*
X642234Y423276D01*
X642269Y423301D01*
X642313Y423321D01*
X642410Y423404D01*
X642483Y423457D01*
X642651Y423625D01*
X646399Y423625D01*
X649050Y420974D01*
X649050Y420000D01*
X649059Y419936D01*
X649058Y419872D01*
X649079Y419797D01*
X649090Y419721D01*
X649116Y419662D01*
X649133Y419600D01*
X649174Y419534D01*
X649206Y419464D01*
X649248Y419415D01*
X649281Y419360D01*
X649339Y419308D01*
X649389Y419250D01*
X649443Y419214D01*
X649491Y419171D01*
X649560Y419138D01*
X649625Y419095D01*
X649687Y419076D01*
X649744Y419048D01*
X649814Y419037D01*
X649895Y419013D01*
X649980Y419012D01*
X650049Y419001D01*
X1065801Y419001D01*
X1065801Y413749D01*
X6000Y413749D01*
X5936Y413740D01*
X5872Y413741D01*
X5797Y413720D01*
X5721Y413709D01*
X5662Y413683D01*
X5600Y413666D01*
X5534Y413625D01*
X5464Y413593D01*
X5415Y413551D01*
X5360Y413518D01*
X5308Y413460D01*
X5250Y413410D01*
X5214Y413356D01*
X5171Y413308D01*
X5138Y413239D01*
X5095Y413174D01*
X5076Y413112D01*
X5048Y413055D01*
X5037Y412985D01*
X5013Y412904D01*
X5012Y412819D01*
X5001Y412750D01*
X5001Y302955D01*
X5006Y302919D01*
X5003Y302886D01*
X5367Y297638D01*
X5382Y297569D01*
X5384Y297509D01*
X6430Y292353D01*
X6454Y292286D01*
X6464Y292227D01*
X8174Y287252D01*
X8206Y287189D01*
X8224Y287131D01*
X10569Y282422D01*
X10609Y282364D01*
X10635Y282309D01*
X13574Y277946D01*
X13603Y277914D01*
X13616Y277892D01*
X13630Y277880D01*
X13653Y277843D01*
X17137Y273901D01*
X17191Y273855D01*
X17230Y273809D01*
X21198Y270355D01*
X21257Y270316D01*
X21302Y270276D01*
X25686Y267370D01*
X25750Y267339D01*
X25800Y267305D01*
X30527Y264996D01*
X30594Y264974D01*
X30648Y264946D01*
X35635Y263274D01*
X35705Y263261D01*
X35762Y263241D01*
X40925Y262234D01*
X40996Y262230D01*
X41055Y262217D01*
X46305Y261893D01*
X46338Y261895D01*
X46367Y261891D01*
X239240Y261891D01*
X239278Y261896D01*
X239311Y261893D01*
X242858Y262147D01*
X242934Y262163D01*
X242999Y262167D01*
X246473Y262923D01*
X246546Y262950D01*
X246610Y262963D01*
X249941Y264206D01*
X250009Y264243D01*
X250071Y264265D01*
X253192Y265969D01*
X253254Y266015D01*
X253312Y266046D01*
X256158Y268177D01*
X256213Y268232D01*
X256266Y268270D01*
X258780Y270784D01*
X258826Y270846D01*
X258856Y270875D01*
X258858Y270877D01*
X258859Y270878D01*
X258873Y270892D01*
X261004Y273738D01*
X261041Y273806D01*
X261081Y273858D01*
X262785Y276979D01*
X262812Y277052D01*
X262844Y277109D01*
X264087Y280440D01*
X264103Y280516D01*
X264127Y280577D01*
X264883Y284051D01*
X264888Y284128D01*
X264903Y284192D01*
X265157Y287739D01*
X265154Y287777D01*
X265159Y287810D01*
X265159Y326661D01*
X387621Y326661D01*
X387621Y277650D01*
X387627Y277604D01*
X387625Y277563D01*
X387849Y275000D01*
X387871Y274906D01*
X387879Y274828D01*
X388545Y272343D01*
X388583Y272254D01*
X388605Y272179D01*
X389692Y269848D01*
X389745Y269767D01*
X389779Y269697D01*
X391255Y267589D01*
X391321Y267519D01*
X391367Y267456D01*
X393186Y265637D01*
X393263Y265579D01*
X393319Y265525D01*
X395427Y264049D01*
X395513Y264005D01*
X395578Y263962D01*
X397909Y262875D01*
X398002Y262846D01*
X398073Y262815D01*
X400558Y262149D01*
X400655Y262137D01*
X400730Y262119D01*
X403293Y261895D01*
X403339Y261897D01*
X403380Y261891D01*
X495780Y261891D01*
X495826Y261897D01*
X495867Y261895D01*
X497548Y262042D01*
X497642Y262064D01*
X497720Y262072D01*
X499349Y262509D01*
X499438Y262547D01*
X499513Y262568D01*
X501042Y263281D01*
X501123Y263334D01*
X501193Y263368D01*
X502575Y264336D01*
X502646Y264402D01*
X502709Y264448D01*
X503902Y265641D01*
X503960Y265719D01*
X504014Y265775D01*
X504982Y267157D01*
X505025Y267243D01*
X505069Y267308D01*
X505445Y268115D01*
X505782Y268837D01*
X505810Y268930D01*
X505841Y269001D01*
X506278Y270630D01*
X506290Y270726D01*
X506308Y270802D01*
X506455Y272483D01*
X506453Y272529D01*
X506459Y272570D01*
X506459Y326661D01*
X628921Y326661D01*
X628921Y284716D01*
X628927Y284675D01*
X628924Y284638D01*
X629175Y281448D01*
X629180Y281425D01*
X629180Y281401D01*
X629195Y281346D01*
X629199Y281293D01*
X629946Y278182D01*
X629978Y278102D01*
X629995Y278033D01*
X631219Y275077D01*
X631263Y275003D01*
X631290Y274937D01*
X632962Y272209D01*
X633017Y272143D01*
X633054Y272082D01*
X635132Y269649D01*
X635197Y269592D01*
X635243Y269538D01*
X638261Y266961D01*
X638334Y266914D01*
X638388Y266868D01*
X641772Y264795D01*
X641851Y264761D01*
X641912Y264723D01*
X645578Y263205D01*
X645662Y263183D01*
X645727Y263156D01*
X649587Y262230D01*
X649672Y262222D01*
X649741Y262205D01*
X653698Y261894D01*
X653740Y261896D01*
X653776Y261891D01*
X725226Y261891D01*
X725267Y261897D01*
X725304Y261894D01*
X728508Y262146D01*
X728592Y262165D01*
X728663Y262171D01*
X731788Y262921D01*
X731868Y262953D01*
X731937Y262969D01*
X734907Y264199D01*
X734981Y264243D01*
X735047Y264270D01*
X737787Y265950D01*
X737853Y266005D01*
X737914Y266042D01*
X740358Y268129D01*
X740415Y268194D01*
X740469Y268240D01*
X742922Y271113D01*
X742968Y271185D01*
X743014Y271240D01*
X744988Y274461D01*
X745022Y274540D01*
X745059Y274600D01*
X746505Y278090D01*
X746526Y278174D01*
X746553Y278240D01*
X747435Y281913D01*
X747443Y281999D01*
X747460Y282068D01*
X747756Y285834D01*
X747754Y285876D01*
X747759Y285912D01*
X747759Y326661D01*
X871491Y326661D01*
X871491Y284206D01*
X871497Y284165D01*
X871494Y284128D01*
X871772Y280595D01*
X871791Y280511D01*
X871796Y280440D01*
X872624Y276994D01*
X872656Y276914D01*
X872672Y276844D01*
X874029Y273570D01*
X874072Y273496D01*
X874100Y273430D01*
X875952Y270408D01*
X876006Y270342D01*
X876044Y270281D01*
X878346Y267586D01*
X878410Y267530D01*
X878456Y267476D01*
X880634Y265616D01*
X880707Y265570D01*
X880761Y265524D01*
X883203Y264027D01*
X883282Y263993D01*
X883342Y263956D01*
X885988Y262860D01*
X886072Y262839D01*
X886137Y262812D01*
X888922Y262143D01*
X889008Y262135D01*
X889077Y262119D01*
X891932Y261894D01*
X891974Y261896D01*
X892010Y261891D01*
X971606Y261891D01*
X971658Y261898D01*
X971704Y261896D01*
X973645Y262087D01*
X973753Y262113D01*
X973837Y262125D01*
X975704Y262691D01*
X975804Y262738D01*
X975885Y262766D01*
X977605Y263686D01*
X977622Y263698D01*
X977623Y263699D01*
X977627Y263702D01*
X977694Y263751D01*
X977768Y263794D01*
X979276Y265032D01*
X979336Y265098D01*
X979393Y265146D01*
X981790Y267879D01*
X982166Y268308D01*
X982205Y268367D01*
X982246Y268412D01*
X984583Y271909D01*
X984613Y271973D01*
X984648Y272022D01*
X986508Y275795D01*
X986531Y275862D01*
X986558Y275916D01*
X987911Y279899D01*
X987924Y279968D01*
X987944Y280025D01*
X988765Y284150D01*
X988769Y284221D01*
X988782Y284280D01*
X989057Y288477D01*
X989054Y288512D01*
X989059Y288542D01*
X989059Y326661D01*
X1114061Y326661D01*
X1114061Y275875D01*
X1113642Y269490D01*
X1112400Y263247D01*
X1110354Y257219D01*
X1107539Y251510D01*
X1104002Y246217D01*
X1104001Y246216D01*
X1103125Y245217D01*
X1102249Y244218D01*
X1102249Y244217D01*
X1101372Y243218D01*
X1099783Y241406D01*
X1075624Y217247D01*
X1075603Y217220D01*
X1075579Y217200D01*
X1074737Y216239D01*
X1073860Y215239D01*
X1072713Y213931D01*
X1072674Y213872D01*
X1072634Y213827D01*
X1070218Y210213D01*
X1070188Y210149D01*
X1070153Y210100D01*
X1068230Y206200D01*
X1068208Y206133D01*
X1068180Y206080D01*
X1066783Y201963D01*
X1066770Y201894D01*
X1066749Y201837D01*
X1065901Y197573D01*
X1065897Y197502D01*
X1065884Y197443D01*
X1065599Y193105D01*
X1065605Y193035D01*
X1065599Y192975D01*
X1065962Y187436D01*
X1065977Y187367D01*
X1065979Y187306D01*
X1067062Y181863D01*
X1067086Y181796D01*
X1067096Y181736D01*
X1068880Y176480D01*
X1068912Y176417D01*
X1068930Y176360D01*
X1071385Y171381D01*
X1071425Y171323D01*
X1071451Y171268D01*
X1074534Y166653D01*
X1074582Y166600D01*
X1074614Y166549D01*
X1078274Y162376D01*
X1078300Y162354D01*
X1078318Y162329D01*
X1110121Y130526D01*
X1110148Y130505D01*
X1110168Y130482D01*
X1113722Y127365D01*
X1113781Y127327D01*
X1113825Y127286D01*
X1117755Y124660D01*
X1117819Y124629D01*
X1117868Y124595D01*
X1122107Y122504D01*
X1122175Y122482D01*
X1122228Y122454D01*
X1126704Y120935D01*
X1126773Y120922D01*
X1126830Y120901D01*
X1131465Y119979D01*
X1131536Y119975D01*
X1131595Y119962D01*
X1136311Y119653D01*
X1136346Y119656D01*
X1136376Y119651D01*
X1168674Y119651D01*
X1168708Y119656D01*
X1168739Y119653D01*
X1172655Y119910D01*
X1172724Y119924D01*
X1172784Y119927D01*
X1176633Y120692D01*
X1176700Y120716D01*
X1176759Y120726D01*
X1180475Y121987D01*
X1180538Y122019D01*
X1180596Y122037D01*
X1184116Y123773D01*
X1184152Y123798D01*
X1184165Y123804D01*
X1184177Y123814D01*
X1184229Y123838D01*
X1187492Y126019D01*
X1187544Y126066D01*
X1187595Y126098D01*
X1190546Y128686D01*
X1190605Y128755D01*
X1190660Y128804D01*
X1192132Y130603D01*
X1192176Y130677D01*
X1192221Y130732D01*
X1193393Y132739D01*
X1193425Y132819D01*
X1193461Y132880D01*
X1194304Y135046D01*
X1194324Y135130D01*
X1194349Y135196D01*
X1194844Y137467D01*
X1194845Y137481D01*
X1194845Y137483D01*
X1194845Y137492D01*
X1194850Y137553D01*
X1194865Y137623D01*
X1194998Y139943D01*
X1194995Y139973D01*
X1194999Y140000D01*
X1194999Y994000D01*
X1194990Y994064D01*
G37*
%LPC*%
G36*
X179101Y462200D02*
X179101Y462200D01*
X178658Y462643D01*
X178582Y462700D01*
X178510Y462765D01*
X178469Y462785D01*
X178433Y462812D01*
X178343Y462846D01*
X178256Y462888D01*
X178214Y462894D01*
X178169Y462911D01*
X178041Y462921D01*
X177952Y462935D01*
X58366Y462935D01*
X43519Y477783D01*
X43442Y477840D01*
X43371Y477905D01*
X43330Y477925D01*
X43293Y477952D01*
X43203Y477986D01*
X43117Y478028D01*
X43075Y478034D01*
X43030Y478051D01*
X42902Y478061D01*
X42812Y478075D01*
X42576Y478075D01*
X39925Y480726D01*
X39925Y484474D01*
X40093Y484642D01*
X40150Y484718D01*
X40215Y484790D01*
X40235Y484831D01*
X40262Y484867D01*
X40296Y484957D01*
X40338Y485044D01*
X40344Y485086D01*
X40361Y485131D01*
X40371Y485259D01*
X40385Y485348D01*
X40385Y556052D01*
X40372Y556147D01*
X40367Y556243D01*
X40352Y556286D01*
X40345Y556331D01*
X40306Y556419D01*
X40274Y556510D01*
X40249Y556544D01*
X40229Y556588D01*
X40146Y556685D01*
X40093Y556759D01*
X39925Y556926D01*
X39925Y560674D01*
X42576Y563325D01*
X42812Y563325D01*
X42907Y563338D01*
X43004Y563343D01*
X43047Y563358D01*
X43092Y563365D01*
X43179Y563404D01*
X43270Y563436D01*
X43304Y563461D01*
X43349Y563481D01*
X43446Y563564D01*
X43519Y563617D01*
X59143Y579241D01*
X59200Y579318D01*
X59265Y579389D01*
X59285Y579430D01*
X59312Y579467D01*
X59346Y579557D01*
X59388Y579643D01*
X59394Y579685D01*
X59411Y579730D01*
X59421Y579858D01*
X59435Y579948D01*
X59435Y626552D01*
X59422Y626647D01*
X59417Y626744D01*
X59402Y626787D01*
X59395Y626832D01*
X59356Y626919D01*
X59324Y627010D01*
X59299Y627044D01*
X59279Y627089D01*
X59196Y627186D01*
X59143Y627259D01*
X46735Y639666D01*
X46735Y683052D01*
X46722Y683147D01*
X46717Y683243D01*
X46702Y683286D01*
X46695Y683331D01*
X46656Y683419D01*
X46624Y683509D01*
X46599Y683544D01*
X46579Y683588D01*
X46496Y683685D01*
X46443Y683758D01*
X46275Y683926D01*
X46275Y687674D01*
X46443Y687842D01*
X46500Y687918D01*
X46565Y687990D01*
X46585Y688031D01*
X46612Y688067D01*
X46646Y688157D01*
X46688Y688244D01*
X46694Y688286D01*
X46711Y688331D01*
X46721Y688459D01*
X46735Y688548D01*
X46735Y719234D01*
X49409Y721907D01*
X84083Y756581D01*
X84140Y756658D01*
X84205Y756729D01*
X84225Y756770D01*
X84252Y756807D01*
X84286Y756897D01*
X84328Y756983D01*
X84334Y757025D01*
X84351Y757070D01*
X84361Y757198D01*
X84375Y757288D01*
X84375Y757524D01*
X84543Y757692D01*
X84600Y757768D01*
X84665Y757840D01*
X84685Y757881D01*
X84712Y757917D01*
X84746Y758007D01*
X84788Y758094D01*
X84794Y758136D01*
X84811Y758181D01*
X84821Y758309D01*
X84835Y758398D01*
X84835Y810052D01*
X84822Y810147D01*
X84817Y810243D01*
X84802Y810286D01*
X84795Y810331D01*
X84756Y810419D01*
X84724Y810509D01*
X84699Y810544D01*
X84679Y810588D01*
X84596Y810685D01*
X84543Y810758D01*
X84375Y810926D01*
X84375Y814674D01*
X84543Y814842D01*
X84600Y814918D01*
X84665Y814990D01*
X84685Y815031D01*
X84712Y815067D01*
X84746Y815157D01*
X84788Y815244D01*
X84794Y815286D01*
X84811Y815331D01*
X84821Y815459D01*
X84835Y815548D01*
X84835Y823402D01*
X84822Y823497D01*
X84817Y823594D01*
X84802Y823637D01*
X84795Y823682D01*
X84756Y823769D01*
X84724Y823860D01*
X84699Y823894D01*
X84679Y823939D01*
X84596Y824036D01*
X84543Y824109D01*
X62109Y846543D01*
X62032Y846600D01*
X61961Y846665D01*
X61920Y846685D01*
X61883Y846712D01*
X61793Y846746D01*
X61707Y846788D01*
X61665Y846794D01*
X61620Y846811D01*
X61492Y846821D01*
X61402Y846835D01*
X53548Y846835D01*
X53453Y846822D01*
X53357Y846817D01*
X53314Y846802D01*
X53269Y846795D01*
X53181Y846756D01*
X53091Y846724D01*
X53056Y846699D01*
X53012Y846679D01*
X52915Y846596D01*
X52842Y846543D01*
X52674Y846375D01*
X48926Y846375D01*
X46275Y849026D01*
X46275Y852774D01*
X48926Y855425D01*
X52674Y855425D01*
X52842Y855257D01*
X52918Y855200D01*
X52990Y855135D01*
X53031Y855115D01*
X53067Y855088D01*
X53157Y855054D01*
X53244Y855012D01*
X53286Y855006D01*
X53331Y854989D01*
X53459Y854979D01*
X53548Y854965D01*
X65184Y854965D01*
X88193Y831955D01*
X88245Y831916D01*
X88290Y831870D01*
X88357Y831832D01*
X88419Y831786D01*
X88479Y831763D01*
X88535Y831731D01*
X88610Y831713D01*
X88683Y831686D01*
X88747Y831681D01*
X88809Y831666D01*
X88887Y831670D01*
X88964Y831664D01*
X89027Y831677D01*
X89091Y831681D01*
X89164Y831706D01*
X89240Y831722D01*
X89297Y831752D01*
X89358Y831773D01*
X89414Y831815D01*
X89489Y831854D01*
X89550Y831914D01*
X89607Y831955D01*
X131666Y874015D01*
X143302Y874015D01*
X143397Y874028D01*
X143493Y874033D01*
X143536Y874048D01*
X143581Y874055D01*
X143669Y874094D01*
X143759Y874126D01*
X143794Y874151D01*
X143838Y874171D01*
X143935Y874254D01*
X144008Y874307D01*
X144176Y874475D01*
X147924Y874475D01*
X148092Y874307D01*
X148168Y874250D01*
X148240Y874185D01*
X148281Y874165D01*
X148317Y874138D01*
X148407Y874104D01*
X148494Y874062D01*
X148536Y874056D01*
X148581Y874039D01*
X148709Y874029D01*
X148798Y874015D01*
X181402Y874015D01*
X181497Y874028D01*
X181593Y874033D01*
X181636Y874048D01*
X181681Y874055D01*
X181769Y874094D01*
X181859Y874126D01*
X181894Y874151D01*
X181938Y874171D01*
X182035Y874254D01*
X182108Y874307D01*
X182276Y874475D01*
X186024Y874475D01*
X186242Y874257D01*
X186318Y874200D01*
X186390Y874135D01*
X186431Y874115D01*
X186467Y874088D01*
X186557Y874054D01*
X186644Y874012D01*
X186686Y874006D01*
X186731Y873989D01*
X186859Y873979D01*
X186948Y873965D01*
X217702Y873965D01*
X217797Y873978D01*
X217893Y873983D01*
X217936Y873998D01*
X217981Y874005D01*
X218069Y874044D01*
X218160Y874076D01*
X218194Y874101D01*
X218238Y874121D01*
X218335Y874204D01*
X218409Y874257D01*
X218926Y874775D01*
X222674Y874775D01*
X225325Y872124D01*
X225325Y871888D01*
X225338Y871793D01*
X225343Y871696D01*
X225358Y871653D01*
X225365Y871608D01*
X225404Y871521D01*
X225436Y871430D01*
X225461Y871396D01*
X225481Y871351D01*
X225564Y871254D01*
X225617Y871181D01*
X247891Y848907D01*
X247968Y848850D01*
X248039Y848785D01*
X248080Y848765D01*
X248117Y848738D01*
X248207Y848704D01*
X248293Y848662D01*
X248335Y848656D01*
X248380Y848639D01*
X248508Y848629D01*
X248598Y848615D01*
X263952Y848615D01*
X264047Y848628D01*
X264143Y848633D01*
X264186Y848648D01*
X264231Y848655D01*
X264319Y848694D01*
X264410Y848726D01*
X264444Y848751D01*
X264488Y848771D01*
X264585Y848854D01*
X264659Y848907D01*
X264826Y849075D01*
X265062Y849075D01*
X265157Y849088D01*
X265254Y849093D01*
X265297Y849108D01*
X265342Y849115D01*
X265429Y849154D01*
X265520Y849186D01*
X265554Y849211D01*
X265599Y849231D01*
X265696Y849314D01*
X265769Y849367D01*
X268693Y852291D01*
X268750Y852368D01*
X268815Y852439D01*
X268835Y852480D01*
X268862Y852517D01*
X268896Y852607D01*
X268938Y852693D01*
X268944Y852735D01*
X268961Y852780D01*
X268971Y852908D01*
X268985Y852998D01*
X268985Y909734D01*
X271659Y912407D01*
X274583Y915331D01*
X274640Y915408D01*
X274705Y915479D01*
X274725Y915520D01*
X274752Y915557D01*
X274786Y915647D01*
X274828Y915733D01*
X274834Y915775D01*
X274851Y915820D01*
X274861Y915948D01*
X274875Y916038D01*
X274875Y916274D01*
X277526Y918925D01*
X277762Y918925D01*
X277857Y918938D01*
X277954Y918943D01*
X277997Y918958D01*
X278042Y918965D01*
X278129Y919004D01*
X278220Y919036D01*
X278254Y919061D01*
X278299Y919081D01*
X278396Y919164D01*
X278469Y919217D01*
X306793Y947541D01*
X309466Y950215D01*
X359202Y950215D01*
X359297Y950228D01*
X359393Y950233D01*
X359436Y950248D01*
X359481Y950255D01*
X359569Y950294D01*
X359659Y950326D01*
X359694Y950351D01*
X359738Y950371D01*
X359835Y950454D01*
X359908Y950507D01*
X360076Y950675D01*
X363824Y950675D01*
X363992Y950507D01*
X364068Y950450D01*
X364140Y950385D01*
X364181Y950365D01*
X364217Y950338D01*
X364307Y950304D01*
X364394Y950262D01*
X364436Y950256D01*
X364481Y950239D01*
X364609Y950229D01*
X364698Y950215D01*
X376334Y950215D01*
X379007Y947541D01*
X407331Y919217D01*
X407408Y919160D01*
X407479Y919095D01*
X407520Y919075D01*
X407557Y919048D01*
X407647Y919014D01*
X407733Y918972D01*
X407775Y918966D01*
X407820Y918949D01*
X407948Y918939D01*
X408038Y918925D01*
X408274Y918925D01*
X408442Y918757D01*
X408518Y918700D01*
X408590Y918635D01*
X408631Y918615D01*
X408667Y918588D01*
X408757Y918554D01*
X408844Y918512D01*
X408886Y918506D01*
X408931Y918489D01*
X409059Y918479D01*
X409148Y918465D01*
X441752Y918465D01*
X441847Y918478D01*
X441943Y918483D01*
X441986Y918498D01*
X442031Y918505D01*
X442119Y918544D01*
X442209Y918576D01*
X442244Y918601D01*
X442288Y918621D01*
X442385Y918704D01*
X442458Y918757D01*
X442626Y918925D01*
X442862Y918925D01*
X442957Y918938D01*
X443054Y918943D01*
X443097Y918958D01*
X443142Y918965D01*
X443229Y919004D01*
X443320Y919036D01*
X443354Y919061D01*
X443399Y919081D01*
X443496Y919164D01*
X443569Y919217D01*
X465543Y941191D01*
X465600Y941268D01*
X465665Y941339D01*
X465685Y941380D01*
X465712Y941417D01*
X465746Y941507D01*
X465788Y941593D01*
X465794Y941635D01*
X465811Y941680D01*
X465821Y941808D01*
X465835Y941898D01*
X465835Y949752D01*
X465822Y949847D01*
X465817Y949943D01*
X465802Y949986D01*
X465795Y950031D01*
X465756Y950119D01*
X465724Y950209D01*
X465699Y950244D01*
X465679Y950288D01*
X465596Y950385D01*
X465543Y950458D01*
X465375Y950626D01*
X465375Y954374D01*
X468026Y957025D01*
X471774Y957025D01*
X474425Y954374D01*
X474425Y950626D01*
X474257Y950458D01*
X474200Y950382D01*
X474135Y950310D01*
X474115Y950269D01*
X474088Y950233D01*
X474054Y950143D01*
X474012Y950056D01*
X474006Y950014D01*
X473989Y949969D01*
X473979Y949841D01*
X473965Y949752D01*
X473965Y938116D01*
X449317Y913469D01*
X449260Y913392D01*
X449195Y913321D01*
X449175Y913280D01*
X449148Y913243D01*
X449114Y913153D01*
X449072Y913067D01*
X449066Y913025D01*
X449049Y912980D01*
X449039Y912852D01*
X449025Y912762D01*
X449025Y912526D01*
X446374Y909875D01*
X442626Y909875D01*
X442458Y910043D01*
X442382Y910100D01*
X442310Y910165D01*
X442269Y910185D01*
X442233Y910212D01*
X442143Y910246D01*
X442056Y910288D01*
X442014Y910294D01*
X441969Y910311D01*
X441841Y910321D01*
X441752Y910335D01*
X409148Y910335D01*
X409053Y910322D01*
X408957Y910317D01*
X408914Y910302D01*
X408869Y910295D01*
X408781Y910256D01*
X408691Y910224D01*
X408656Y910199D01*
X408612Y910179D01*
X408515Y910096D01*
X408442Y910043D01*
X408274Y909875D01*
X404526Y909875D01*
X401875Y912526D01*
X401875Y912762D01*
X401862Y912857D01*
X401857Y912954D01*
X401842Y912997D01*
X401835Y913042D01*
X401796Y913129D01*
X401764Y913220D01*
X401739Y913254D01*
X401719Y913299D01*
X401636Y913396D01*
X401583Y913469D01*
X373259Y941793D01*
X373182Y941850D01*
X373111Y941915D01*
X373070Y941935D01*
X373033Y941962D01*
X372943Y941996D01*
X372857Y942038D01*
X372815Y942044D01*
X372770Y942061D01*
X372642Y942071D01*
X372552Y942085D01*
X364698Y942085D01*
X364603Y942072D01*
X364507Y942067D01*
X364464Y942052D01*
X364419Y942045D01*
X364331Y942006D01*
X364241Y941974D01*
X364206Y941949D01*
X364162Y941929D01*
X364065Y941846D01*
X363992Y941793D01*
X363824Y941625D01*
X360076Y941625D01*
X359908Y941793D01*
X359832Y941850D01*
X359760Y941915D01*
X359719Y941935D01*
X359683Y941962D01*
X359593Y941996D01*
X359506Y942038D01*
X359464Y942044D01*
X359419Y942061D01*
X359291Y942071D01*
X359202Y942085D01*
X341564Y942085D01*
X341500Y942076D01*
X341436Y942077D01*
X341361Y942056D01*
X341285Y942045D01*
X341226Y942019D01*
X341164Y942002D01*
X341098Y941961D01*
X341028Y941929D01*
X340979Y941887D01*
X340924Y941854D01*
X340872Y941796D01*
X340814Y941746D01*
X340778Y941692D01*
X340735Y941644D01*
X340702Y941575D01*
X340659Y941510D01*
X340640Y941448D01*
X340612Y941391D01*
X340601Y941321D01*
X340577Y941240D01*
X340576Y941155D01*
X340565Y941086D01*
X340565Y927048D01*
X340578Y926953D01*
X340583Y926857D01*
X340598Y926814D01*
X340605Y926769D01*
X340644Y926681D01*
X340676Y926591D01*
X340701Y926556D01*
X340721Y926512D01*
X340804Y926415D01*
X340857Y926342D01*
X341025Y926174D01*
X341025Y922426D01*
X338374Y919775D01*
X334626Y919775D01*
X331975Y922426D01*
X331975Y926174D01*
X332143Y926342D01*
X332200Y926418D01*
X332265Y926490D01*
X332285Y926531D01*
X332312Y926567D01*
X332346Y926657D01*
X332388Y926744D01*
X332394Y926786D01*
X332411Y926831D01*
X332421Y926959D01*
X332435Y927048D01*
X332435Y941086D01*
X332426Y941150D01*
X332427Y941214D01*
X332406Y941289D01*
X332395Y941365D01*
X332369Y941424D01*
X332352Y941486D01*
X332311Y941552D01*
X332279Y941622D01*
X332237Y941671D01*
X332204Y941726D01*
X332146Y941778D01*
X332096Y941836D01*
X332042Y941872D01*
X331994Y941915D01*
X331925Y941948D01*
X331860Y941991D01*
X331798Y942010D01*
X331741Y942038D01*
X331671Y942049D01*
X331590Y942073D01*
X331505Y942074D01*
X331436Y942085D01*
X313248Y942085D01*
X313153Y942072D01*
X313056Y942067D01*
X313013Y942052D01*
X312968Y942045D01*
X312881Y942006D01*
X312790Y941974D01*
X312756Y941949D01*
X312711Y941929D01*
X312614Y941846D01*
X312541Y941793D01*
X284217Y913469D01*
X284160Y913392D01*
X284095Y913321D01*
X284075Y913280D01*
X284048Y913243D01*
X284014Y913153D01*
X283972Y913067D01*
X283966Y913025D01*
X283949Y912980D01*
X283939Y912852D01*
X283925Y912762D01*
X283925Y912526D01*
X281274Y909875D01*
X281038Y909875D01*
X280943Y909862D01*
X280846Y909857D01*
X280803Y909842D01*
X280758Y909835D01*
X280671Y909796D01*
X280580Y909764D01*
X280546Y909739D01*
X280501Y909719D01*
X280404Y909636D01*
X280331Y909583D01*
X277407Y906659D01*
X277350Y906582D01*
X277285Y906511D01*
X277265Y906470D01*
X277238Y906433D01*
X277204Y906343D01*
X277162Y906257D01*
X277156Y906215D01*
X277139Y906170D01*
X277129Y906042D01*
X277115Y905952D01*
X277115Y849216D01*
X271517Y843619D01*
X271460Y843542D01*
X271395Y843471D01*
X271375Y843430D01*
X271348Y843393D01*
X271314Y843303D01*
X271272Y843217D01*
X271266Y843175D01*
X271249Y843130D01*
X271239Y843002D01*
X271225Y842912D01*
X271225Y842676D01*
X268574Y840025D01*
X264826Y840025D01*
X264659Y840193D01*
X264582Y840250D01*
X264510Y840315D01*
X264469Y840335D01*
X264433Y840362D01*
X264343Y840396D01*
X264257Y840438D01*
X264214Y840444D01*
X264169Y840461D01*
X264041Y840471D01*
X263952Y840485D01*
X244816Y840485D01*
X219869Y865433D01*
X219792Y865490D01*
X219721Y865555D01*
X219680Y865575D01*
X219643Y865602D01*
X219553Y865636D01*
X219467Y865678D01*
X219425Y865684D01*
X219380Y865701D01*
X219252Y865711D01*
X219162Y865725D01*
X218847Y865725D01*
X218793Y865746D01*
X218707Y865788D01*
X218664Y865794D01*
X218619Y865811D01*
X218491Y865821D01*
X218402Y865835D01*
X186848Y865835D01*
X186753Y865822D01*
X186657Y865817D01*
X186614Y865802D01*
X186569Y865795D01*
X186481Y865756D01*
X186391Y865724D01*
X186356Y865699D01*
X186312Y865679D01*
X186215Y865596D01*
X186142Y865543D01*
X186024Y865425D01*
X182276Y865425D01*
X182108Y865593D01*
X182032Y865650D01*
X181960Y865715D01*
X181919Y865735D01*
X181883Y865762D01*
X181793Y865796D01*
X181706Y865838D01*
X181664Y865844D01*
X181619Y865861D01*
X181491Y865871D01*
X181402Y865885D01*
X148798Y865885D01*
X148703Y865872D01*
X148607Y865867D01*
X148564Y865852D01*
X148519Y865845D01*
X148431Y865806D01*
X148341Y865774D01*
X148306Y865749D01*
X148262Y865729D01*
X148165Y865646D01*
X148092Y865593D01*
X147924Y865425D01*
X144176Y865425D01*
X144008Y865593D01*
X143932Y865650D01*
X143860Y865715D01*
X143819Y865735D01*
X143783Y865762D01*
X143693Y865796D01*
X143606Y865838D01*
X143564Y865844D01*
X143519Y865861D01*
X143391Y865871D01*
X143302Y865885D01*
X135448Y865885D01*
X135353Y865872D01*
X135256Y865867D01*
X135213Y865852D01*
X135168Y865845D01*
X135081Y865806D01*
X134990Y865774D01*
X134956Y865749D01*
X134911Y865729D01*
X134814Y865646D01*
X134741Y865593D01*
X113579Y844431D01*
X113560Y844405D01*
X113535Y844384D01*
X113475Y844292D01*
X113410Y844205D01*
X113398Y844175D01*
X113381Y844148D01*
X113349Y844043D01*
X113310Y843941D01*
X113308Y843909D01*
X113298Y843878D01*
X113297Y843769D01*
X113288Y843660D01*
X113295Y843628D01*
X113294Y843596D01*
X113324Y843491D01*
X113346Y843384D01*
X113361Y843355D01*
X113370Y843324D01*
X113427Y843231D01*
X113478Y843135D01*
X113501Y843112D01*
X113518Y843084D01*
X113599Y843011D01*
X113675Y842933D01*
X113703Y842917D01*
X113727Y842895D01*
X113825Y842848D01*
X113921Y842794D01*
X113952Y842786D01*
X113981Y842772D01*
X114070Y842758D01*
X114195Y842729D01*
X114243Y842731D01*
X114286Y842725D01*
X116174Y842725D01*
X116342Y842557D01*
X116418Y842500D01*
X116490Y842435D01*
X116531Y842415D01*
X116567Y842388D01*
X116657Y842354D01*
X116744Y842312D01*
X116786Y842306D01*
X116831Y842289D01*
X116959Y842279D01*
X117048Y842265D01*
X160434Y842265D01*
X185541Y817157D01*
X185618Y817100D01*
X185689Y817035D01*
X185730Y817015D01*
X185767Y816988D01*
X185857Y816954D01*
X185943Y816912D01*
X185985Y816906D01*
X186030Y816889D01*
X186158Y816879D01*
X186248Y816865D01*
X320152Y816865D01*
X320184Y816869D01*
X320216Y816867D01*
X320323Y816889D01*
X320432Y816905D01*
X320461Y816918D01*
X320493Y816924D01*
X320589Y816976D01*
X320689Y817021D01*
X320713Y817042D01*
X320741Y817057D01*
X320820Y817133D01*
X320903Y817204D01*
X320920Y817231D01*
X320944Y817254D01*
X320997Y817349D01*
X321057Y817440D01*
X321067Y817471D01*
X321083Y817499D01*
X321108Y817606D01*
X321140Y817710D01*
X321140Y817742D01*
X321148Y817773D01*
X321142Y817883D01*
X321143Y817992D01*
X321135Y818023D01*
X321133Y818055D01*
X321097Y818158D01*
X321068Y818264D01*
X321051Y818291D01*
X321041Y818322D01*
X320987Y818395D01*
X320920Y818504D01*
X320884Y818536D01*
X320859Y818571D01*
X312397Y827033D01*
X312320Y827090D01*
X312249Y827155D01*
X312208Y827175D01*
X312171Y827202D01*
X312081Y827236D01*
X311995Y827278D01*
X311953Y827284D01*
X311907Y827301D01*
X311780Y827311D01*
X311690Y827325D01*
X309276Y827325D01*
X306625Y829976D01*
X306625Y833724D01*
X309276Y836375D01*
X313342Y836375D01*
X313374Y836379D01*
X313406Y836377D01*
X313513Y836399D01*
X313622Y836415D01*
X313651Y836428D01*
X313683Y836434D01*
X313779Y836486D01*
X313879Y836531D01*
X313903Y836552D01*
X313931Y836567D01*
X314010Y836643D01*
X314093Y836714D01*
X314110Y836741D01*
X314134Y836764D01*
X314187Y836859D01*
X314247Y836950D01*
X314257Y836981D01*
X314273Y837009D01*
X314298Y837116D01*
X314330Y837220D01*
X314330Y837252D01*
X314338Y837283D01*
X314332Y837393D01*
X314333Y837502D01*
X314325Y837533D01*
X314323Y837565D01*
X314287Y837668D01*
X314258Y837774D01*
X314241Y837801D01*
X314231Y837832D01*
X314177Y837905D01*
X314110Y838014D01*
X314074Y838046D01*
X314049Y838081D01*
X293347Y858783D01*
X293270Y858840D01*
X293199Y858905D01*
X293158Y858925D01*
X293121Y858952D01*
X293031Y858986D01*
X292945Y859028D01*
X292903Y859034D01*
X292857Y859051D01*
X292730Y859061D01*
X292640Y859075D01*
X290226Y859075D01*
X287575Y861726D01*
X287575Y865474D01*
X289744Y867643D01*
X289783Y867695D01*
X289829Y867740D01*
X289867Y867807D01*
X289914Y867869D01*
X289936Y867929D01*
X289968Y867985D01*
X289986Y868060D01*
X290013Y868133D01*
X290018Y868197D01*
X290033Y868260D01*
X290029Y868337D01*
X290035Y868414D01*
X290022Y868477D01*
X290019Y868541D01*
X289993Y868614D01*
X289977Y868690D01*
X289947Y868747D01*
X289926Y868808D01*
X289885Y868864D01*
X289845Y868939D01*
X289786Y869000D01*
X289744Y869057D01*
X287575Y871226D01*
X287575Y874974D01*
X290226Y877625D01*
X293974Y877625D01*
X296625Y874974D01*
X296625Y873474D01*
X296634Y873410D01*
X296633Y873346D01*
X296654Y873271D01*
X296665Y873195D01*
X296691Y873136D01*
X296708Y873074D01*
X296749Y873008D01*
X296781Y872938D01*
X296823Y872889D01*
X296856Y872834D01*
X296914Y872782D01*
X296964Y872724D01*
X297018Y872688D01*
X297066Y872645D01*
X297135Y872612D01*
X297200Y872569D01*
X297262Y872550D01*
X297319Y872522D01*
X297389Y872511D01*
X297470Y872487D01*
X297555Y872486D01*
X297624Y872475D01*
X319562Y872475D01*
X319657Y872488D01*
X319753Y872493D01*
X319796Y872508D01*
X319841Y872515D01*
X319929Y872554D01*
X320019Y872586D01*
X320054Y872611D01*
X320098Y872631D01*
X320195Y872714D01*
X320268Y872767D01*
X321976Y874475D01*
X325724Y874475D01*
X328375Y871824D01*
X328375Y868076D01*
X325724Y865425D01*
X321976Y865425D01*
X320268Y867133D01*
X320192Y867190D01*
X320120Y867255D01*
X320079Y867275D01*
X320043Y867302D01*
X319953Y867336D01*
X319866Y867378D01*
X319824Y867384D01*
X319779Y867401D01*
X319651Y867411D01*
X319562Y867425D01*
X297086Y867425D01*
X297054Y867421D01*
X297022Y867423D01*
X296915Y867401D01*
X296807Y867385D01*
X296777Y867372D01*
X296746Y867366D01*
X296649Y867314D01*
X296550Y867269D01*
X296525Y867248D01*
X296497Y867233D01*
X296419Y867157D01*
X296336Y867086D01*
X296318Y867059D01*
X296295Y867036D01*
X296241Y866942D01*
X296181Y866850D01*
X296172Y866819D01*
X296156Y866791D01*
X296131Y866685D01*
X296099Y866580D01*
X296098Y866548D01*
X296091Y866517D01*
X296096Y866407D01*
X296095Y866298D01*
X296104Y866267D01*
X296105Y866235D01*
X296141Y866132D01*
X296170Y866026D01*
X296187Y865999D01*
X296198Y865968D01*
X296251Y865895D01*
X296318Y865786D01*
X296354Y865754D01*
X296379Y865719D01*
X296625Y865474D01*
X296625Y863060D01*
X296638Y862965D01*
X296643Y862869D01*
X296658Y862825D01*
X296665Y862780D01*
X296704Y862693D01*
X296736Y862602D01*
X296761Y862568D01*
X296781Y862524D01*
X296864Y862426D01*
X296917Y862353D01*
X324603Y834667D01*
X324680Y834610D01*
X324751Y834545D01*
X324792Y834525D01*
X324829Y834498D01*
X324919Y834464D01*
X325005Y834422D01*
X325047Y834416D01*
X325093Y834399D01*
X325220Y834389D01*
X325310Y834375D01*
X455042Y834375D01*
X455074Y834379D01*
X455106Y834377D01*
X455213Y834399D01*
X455322Y834415D01*
X455351Y834428D01*
X455383Y834434D01*
X455479Y834486D01*
X455579Y834531D01*
X455603Y834552D01*
X455631Y834567D01*
X455710Y834643D01*
X455793Y834714D01*
X455810Y834741D01*
X455834Y834764D01*
X455887Y834859D01*
X455947Y834950D01*
X455957Y834981D01*
X455973Y835009D01*
X455998Y835115D01*
X456030Y835220D01*
X456030Y835252D01*
X456038Y835283D01*
X456032Y835393D01*
X456033Y835502D01*
X456025Y835533D01*
X456023Y835565D01*
X455987Y835668D01*
X455958Y835774D01*
X455941Y835801D01*
X455931Y835832D01*
X455877Y835905D01*
X455810Y836014D01*
X455774Y836046D01*
X455749Y836081D01*
X453748Y838082D01*
X453747Y838082D01*
X431047Y860783D01*
X430970Y860840D01*
X430899Y860905D01*
X430858Y860925D01*
X430821Y860952D01*
X430731Y860986D01*
X430645Y861028D01*
X430603Y861034D01*
X430557Y861051D01*
X430430Y861061D01*
X430340Y861075D01*
X423388Y861075D01*
X423293Y861062D01*
X423197Y861057D01*
X423154Y861042D01*
X423109Y861035D01*
X423021Y860996D01*
X422931Y860964D01*
X422896Y860939D01*
X422852Y860919D01*
X422755Y860836D01*
X422682Y860783D01*
X420974Y859075D01*
X417226Y859075D01*
X414575Y861726D01*
X414575Y865474D01*
X416744Y867643D01*
X416783Y867695D01*
X416829Y867740D01*
X416867Y867807D01*
X416914Y867869D01*
X416936Y867929D01*
X416968Y867985D01*
X416986Y868060D01*
X417013Y868133D01*
X417018Y868197D01*
X417033Y868259D01*
X417029Y868337D01*
X417035Y868414D01*
X417022Y868477D01*
X417019Y868541D01*
X416993Y868614D01*
X416977Y868690D01*
X416947Y868747D01*
X416926Y868808D01*
X416885Y868864D01*
X416845Y868939D01*
X416786Y869000D01*
X416744Y869057D01*
X414575Y871226D01*
X414575Y874974D01*
X417226Y877625D01*
X420974Y877625D01*
X423625Y874974D01*
X423625Y873474D01*
X423634Y873410D01*
X423633Y873346D01*
X423654Y873271D01*
X423665Y873195D01*
X423691Y873136D01*
X423708Y873074D01*
X423749Y873008D01*
X423781Y872938D01*
X423823Y872889D01*
X423856Y872834D01*
X423914Y872782D01*
X423964Y872724D01*
X424018Y872688D01*
X424066Y872645D01*
X424135Y872612D01*
X424200Y872569D01*
X424262Y872550D01*
X424319Y872522D01*
X424389Y872511D01*
X424470Y872487D01*
X424555Y872486D01*
X424624Y872475D01*
X446562Y872475D01*
X446657Y872488D01*
X446753Y872493D01*
X446796Y872508D01*
X446841Y872515D01*
X446929Y872554D01*
X447019Y872586D01*
X447054Y872611D01*
X447098Y872631D01*
X447195Y872714D01*
X447268Y872767D01*
X448976Y874475D01*
X453042Y874475D01*
X453074Y874479D01*
X453106Y874477D01*
X453213Y874499D01*
X453322Y874515D01*
X453351Y874528D01*
X453383Y874534D01*
X453479Y874586D01*
X453579Y874631D01*
X453603Y874652D01*
X453631Y874667D01*
X453710Y874743D01*
X453793Y874814D01*
X453810Y874841D01*
X453834Y874864D01*
X453887Y874959D01*
X453947Y875050D01*
X453957Y875081D01*
X453973Y875109D01*
X453998Y875215D01*
X454030Y875320D01*
X454030Y875352D01*
X454038Y875383D01*
X454032Y875493D01*
X454033Y875602D01*
X454025Y875633D01*
X454023Y875665D01*
X453987Y875768D01*
X453958Y875874D01*
X453941Y875901D01*
X453931Y875932D01*
X453877Y876005D01*
X453810Y876114D01*
X453774Y876146D01*
X453749Y876181D01*
X450097Y879833D01*
X450020Y879890D01*
X449949Y879955D01*
X449908Y879975D01*
X449871Y880002D01*
X449781Y880036D01*
X449695Y880078D01*
X449653Y880084D01*
X449607Y880101D01*
X449480Y880111D01*
X449390Y880125D01*
X429738Y880125D01*
X429643Y880112D01*
X429547Y880107D01*
X429504Y880092D01*
X429459Y880085D01*
X429371Y880046D01*
X429281Y880014D01*
X429246Y879989D01*
X429202Y879969D01*
X429105Y879886D01*
X429032Y879833D01*
X427324Y878125D01*
X423576Y878125D01*
X420925Y880776D01*
X420925Y884524D01*
X423576Y887175D01*
X427324Y887175D01*
X429032Y885467D01*
X429108Y885410D01*
X429180Y885345D01*
X429221Y885325D01*
X429257Y885298D01*
X429347Y885264D01*
X429434Y885222D01*
X429476Y885216D01*
X429521Y885199D01*
X429649Y885189D01*
X429738Y885175D01*
X451896Y885175D01*
X463535Y873536D01*
X463535Y864713D01*
X463548Y864618D01*
X463553Y864522D01*
X463568Y864479D01*
X463575Y864434D01*
X463614Y864346D01*
X463646Y864256D01*
X463671Y864221D01*
X463691Y864177D01*
X463774Y864080D01*
X463827Y864007D01*
X465535Y862299D01*
X465535Y858551D01*
X462884Y855900D01*
X459135Y855900D01*
X459072Y855891D01*
X459008Y855892D01*
X458933Y855871D01*
X458856Y855860D01*
X458798Y855834D01*
X458736Y855817D01*
X458670Y855776D01*
X458599Y855744D01*
X458551Y855702D01*
X458496Y855669D01*
X458444Y855611D01*
X458385Y855561D01*
X458350Y855507D01*
X458307Y855459D01*
X458273Y855390D01*
X458231Y855325D01*
X458212Y855263D01*
X458184Y855206D01*
X458173Y855136D01*
X458148Y855055D01*
X458147Y854970D01*
X458136Y854901D01*
X458136Y854203D01*
X458145Y854139D01*
X458144Y854075D01*
X458165Y854000D01*
X458176Y853923D01*
X458202Y853865D01*
X458220Y853803D01*
X458260Y853737D01*
X458292Y853666D01*
X458334Y853618D01*
X458368Y853563D01*
X458425Y853511D01*
X458476Y853452D01*
X458529Y853417D01*
X458577Y853374D01*
X458647Y853340D01*
X458712Y853298D01*
X458773Y853279D01*
X458831Y853251D01*
X458900Y853240D01*
X458981Y853215D01*
X459066Y853214D01*
X459135Y853203D01*
X515617Y853203D01*
X517389Y851432D01*
X609020Y759800D01*
X609097Y759743D01*
X609168Y759678D01*
X609209Y759658D01*
X609246Y759631D01*
X609336Y759597D01*
X609422Y759555D01*
X609464Y759549D01*
X609510Y759532D01*
X609637Y759522D01*
X609727Y759508D01*
X676697Y759508D01*
X676814Y759524D01*
X676933Y759536D01*
X676954Y759544D01*
X676976Y759548D01*
X677084Y759596D01*
X677195Y759640D01*
X677213Y759654D01*
X677233Y759664D01*
X677323Y759741D01*
X677417Y759814D01*
X677430Y759832D01*
X677448Y759847D01*
X677513Y759947D01*
X677582Y760043D01*
X677589Y760064D01*
X677602Y760083D01*
X677637Y760197D01*
X677676Y760308D01*
X677678Y760331D01*
X677684Y760353D01*
X677686Y760471D01*
X677693Y760590D01*
X677688Y760611D01*
X677688Y760635D01*
X677638Y760814D01*
X677620Y760889D01*
X677199Y761906D01*
X677199Y764094D01*
X678037Y766116D01*
X679584Y767663D01*
X681606Y768501D01*
X683794Y768501D01*
X685816Y767663D01*
X687363Y766116D01*
X688201Y764094D01*
X688201Y761906D01*
X687363Y759884D01*
X685816Y758337D01*
X684316Y757716D01*
X684215Y757655D01*
X684110Y757600D01*
X684093Y757584D01*
X684074Y757572D01*
X683993Y757486D01*
X683908Y757403D01*
X683896Y757383D01*
X683881Y757366D01*
X683827Y757261D01*
X683769Y757157D01*
X683763Y757135D01*
X683753Y757115D01*
X683731Y756998D01*
X683704Y756883D01*
X683705Y756860D01*
X683701Y756838D01*
X683712Y756720D01*
X683718Y756601D01*
X683726Y756580D01*
X683728Y756557D01*
X683772Y756447D01*
X683811Y756335D01*
X683823Y756317D01*
X683832Y756295D01*
X683947Y756148D01*
X683976Y756108D01*
X683977Y756107D01*
X683992Y756086D01*
X733565Y706513D01*
X733565Y691358D01*
X733578Y691263D01*
X733583Y691167D01*
X733598Y691124D01*
X733605Y691079D01*
X733644Y690991D01*
X733676Y690901D01*
X733701Y690866D01*
X733721Y690822D01*
X733804Y690725D01*
X733857Y690652D01*
X735565Y688944D01*
X735565Y685190D01*
X735546Y685174D01*
X735486Y685082D01*
X735420Y684995D01*
X735409Y684965D01*
X735391Y684938D01*
X735359Y684834D01*
X735321Y684731D01*
X735318Y684699D01*
X735309Y684668D01*
X735307Y684559D01*
X735299Y684450D01*
X735305Y684418D01*
X735305Y684386D01*
X735334Y684281D01*
X735356Y684174D01*
X735372Y684145D01*
X735380Y684114D01*
X735438Y684021D01*
X735489Y683925D01*
X735511Y683902D01*
X735528Y683874D01*
X735609Y683801D01*
X735686Y683723D01*
X735714Y683707D01*
X735738Y683685D01*
X735836Y683638D01*
X735931Y683584D01*
X735962Y683576D01*
X735991Y683562D01*
X736081Y683548D01*
X736205Y683519D01*
X736254Y683521D01*
X736296Y683515D01*
X740202Y683515D01*
X740297Y683528D01*
X740393Y683533D01*
X740436Y683548D01*
X740481Y683555D01*
X740569Y683594D01*
X740659Y683626D01*
X740694Y683651D01*
X740738Y683671D01*
X740835Y683754D01*
X740908Y683807D01*
X741076Y683975D01*
X744824Y683975D01*
X744991Y683807D01*
X745068Y683750D01*
X745140Y683685D01*
X745181Y683665D01*
X745217Y683638D01*
X745307Y683604D01*
X745393Y683562D01*
X745436Y683556D01*
X745481Y683539D01*
X745609Y683529D01*
X745698Y683515D01*
X776384Y683515D01*
X826891Y633007D01*
X826968Y632950D01*
X827039Y632885D01*
X827080Y632865D01*
X827117Y632838D01*
X827207Y632804D01*
X827293Y632762D01*
X827335Y632756D01*
X827380Y632739D01*
X827508Y632729D01*
X827598Y632715D01*
X833136Y632715D01*
X833200Y632724D01*
X833264Y632723D01*
X833339Y632744D01*
X833415Y632755D01*
X833474Y632781D01*
X833536Y632798D01*
X833602Y632839D01*
X833672Y632871D01*
X833721Y632913D01*
X833776Y632946D01*
X833828Y633004D01*
X833886Y633054D01*
X833922Y633108D01*
X833965Y633156D01*
X833998Y633225D01*
X834041Y633290D01*
X834060Y633352D01*
X834088Y633409D01*
X834099Y633479D01*
X834123Y633560D01*
X834124Y633645D01*
X834135Y633714D01*
X834135Y678617D01*
X834122Y678712D01*
X834117Y678809D01*
X834102Y678852D01*
X834095Y678897D01*
X834056Y678984D01*
X834024Y679075D01*
X833999Y679109D01*
X833979Y679154D01*
X833896Y679251D01*
X833843Y679324D01*
X830919Y682248D01*
X830842Y682305D01*
X830771Y682370D01*
X830730Y682390D01*
X830693Y682417D01*
X830603Y682451D01*
X830517Y682493D01*
X830475Y682499D01*
X830430Y682516D01*
X830302Y682526D01*
X830212Y682540D01*
X829976Y682540D01*
X827325Y685191D01*
X827325Y685427D01*
X827312Y685522D01*
X827307Y685619D01*
X827292Y685662D01*
X827285Y685707D01*
X827246Y685794D01*
X827214Y685885D01*
X827189Y685919D01*
X827169Y685964D01*
X827086Y686061D01*
X827033Y686134D01*
X819024Y694143D01*
X818947Y694200D01*
X818876Y694265D01*
X818835Y694285D01*
X818798Y694312D01*
X818708Y694346D01*
X818622Y694388D01*
X818580Y694394D01*
X818535Y694411D01*
X818407Y694421D01*
X818317Y694435D01*
X809198Y694435D01*
X809103Y694422D01*
X809007Y694417D01*
X808964Y694402D01*
X808919Y694395D01*
X808831Y694356D01*
X808741Y694324D01*
X808706Y694299D01*
X808662Y694279D01*
X808565Y694196D01*
X808492Y694143D01*
X808324Y693975D01*
X804576Y693975D01*
X801925Y696626D01*
X801925Y696862D01*
X801912Y696957D01*
X801907Y697054D01*
X801892Y697097D01*
X801885Y697142D01*
X801846Y697229D01*
X801814Y697320D01*
X801789Y697354D01*
X801769Y697399D01*
X801686Y697496D01*
X801633Y697569D01*
X751585Y747616D01*
X751585Y791652D01*
X751572Y791747D01*
X751567Y791844D01*
X751552Y791887D01*
X751545Y791932D01*
X751506Y792019D01*
X751474Y792110D01*
X751449Y792144D01*
X751429Y792189D01*
X751346Y792286D01*
X751293Y792359D01*
X719835Y823816D01*
X719835Y839884D01*
X728566Y848615D01*
X750984Y848615D01*
X756581Y843017D01*
X756658Y842960D01*
X756729Y842895D01*
X756770Y842875D01*
X756807Y842848D01*
X756897Y842814D01*
X756983Y842772D01*
X757025Y842766D01*
X757070Y842749D01*
X757198Y842739D01*
X757288Y842725D01*
X757524Y842725D01*
X757692Y842557D01*
X757768Y842500D01*
X757840Y842435D01*
X757881Y842415D01*
X757917Y842388D01*
X758007Y842354D01*
X758094Y842312D01*
X758136Y842306D01*
X758181Y842289D01*
X758309Y842279D01*
X758398Y842265D01*
X766252Y842265D01*
X766347Y842278D01*
X766444Y842283D01*
X766487Y842298D01*
X766532Y842305D01*
X766619Y842344D01*
X766710Y842376D01*
X766744Y842401D01*
X766789Y842421D01*
X766886Y842504D01*
X766959Y842557D01*
X776693Y852291D01*
X776750Y852368D01*
X776815Y852439D01*
X776835Y852480D01*
X776862Y852517D01*
X776896Y852607D01*
X776938Y852693D01*
X776944Y852735D01*
X776961Y852780D01*
X776971Y852908D01*
X776985Y852998D01*
X776985Y879902D01*
X776972Y879997D01*
X776967Y880093D01*
X776952Y880136D01*
X776945Y880181D01*
X776906Y880269D01*
X776874Y880359D01*
X776849Y880394D01*
X776829Y880438D01*
X776746Y880535D01*
X776693Y880608D01*
X776525Y880776D01*
X776525Y884524D01*
X779176Y887175D01*
X779412Y887175D01*
X779507Y887188D01*
X779604Y887193D01*
X779647Y887208D01*
X779692Y887215D01*
X779779Y887254D01*
X779870Y887286D01*
X779904Y887311D01*
X779949Y887331D01*
X780046Y887414D01*
X780119Y887467D01*
X836516Y943865D01*
X848879Y943865D01*
X848911Y943869D01*
X848944Y943867D01*
X849051Y943889D01*
X849159Y943905D01*
X849188Y943918D01*
X849220Y943924D01*
X849316Y943976D01*
X849416Y944021D01*
X849440Y944042D01*
X849469Y944057D01*
X849547Y944133D01*
X849630Y944204D01*
X849648Y944231D01*
X849671Y944254D01*
X849724Y944349D01*
X849784Y944440D01*
X849794Y944471D01*
X849810Y944499D01*
X849835Y944605D01*
X849867Y944710D01*
X849867Y944742D01*
X849875Y944773D01*
X849869Y944883D01*
X849870Y944992D01*
X849862Y945023D01*
X849860Y945055D01*
X849824Y945158D01*
X849795Y945264D01*
X849778Y945291D01*
X849768Y945322D01*
X849714Y945395D01*
X849647Y945504D01*
X849611Y945536D01*
X849586Y945571D01*
X848839Y946318D01*
X847849Y948707D01*
X847849Y951293D01*
X848839Y953682D01*
X850668Y955511D01*
X853057Y956501D01*
X855643Y956501D01*
X858032Y955511D01*
X859861Y953682D01*
X860851Y951293D01*
X860851Y948707D01*
X859861Y946318D01*
X859114Y945571D01*
X859095Y945545D01*
X859070Y945524D01*
X859010Y945432D01*
X858945Y945345D01*
X858933Y945315D01*
X858916Y945288D01*
X858884Y945183D01*
X858845Y945081D01*
X858843Y945049D01*
X858833Y945018D01*
X858832Y944909D01*
X858823Y944800D01*
X858830Y944768D01*
X858830Y944736D01*
X858859Y944631D01*
X858881Y944524D01*
X858896Y944495D01*
X858905Y944464D01*
X858962Y944371D01*
X859013Y944275D01*
X859036Y944252D01*
X859053Y944224D01*
X859134Y944151D01*
X859210Y944073D01*
X859238Y944057D01*
X859262Y944035D01*
X859360Y943988D01*
X859456Y943934D01*
X859487Y943926D01*
X859516Y943912D01*
X859605Y943898D01*
X859730Y943869D01*
X859778Y943871D01*
X859821Y943865D01*
X956102Y943865D01*
X956197Y943878D01*
X956293Y943883D01*
X956336Y943898D01*
X956381Y943905D01*
X956469Y943944D01*
X956559Y943976D01*
X956594Y944001D01*
X956638Y944021D01*
X956735Y944104D01*
X956808Y944157D01*
X956976Y944325D01*
X960724Y944325D01*
X963375Y941674D01*
X963375Y937926D01*
X960724Y935275D01*
X956976Y935275D01*
X956808Y935443D01*
X956732Y935500D01*
X956660Y935565D01*
X956619Y935585D01*
X956583Y935612D01*
X956493Y935646D01*
X956406Y935688D01*
X956364Y935694D01*
X956319Y935711D01*
X956191Y935721D01*
X956102Y935735D01*
X840298Y935735D01*
X840203Y935722D01*
X840106Y935717D01*
X840063Y935702D01*
X840018Y935695D01*
X839931Y935656D01*
X839840Y935624D01*
X839806Y935599D01*
X839761Y935579D01*
X839664Y935496D01*
X839591Y935443D01*
X785867Y881719D01*
X785810Y881642D01*
X785745Y881571D01*
X785725Y881530D01*
X785698Y881493D01*
X785664Y881403D01*
X785622Y881317D01*
X785616Y881275D01*
X785599Y881230D01*
X785589Y881102D01*
X785575Y881012D01*
X785575Y880776D01*
X785407Y880608D01*
X785350Y880532D01*
X785285Y880460D01*
X785265Y880419D01*
X785238Y880383D01*
X785204Y880293D01*
X785162Y880206D01*
X785156Y880164D01*
X785139Y880119D01*
X785129Y879991D01*
X785115Y879902D01*
X785115Y849216D01*
X770034Y834135D01*
X758398Y834135D01*
X758303Y834122D01*
X758207Y834117D01*
X758164Y834102D01*
X758119Y834095D01*
X758031Y834056D01*
X757941Y834024D01*
X757906Y833999D01*
X757862Y833979D01*
X757765Y833896D01*
X757692Y833843D01*
X757524Y833675D01*
X753776Y833675D01*
X751125Y836326D01*
X751125Y836562D01*
X751112Y836657D01*
X751107Y836754D01*
X751092Y836797D01*
X751085Y836842D01*
X751046Y836929D01*
X751014Y837020D01*
X750989Y837054D01*
X750969Y837099D01*
X750886Y837196D01*
X750833Y837269D01*
X747909Y840193D01*
X747832Y840250D01*
X747761Y840315D01*
X747720Y840335D01*
X747683Y840362D01*
X747593Y840396D01*
X747507Y840438D01*
X747465Y840444D01*
X747420Y840461D01*
X747292Y840471D01*
X747202Y840485D01*
X732348Y840485D01*
X732253Y840472D01*
X732156Y840467D01*
X732113Y840452D01*
X732068Y840445D01*
X731981Y840406D01*
X731890Y840374D01*
X731856Y840349D01*
X731811Y840329D01*
X731714Y840246D01*
X731641Y840193D01*
X728257Y836809D01*
X728200Y836732D01*
X728135Y836661D01*
X728115Y836620D01*
X728088Y836583D01*
X728054Y836493D01*
X728012Y836407D01*
X728006Y836365D01*
X727989Y836320D01*
X727979Y836192D01*
X727965Y836102D01*
X727965Y827598D01*
X727978Y827503D01*
X727983Y827406D01*
X727998Y827363D01*
X728005Y827318D01*
X728044Y827231D01*
X728076Y827140D01*
X728101Y827106D01*
X728121Y827061D01*
X728204Y826964D01*
X728257Y826891D01*
X759715Y795434D01*
X759715Y751398D01*
X759728Y751303D01*
X759733Y751206D01*
X759748Y751163D01*
X759755Y751118D01*
X759794Y751031D01*
X759826Y750940D01*
X759851Y750906D01*
X759871Y750861D01*
X759954Y750764D01*
X760007Y750691D01*
X807381Y703317D01*
X807458Y703260D01*
X807529Y703195D01*
X807570Y703175D01*
X807607Y703148D01*
X807697Y703114D01*
X807783Y703072D01*
X807825Y703066D01*
X807870Y703049D01*
X807998Y703039D01*
X808088Y703025D01*
X808324Y703025D01*
X808492Y702857D01*
X808568Y702800D01*
X808640Y702735D01*
X808681Y702715D01*
X808717Y702688D01*
X808807Y702654D01*
X808894Y702612D01*
X808936Y702606D01*
X808981Y702589D01*
X809109Y702579D01*
X809198Y702565D01*
X822099Y702565D01*
X832781Y691882D01*
X832858Y691825D01*
X832929Y691760D01*
X832970Y691740D01*
X833007Y691713D01*
X833097Y691679D01*
X833183Y691637D01*
X833225Y691631D01*
X833270Y691614D01*
X833398Y691604D01*
X833488Y691590D01*
X833724Y691590D01*
X836375Y688939D01*
X836375Y688703D01*
X836388Y688608D01*
X836393Y688511D01*
X836408Y688468D01*
X836415Y688423D01*
X836454Y688336D01*
X836486Y688245D01*
X836511Y688211D01*
X836531Y688166D01*
X836614Y688069D01*
X836667Y687996D01*
X839591Y685072D01*
X842265Y682399D01*
X842265Y631398D01*
X842278Y631303D01*
X842283Y631207D01*
X842298Y631164D01*
X842305Y631119D01*
X842344Y631031D01*
X842376Y630940D01*
X842401Y630906D01*
X842421Y630862D01*
X842504Y630765D01*
X842557Y630691D01*
X842725Y630524D01*
X842725Y626776D01*
X840074Y624125D01*
X836326Y624125D01*
X836158Y624293D01*
X836082Y624350D01*
X836010Y624415D01*
X835969Y624435D01*
X835933Y624462D01*
X835843Y624496D01*
X835756Y624538D01*
X835714Y624544D01*
X835669Y624561D01*
X835541Y624571D01*
X835452Y624585D01*
X823816Y624585D01*
X773309Y675093D01*
X773232Y675150D01*
X773161Y675215D01*
X773120Y675235D01*
X773083Y675262D01*
X772993Y675296D01*
X772907Y675338D01*
X772865Y675344D01*
X772820Y675361D01*
X772692Y675371D01*
X772602Y675385D01*
X748014Y675385D01*
X747950Y675376D01*
X747886Y675377D01*
X747811Y675356D01*
X747735Y675345D01*
X747676Y675319D01*
X747614Y675302D01*
X747548Y675261D01*
X747478Y675229D01*
X747429Y675187D01*
X747374Y675154D01*
X747322Y675096D01*
X747264Y675046D01*
X747228Y674992D01*
X747185Y674944D01*
X747152Y674875D01*
X747109Y674810D01*
X747090Y674748D01*
X747062Y674691D01*
X747051Y674621D01*
X747027Y674540D01*
X747026Y674455D01*
X747015Y674386D01*
X747015Y661766D01*
X735234Y649985D01*
X722273Y649985D01*
X722178Y649972D01*
X722081Y649967D01*
X722038Y649952D01*
X721993Y649945D01*
X721906Y649906D01*
X721815Y649874D01*
X721781Y649849D01*
X721736Y649829D01*
X721639Y649746D01*
X721566Y649693D01*
X711567Y639694D01*
X711510Y639617D01*
X711445Y639546D01*
X711425Y639505D01*
X711398Y639468D01*
X711364Y639378D01*
X711322Y639292D01*
X711316Y639250D01*
X711299Y639205D01*
X711289Y639077D01*
X711275Y638987D01*
X711275Y638621D01*
X711107Y638453D01*
X711050Y638377D01*
X710985Y638305D01*
X710965Y638264D01*
X710938Y638228D01*
X710904Y638138D01*
X710862Y638051D01*
X710856Y638009D01*
X710839Y637964D01*
X710829Y637836D01*
X710815Y637747D01*
X710815Y603876D01*
X700167Y593229D01*
X700110Y593152D01*
X700045Y593081D01*
X700025Y593040D01*
X699998Y593003D01*
X699964Y592913D01*
X699922Y592827D01*
X699916Y592785D01*
X699899Y592740D01*
X699889Y592612D01*
X699875Y592522D01*
X699875Y592286D01*
X697224Y589635D01*
X696988Y589635D01*
X696893Y589622D01*
X696796Y589617D01*
X696753Y589602D01*
X696708Y589595D01*
X696621Y589556D01*
X696530Y589524D01*
X696496Y589499D01*
X696451Y589479D01*
X696354Y589396D01*
X696281Y589343D01*
X658867Y551929D01*
X658810Y551852D01*
X658745Y551781D01*
X658725Y551740D01*
X658698Y551703D01*
X658664Y551613D01*
X658622Y551527D01*
X658616Y551485D01*
X658599Y551440D01*
X658589Y551312D01*
X658575Y551222D01*
X658575Y550576D01*
X655924Y547925D01*
X652176Y547925D01*
X649525Y550576D01*
X649525Y554324D01*
X652195Y556994D01*
X652237Y557008D01*
X652282Y557015D01*
X652369Y557054D01*
X652460Y557086D01*
X652494Y557111D01*
X652539Y557131D01*
X652636Y557214D01*
X652709Y557267D01*
X690533Y595091D01*
X690590Y595168D01*
X690655Y595239D01*
X690675Y595280D01*
X690702Y595317D01*
X690736Y595407D01*
X690778Y595493D01*
X690784Y595535D01*
X690801Y595580D01*
X690811Y595707D01*
X690813Y595714D01*
X690813Y595722D01*
X690825Y595798D01*
X690825Y596034D01*
X693476Y598685D01*
X693712Y598685D01*
X693807Y598698D01*
X693904Y598703D01*
X693947Y598718D01*
X693992Y598725D01*
X694079Y598764D01*
X694170Y598796D01*
X694204Y598821D01*
X694249Y598841D01*
X694346Y598924D01*
X694419Y598977D01*
X702393Y606951D01*
X702450Y607028D01*
X702515Y607099D01*
X702535Y607140D01*
X702562Y607177D01*
X702596Y607267D01*
X702638Y607353D01*
X702644Y607395D01*
X702661Y607440D01*
X702671Y607568D01*
X702685Y607658D01*
X702685Y637747D01*
X702672Y637842D01*
X702667Y637938D01*
X702652Y637981D01*
X702645Y638026D01*
X702606Y638114D01*
X702574Y638204D01*
X702549Y638239D01*
X702529Y638283D01*
X702446Y638380D01*
X702393Y638453D01*
X702225Y638621D01*
X702225Y641707D01*
X702221Y641739D01*
X702223Y641771D01*
X702201Y641878D01*
X702185Y641987D01*
X702172Y642016D01*
X702166Y642048D01*
X702114Y642144D01*
X702069Y642244D01*
X702048Y642268D01*
X702033Y642296D01*
X701957Y642375D01*
X701886Y642458D01*
X701859Y642475D01*
X701836Y642499D01*
X701741Y642552D01*
X701650Y642612D01*
X701619Y642622D01*
X701591Y642638D01*
X701484Y642663D01*
X701380Y642695D01*
X701348Y642695D01*
X701317Y642703D01*
X701207Y642697D01*
X701098Y642698D01*
X701067Y642690D01*
X701035Y642688D01*
X700932Y642652D01*
X700826Y642623D01*
X700799Y642606D01*
X700768Y642596D01*
X700695Y642542D01*
X700586Y642475D01*
X700554Y642439D01*
X700519Y642414D01*
X646369Y588263D01*
X646330Y588212D01*
X646284Y588167D01*
X646246Y588100D01*
X646199Y588038D01*
X646177Y587977D01*
X646145Y587922D01*
X646127Y587846D01*
X646100Y587774D01*
X646095Y587710D01*
X646080Y587647D01*
X646084Y587570D01*
X646078Y587493D01*
X646091Y587430D01*
X646095Y587366D01*
X646120Y587292D01*
X646136Y587217D01*
X646166Y587160D01*
X646187Y587099D01*
X646228Y587042D01*
X646268Y586968D01*
X646327Y586907D01*
X646369Y586850D01*
X646510Y586709D01*
X646510Y582961D01*
X643859Y580310D01*
X640111Y580310D01*
X637460Y582961D01*
X637460Y586709D01*
X640144Y589393D01*
X640145Y589393D01*
X640190Y589400D01*
X640277Y589439D01*
X640368Y589471D01*
X640402Y589496D01*
X640446Y589516D01*
X640544Y589599D01*
X640617Y589652D01*
X697953Y646988D01*
X698010Y647065D01*
X698075Y647136D01*
X698095Y647177D01*
X698122Y647214D01*
X698156Y647304D01*
X698198Y647390D01*
X698204Y647432D01*
X698221Y647478D01*
X698231Y647605D01*
X698245Y647695D01*
X698245Y650109D01*
X699756Y651620D01*
X699795Y651672D01*
X699841Y651716D01*
X699879Y651784D01*
X699925Y651846D01*
X699948Y651906D01*
X699980Y651962D01*
X699998Y652037D01*
X700025Y652110D01*
X700030Y652174D01*
X700045Y652236D01*
X700041Y652314D01*
X700047Y652391D01*
X700034Y652454D01*
X700030Y652518D01*
X700005Y652591D01*
X699989Y652667D01*
X699959Y652724D01*
X699938Y652784D01*
X699897Y652841D01*
X699857Y652916D01*
X699798Y652977D01*
X699756Y653033D01*
X654567Y698223D01*
X654490Y698280D01*
X654419Y698345D01*
X654378Y698365D01*
X654341Y698392D01*
X654251Y698426D01*
X654165Y698468D01*
X654123Y698474D01*
X654077Y698491D01*
X653950Y698501D01*
X653860Y698515D01*
X612364Y698515D01*
X609481Y701399D01*
X609455Y701418D01*
X609434Y701443D01*
X609342Y701503D01*
X609255Y701568D01*
X609225Y701580D01*
X609198Y701597D01*
X609093Y701629D01*
X608991Y701668D01*
X608959Y701670D01*
X608928Y701680D01*
X608819Y701681D01*
X608710Y701690D01*
X608678Y701683D01*
X608646Y701683D01*
X608541Y701654D01*
X608434Y701632D01*
X608405Y701617D01*
X608374Y701608D01*
X608281Y701551D01*
X608185Y701499D01*
X608162Y701477D01*
X608134Y701460D01*
X608061Y701379D01*
X607983Y701303D01*
X607967Y701275D01*
X607945Y701251D01*
X607898Y701152D01*
X607844Y701057D01*
X607836Y701026D01*
X607822Y700997D01*
X607808Y700908D01*
X607779Y700783D01*
X607781Y700734D01*
X607775Y700692D01*
X607775Y696626D01*
X605124Y693975D01*
X602710Y693975D01*
X602615Y693962D01*
X602519Y693957D01*
X602475Y693942D01*
X602430Y693935D01*
X602343Y693896D01*
X602252Y693864D01*
X602218Y693839D01*
X602174Y693819D01*
X602076Y693736D01*
X602003Y693683D01*
X600351Y692031D01*
X600332Y692005D01*
X600307Y691984D01*
X600247Y691892D01*
X600182Y691805D01*
X600170Y691775D01*
X600153Y691748D01*
X600121Y691643D01*
X600082Y691541D01*
X600080Y691509D01*
X600070Y691478D01*
X600069Y691369D01*
X600060Y691260D01*
X600067Y691228D01*
X600067Y691196D01*
X600096Y691091D01*
X600118Y690984D01*
X600133Y690955D01*
X600142Y690924D01*
X600199Y690831D01*
X600251Y690735D01*
X600273Y690712D01*
X600290Y690684D01*
X600371Y690611D01*
X600447Y690533D01*
X600475Y690517D01*
X600499Y690495D01*
X600598Y690448D01*
X600693Y690394D01*
X600724Y690386D01*
X600753Y690372D01*
X600842Y690358D01*
X600967Y690329D01*
X601016Y690331D01*
X601058Y690325D01*
X604489Y690325D01*
X607140Y687674D01*
X607140Y685260D01*
X607153Y685165D01*
X607158Y685069D01*
X607173Y685025D01*
X607180Y684980D01*
X607219Y684893D01*
X607251Y684802D01*
X607276Y684768D01*
X607296Y684724D01*
X607379Y684626D01*
X607432Y684553D01*
X612125Y679861D01*
X612125Y550388D01*
X612138Y550293D01*
X612143Y550197D01*
X612158Y550154D01*
X612165Y550109D01*
X612204Y550021D01*
X612236Y549931D01*
X612261Y549896D01*
X612281Y549852D01*
X612364Y549755D01*
X612417Y549682D01*
X614125Y547974D01*
X614125Y544226D01*
X611469Y541571D01*
X611450Y541545D01*
X611426Y541524D01*
X611366Y541432D01*
X611300Y541345D01*
X611289Y541315D01*
X611271Y541288D01*
X611239Y541183D01*
X611201Y541081D01*
X611198Y541049D01*
X611189Y541018D01*
X611187Y540909D01*
X611179Y540800D01*
X611185Y540768D01*
X611185Y540736D01*
X611214Y540631D01*
X611236Y540524D01*
X611252Y540495D01*
X611260Y540464D01*
X611318Y540371D01*
X611369Y540275D01*
X611391Y540252D01*
X611408Y540224D01*
X611489Y540151D01*
X611566Y540073D01*
X611594Y540057D01*
X611618Y540035D01*
X611716Y539988D01*
X611811Y539934D01*
X611842Y539926D01*
X611871Y539912D01*
X611961Y539898D01*
X612086Y539869D01*
X612134Y539871D01*
X612176Y539865D01*
X615234Y539865D01*
X639065Y516034D01*
X639065Y513064D01*
X639074Y513000D01*
X639073Y512936D01*
X639094Y512861D01*
X639105Y512785D01*
X639131Y512726D01*
X639148Y512664D01*
X639189Y512598D01*
X639221Y512528D01*
X639263Y512479D01*
X639296Y512424D01*
X639354Y512372D01*
X639404Y512314D01*
X639458Y512278D01*
X639506Y512235D01*
X639575Y512202D01*
X639640Y512159D01*
X639702Y512140D01*
X639759Y512112D01*
X639829Y512101D01*
X639910Y512077D01*
X639995Y512076D01*
X640064Y512065D01*
X753552Y512065D01*
X753647Y512078D01*
X753744Y512083D01*
X753787Y512098D01*
X753832Y512105D01*
X753919Y512144D01*
X754010Y512176D01*
X754044Y512201D01*
X754089Y512221D01*
X754186Y512304D01*
X754259Y512357D01*
X858783Y616881D01*
X858840Y616958D01*
X858905Y617029D01*
X858925Y617070D01*
X858952Y617107D01*
X858986Y617197D01*
X859028Y617283D01*
X859034Y617325D01*
X859051Y617370D01*
X859061Y617498D01*
X859075Y617588D01*
X859075Y617824D01*
X861726Y620475D01*
X865474Y620475D01*
X868125Y617824D01*
X868125Y614076D01*
X865474Y611425D01*
X865238Y611425D01*
X865143Y611412D01*
X865046Y611407D01*
X865003Y611392D01*
X864958Y611385D01*
X864871Y611346D01*
X864780Y611314D01*
X864746Y611289D01*
X864701Y611269D01*
X864604Y611186D01*
X864531Y611133D01*
X757334Y503935D01*
X637748Y503935D01*
X637653Y503922D01*
X637557Y503917D01*
X637514Y503902D01*
X637469Y503895D01*
X637381Y503856D01*
X637291Y503824D01*
X637256Y503799D01*
X637212Y503779D01*
X637115Y503696D01*
X637042Y503643D01*
X636874Y503475D01*
X633126Y503475D01*
X632958Y503643D01*
X632882Y503700D01*
X632810Y503765D01*
X632769Y503785D01*
X632733Y503812D01*
X632643Y503846D01*
X632556Y503888D01*
X632514Y503894D01*
X632469Y503911D01*
X632341Y503921D01*
X632252Y503935D01*
X396448Y503935D01*
X396353Y503922D01*
X396257Y503917D01*
X396214Y503902D01*
X396169Y503895D01*
X396081Y503856D01*
X395991Y503824D01*
X395956Y503799D01*
X395912Y503779D01*
X395815Y503696D01*
X395742Y503643D01*
X395574Y503475D01*
X391826Y503475D01*
X391659Y503643D01*
X391582Y503700D01*
X391510Y503765D01*
X391469Y503785D01*
X391433Y503812D01*
X391343Y503846D01*
X391257Y503888D01*
X391214Y503894D01*
X391169Y503911D01*
X391041Y503921D01*
X390952Y503935D01*
X224348Y503935D01*
X224253Y503922D01*
X224156Y503917D01*
X224113Y503902D01*
X224068Y503895D01*
X223981Y503856D01*
X223890Y503824D01*
X223856Y503799D01*
X223811Y503779D01*
X223714Y503696D01*
X223641Y503643D01*
X185792Y465794D01*
X185735Y465717D01*
X185670Y465646D01*
X185650Y465605D01*
X185623Y465568D01*
X185589Y465478D01*
X185547Y465392D01*
X185541Y465350D01*
X185524Y465305D01*
X185514Y465177D01*
X185500Y465087D01*
X185500Y464851D01*
X182849Y462200D01*
X179101Y462200D01*
G37*
%LPD*%
G36*
X1150912Y15752D02*
X1150912Y15752D01*
X1150943Y15750D01*
X1154859Y16007D01*
X1154890Y16014D01*
X1154958Y16020D01*
X1158807Y16786D01*
X1158836Y16797D01*
X1158903Y16811D01*
X1162619Y18073D01*
X1162647Y18088D01*
X1162711Y18111D01*
X1166230Y19846D01*
X1166256Y19865D01*
X1166317Y19896D01*
X1169579Y22076D01*
X1169603Y22098D01*
X1169658Y22137D01*
X1172609Y24724D01*
X1172621Y24739D01*
X1172645Y24759D01*
X1185552Y37665D01*
X1185562Y37680D01*
X1185586Y37701D01*
X1188173Y40652D01*
X1188190Y40679D01*
X1188234Y40731D01*
X1190414Y43993D01*
X1190427Y44022D01*
X1190464Y44080D01*
X1192199Y47599D01*
X1192208Y47630D01*
X1192237Y47691D01*
X1193499Y51407D01*
X1193504Y51438D01*
X1193524Y51503D01*
X1194290Y55352D01*
X1194291Y55384D01*
X1194303Y55451D01*
X1194560Y59367D01*
X1194558Y59385D01*
X1194561Y59416D01*
X1194561Y84300D01*
X1194558Y84322D01*
X1194559Y84360D01*
X1194268Y88059D01*
X1194260Y88092D01*
X1194249Y88177D01*
X1193383Y91786D01*
X1193370Y91816D01*
X1193346Y91900D01*
X1191926Y95328D01*
X1191908Y95356D01*
X1191871Y95435D01*
X1189932Y98599D01*
X1189911Y98624D01*
X1189862Y98696D01*
X1187452Y101517D01*
X1187427Y101539D01*
X1187367Y101602D01*
X1184546Y104012D01*
X1184517Y104029D01*
X1184449Y104082D01*
X1183434Y104705D01*
X1183433Y104705D01*
X1182191Y105466D01*
X1181285Y106021D01*
X1181254Y106034D01*
X1181178Y106076D01*
X1177750Y107496D01*
X1177717Y107503D01*
X1177636Y107533D01*
X1174027Y108399D01*
X1173995Y108401D01*
X1173909Y108418D01*
X1170210Y108709D01*
X1170188Y108707D01*
X1170150Y108711D01*
X1129778Y108711D01*
X1125937Y108963D01*
X1122186Y109709D01*
X1118564Y110938D01*
X1115134Y112630D01*
X1111954Y114755D01*
X1109060Y117293D01*
X1069383Y156971D01*
X1065295Y161631D01*
X1061865Y166765D01*
X1059135Y172302D01*
X1057150Y178148D01*
X1055946Y184203D01*
X1055542Y190363D01*
X1055946Y196524D01*
X1057150Y202579D01*
X1059135Y208425D01*
X1061865Y213962D01*
X1065295Y219095D01*
X1069383Y223756D01*
X1096652Y251025D01*
X1096662Y251040D01*
X1096686Y251061D01*
X1099273Y254012D01*
X1099290Y254038D01*
X1099334Y254091D01*
X1101514Y257353D01*
X1101527Y257382D01*
X1101564Y257440D01*
X1103299Y260959D01*
X1103308Y260990D01*
X1103337Y261051D01*
X1104599Y264767D01*
X1104604Y264798D01*
X1104624Y264863D01*
X1105390Y268712D01*
X1105391Y268744D01*
X1105403Y268811D01*
X1105660Y272727D01*
X1105658Y272745D01*
X1105661Y272776D01*
X1105661Y317500D01*
X1105658Y317520D01*
X1105660Y317539D01*
X1105638Y317641D01*
X1105622Y317743D01*
X1105612Y317760D01*
X1105608Y317780D01*
X1105555Y317869D01*
X1105506Y317960D01*
X1105492Y317974D01*
X1105482Y317991D01*
X1105403Y318058D01*
X1105328Y318130D01*
X1105310Y318138D01*
X1105295Y318151D01*
X1105199Y318190D01*
X1105105Y318233D01*
X1105085Y318235D01*
X1105067Y318243D01*
X1104900Y318261D01*
X996950Y318261D01*
X996930Y318258D01*
X996911Y318260D01*
X996809Y318238D01*
X996707Y318222D01*
X996690Y318212D01*
X996670Y318208D01*
X996581Y318155D01*
X996490Y318106D01*
X996476Y318092D01*
X996459Y318082D01*
X996392Y318003D01*
X996321Y317928D01*
X996312Y317910D01*
X996299Y317895D01*
X996260Y317799D01*
X996217Y317705D01*
X996215Y317685D01*
X996207Y317667D01*
X996189Y317500D01*
X996189Y283007D01*
X995885Y278793D01*
X994988Y274692D01*
X993512Y270763D01*
X991489Y267085D01*
X988960Y263735D01*
X985977Y260781D01*
X982602Y258285D01*
X978904Y256298D01*
X974960Y254862D01*
X970850Y254004D01*
X966634Y253743D01*
X890798Y254492D01*
X886639Y254829D01*
X883572Y255524D01*
X882596Y255745D01*
X878724Y257223D01*
X875099Y259234D01*
X871795Y261738D01*
X868878Y264684D01*
X866408Y268012D01*
X864433Y271656D01*
X862993Y275544D01*
X862117Y279595D01*
X861821Y283757D01*
X861821Y317500D01*
X861818Y317520D01*
X861820Y317539D01*
X861798Y317641D01*
X861782Y317743D01*
X861772Y317760D01*
X861768Y317780D01*
X861715Y317869D01*
X861666Y317960D01*
X861652Y317974D01*
X861642Y317991D01*
X861563Y318058D01*
X861488Y318130D01*
X861470Y318138D01*
X861455Y318151D01*
X861359Y318190D01*
X861265Y318233D01*
X861245Y318235D01*
X861227Y318243D01*
X861060Y318261D01*
X755650Y318261D01*
X755630Y318258D01*
X755611Y318260D01*
X755509Y318238D01*
X755407Y318222D01*
X755390Y318212D01*
X755370Y318208D01*
X755281Y318155D01*
X755190Y318106D01*
X755176Y318092D01*
X755159Y318082D01*
X755092Y318003D01*
X755021Y317928D01*
X755012Y317910D01*
X754999Y317895D01*
X754960Y317799D01*
X754917Y317705D01*
X754915Y317685D01*
X754907Y317667D01*
X754889Y317500D01*
X754889Y284027D01*
X754589Y279839D01*
X753703Y275763D01*
X752245Y271855D01*
X750246Y268193D01*
X747746Y264854D01*
X744796Y261904D01*
X741457Y259405D01*
X737795Y257405D01*
X733887Y255947D01*
X729811Y255061D01*
X725623Y254761D01*
X649792Y254761D01*
X645601Y255064D01*
X641523Y255954D01*
X637613Y257416D01*
X633951Y259419D01*
X630611Y261923D01*
X627661Y264876D01*
X625162Y268220D01*
X623164Y271885D01*
X621707Y275797D01*
X620823Y279876D01*
X620526Y284067D01*
X620521Y317500D01*
X620518Y317520D01*
X620520Y317539D01*
X620498Y317641D01*
X620481Y317743D01*
X620472Y317760D01*
X620468Y317780D01*
X620415Y317869D01*
X620366Y317960D01*
X620352Y317974D01*
X620342Y317991D01*
X620263Y318058D01*
X620188Y318130D01*
X620170Y318138D01*
X620155Y318151D01*
X620059Y318190D01*
X619965Y318233D01*
X619945Y318235D01*
X619927Y318243D01*
X619760Y318261D01*
X514215Y318261D01*
X514195Y318258D01*
X514176Y318260D01*
X514074Y318238D01*
X513972Y318222D01*
X513955Y318212D01*
X513935Y318208D01*
X513846Y318155D01*
X513755Y318106D01*
X513741Y318092D01*
X513724Y318082D01*
X513657Y318003D01*
X513586Y317928D01*
X513577Y317910D01*
X513564Y317895D01*
X513525Y317799D01*
X513482Y317705D01*
X513480Y317685D01*
X513472Y317667D01*
X513454Y317500D01*
X513454Y271282D01*
X513247Y268659D01*
X512640Y266129D01*
X511643Y263726D01*
X510283Y261509D01*
X508592Y259532D01*
X506612Y257845D01*
X504392Y256488D01*
X501988Y255496D01*
X499457Y254893D01*
X496834Y254691D01*
X402100Y254859D01*
X398494Y255149D01*
X395007Y255991D01*
X391695Y257369D01*
X388638Y259246D01*
X385913Y261579D01*
X383585Y264308D01*
X381713Y267368D01*
X380341Y270683D01*
X379505Y274171D01*
X379221Y277777D01*
X379221Y317500D01*
X379218Y317520D01*
X379220Y317539D01*
X379198Y317641D01*
X379182Y317743D01*
X379172Y317760D01*
X379168Y317780D01*
X379115Y317869D01*
X379066Y317960D01*
X379052Y317974D01*
X379042Y317991D01*
X378963Y318058D01*
X378888Y318130D01*
X378870Y318138D01*
X378855Y318151D01*
X378759Y318190D01*
X378665Y318233D01*
X378645Y318235D01*
X378627Y318243D01*
X378460Y318261D01*
X273050Y318261D01*
X273030Y318258D01*
X273011Y318260D01*
X272909Y318238D01*
X272807Y318222D01*
X272790Y318212D01*
X272770Y318208D01*
X272681Y318155D01*
X272590Y318106D01*
X272576Y318092D01*
X272559Y318082D01*
X272492Y318003D01*
X272421Y317928D01*
X272412Y317910D01*
X272399Y317895D01*
X272360Y317799D01*
X272317Y317705D01*
X272315Y317685D01*
X272307Y317667D01*
X272289Y317500D01*
X272289Y284027D01*
X271994Y279901D01*
X271120Y275885D01*
X269684Y272034D01*
X267714Y268427D01*
X265252Y265138D01*
X262345Y262231D01*
X259056Y259769D01*
X255449Y257799D01*
X251598Y256363D01*
X247582Y255489D01*
X243456Y255194D01*
X38055Y255194D01*
X38036Y255191D01*
X38003Y255193D01*
X33459Y254886D01*
X33427Y254879D01*
X33351Y254871D01*
X28896Y253921D01*
X28866Y253909D01*
X28792Y253891D01*
X24518Y252317D01*
X24489Y252300D01*
X24419Y252272D01*
X20412Y250105D01*
X20386Y250085D01*
X20321Y250047D01*
X16663Y247332D01*
X16640Y247309D01*
X16581Y247261D01*
X13347Y244054D01*
X13328Y244027D01*
X13275Y243972D01*
X10531Y240337D01*
X10516Y240308D01*
X10472Y240245D01*
X8272Y236257D01*
X8262Y236226D01*
X8227Y236158D01*
X6618Y231897D01*
X6611Y231865D01*
X6587Y231793D01*
X5600Y227346D01*
X5598Y227313D01*
X5584Y227238D01*
X5241Y222696D01*
X5243Y222675D01*
X5239Y222639D01*
X5239Y150650D01*
X5242Y150629D01*
X5241Y150592D01*
X5638Y145396D01*
X5645Y145364D01*
X5654Y145288D01*
X6786Y140201D01*
X6798Y140171D01*
X6817Y140097D01*
X8661Y135223D01*
X8678Y135195D01*
X8707Y135125D01*
X11226Y130563D01*
X11247Y130537D01*
X11286Y130472D01*
X14429Y126315D01*
X14452Y126292D01*
X14500Y126233D01*
X18203Y122566D01*
X18229Y122547D01*
X18285Y122495D01*
X22472Y119392D01*
X22501Y119377D01*
X22564Y119334D01*
X27150Y116858D01*
X27180Y116847D01*
X27249Y116813D01*
X32140Y115016D01*
X32172Y115010D01*
X32244Y114986D01*
X37342Y113902D01*
X37375Y113901D01*
X37450Y113887D01*
X42649Y113540D01*
X42668Y113542D01*
X42700Y113539D01*
X937422Y113539D01*
X944861Y113121D01*
X952185Y111877D01*
X959324Y109820D01*
X966187Y106977D01*
X972689Y103383D01*
X978748Y99084D01*
X984304Y94120D01*
X1042825Y35599D01*
X1042838Y35589D01*
X1042856Y35569D01*
X1048459Y30562D01*
X1048484Y30546D01*
X1048526Y30509D01*
X1054654Y26160D01*
X1054681Y26148D01*
X1054727Y26115D01*
X1061304Y22480D01*
X1061331Y22470D01*
X1061381Y22443D01*
X1068323Y19567D01*
X1068351Y19560D01*
X1068404Y19539D01*
X1075625Y17459D01*
X1075654Y17455D01*
X1075708Y17440D01*
X1083116Y16181D01*
X1083145Y16181D01*
X1083201Y16171D01*
X1090704Y15750D01*
X1090720Y15752D01*
X1090747Y15749D01*
X1150894Y15749D01*
X1150912Y15752D01*
G37*
G36*
X178597Y471078D02*
X178597Y471078D01*
X178693Y471083D01*
X178736Y471098D01*
X178781Y471105D01*
X178869Y471144D01*
X178959Y471176D01*
X178994Y471201D01*
X179038Y471221D01*
X179072Y471250D01*
X179337Y471250D01*
X179432Y471263D01*
X179529Y471268D01*
X179572Y471283D01*
X179617Y471290D01*
X179704Y471329D01*
X179795Y471361D01*
X179829Y471386D01*
X179874Y471406D01*
X179971Y471489D01*
X180044Y471542D01*
X220566Y512065D01*
X390952Y512065D01*
X391047Y512078D01*
X391143Y512083D01*
X391186Y512098D01*
X391231Y512105D01*
X391319Y512144D01*
X391410Y512176D01*
X391444Y512201D01*
X391488Y512221D01*
X391585Y512304D01*
X391659Y512357D01*
X391826Y512525D01*
X395574Y512525D01*
X395742Y512357D01*
X395818Y512300D01*
X395890Y512235D01*
X395931Y512215D01*
X395967Y512188D01*
X396057Y512154D01*
X396144Y512112D01*
X396186Y512106D01*
X396231Y512089D01*
X396359Y512079D01*
X396448Y512065D01*
X629124Y512065D01*
X629156Y512069D01*
X629189Y512067D01*
X629295Y512089D01*
X629404Y512105D01*
X629433Y512118D01*
X629465Y512124D01*
X629561Y512176D01*
X629661Y512221D01*
X629685Y512242D01*
X629714Y512257D01*
X629792Y512333D01*
X629875Y512404D01*
X629893Y512431D01*
X629916Y512454D01*
X629969Y512549D01*
X630029Y512640D01*
X630039Y512671D01*
X630055Y512699D01*
X630080Y512806D01*
X630112Y512910D01*
X630112Y512942D01*
X630120Y512973D01*
X630114Y513083D01*
X630116Y513192D01*
X630107Y513223D01*
X630105Y513255D01*
X630069Y513358D01*
X630040Y513464D01*
X630023Y513491D01*
X630013Y513522D01*
X629960Y513595D01*
X629892Y513704D01*
X629856Y513736D01*
X629831Y513771D01*
X612159Y531443D01*
X612082Y531500D01*
X612011Y531565D01*
X611970Y531585D01*
X611933Y531612D01*
X611843Y531646D01*
X611757Y531688D01*
X611715Y531694D01*
X611670Y531711D01*
X611542Y531721D01*
X611452Y531735D01*
X573766Y531735D01*
X548385Y557116D01*
X548385Y631617D01*
X548372Y631712D01*
X548367Y631808D01*
X548352Y631851D01*
X548345Y631896D01*
X548306Y631984D01*
X548274Y632074D01*
X548249Y632109D01*
X548229Y632153D01*
X548146Y632250D01*
X548093Y632323D01*
X547925Y632491D01*
X547925Y636239D01*
X550576Y638890D01*
X554324Y638890D01*
X556975Y636239D01*
X556975Y632491D01*
X556807Y632323D01*
X556750Y632247D01*
X556685Y632175D01*
X556665Y632134D01*
X556638Y632098D01*
X556604Y632008D01*
X556562Y631921D01*
X556556Y631879D01*
X556539Y631834D01*
X556529Y631706D01*
X556515Y631617D01*
X556515Y560898D01*
X556527Y560812D01*
X556526Y560766D01*
X556531Y560749D01*
X556533Y560706D01*
X556548Y560663D01*
X556555Y560618D01*
X556587Y560546D01*
X556601Y560495D01*
X556613Y560475D01*
X556626Y560440D01*
X556651Y560406D01*
X556671Y560361D01*
X556717Y560307D01*
X556750Y560255D01*
X556783Y560224D01*
X556807Y560191D01*
X565269Y551729D01*
X565295Y551710D01*
X565316Y551685D01*
X565408Y551625D01*
X565495Y551560D01*
X565525Y551548D01*
X565552Y551531D01*
X565657Y551499D01*
X565759Y551460D01*
X565791Y551458D01*
X565822Y551448D01*
X565931Y551447D01*
X566040Y551438D01*
X566072Y551445D01*
X566104Y551444D01*
X566209Y551474D01*
X566316Y551496D01*
X566345Y551511D01*
X566376Y551520D01*
X566469Y551577D01*
X566565Y551628D01*
X566588Y551651D01*
X566616Y551668D01*
X566689Y551749D01*
X566767Y551825D01*
X566783Y551853D01*
X566805Y551877D01*
X566852Y551975D01*
X566906Y552071D01*
X566914Y552102D01*
X566928Y552131D01*
X566942Y552220D01*
X566971Y552345D01*
X566969Y552393D01*
X566975Y552436D01*
X566975Y554959D01*
X569626Y557610D01*
X573374Y557610D01*
X575082Y555902D01*
X575158Y555845D01*
X575230Y555780D01*
X575271Y555760D01*
X575307Y555733D01*
X575397Y555699D01*
X575484Y555657D01*
X575526Y555651D01*
X575571Y555634D01*
X575699Y555624D01*
X575788Y555610D01*
X583375Y555610D01*
X583470Y555623D01*
X583566Y555628D01*
X583610Y555643D01*
X583655Y555650D01*
X583742Y555689D01*
X583833Y555721D01*
X583867Y555746D01*
X583911Y555766D01*
X584009Y555849D01*
X584082Y555902D01*
X603163Y574983D01*
X603220Y575060D01*
X603285Y575131D01*
X603305Y575172D01*
X603332Y575209D01*
X603366Y575299D01*
X603408Y575385D01*
X603414Y575427D01*
X603431Y575473D01*
X603441Y575600D01*
X603455Y575690D01*
X603455Y656239D01*
X603451Y656271D01*
X603453Y656303D01*
X603431Y656410D01*
X603415Y656518D01*
X603402Y656548D01*
X603396Y656579D01*
X603344Y656676D01*
X603299Y656775D01*
X603278Y656800D01*
X603263Y656828D01*
X603187Y656906D01*
X603116Y656989D01*
X603089Y657007D01*
X603066Y657030D01*
X602971Y657084D01*
X602880Y657144D01*
X602849Y657153D01*
X602821Y657169D01*
X602714Y657194D01*
X602610Y657226D01*
X602578Y657227D01*
X602546Y657234D01*
X602437Y657229D01*
X602328Y657230D01*
X602297Y657221D01*
X602265Y657220D01*
X602162Y657184D01*
X602056Y657155D01*
X602041Y657145D01*
X598201Y657145D01*
X595550Y659796D01*
X595550Y662210D01*
X595537Y662305D01*
X595532Y662401D01*
X595517Y662445D01*
X595510Y662490D01*
X595471Y662577D01*
X595439Y662668D01*
X595414Y662702D01*
X595394Y662746D01*
X595311Y662844D01*
X595258Y662917D01*
X593511Y664664D01*
X593485Y664683D01*
X593464Y664708D01*
X593372Y664768D01*
X593285Y664833D01*
X593255Y664845D01*
X593228Y664862D01*
X593123Y664894D01*
X593021Y664933D01*
X592989Y664935D01*
X592958Y664945D01*
X592849Y664946D01*
X592740Y664955D01*
X592708Y664948D01*
X592676Y664948D01*
X592571Y664919D01*
X592464Y664897D01*
X592435Y664882D01*
X592404Y664873D01*
X592311Y664816D01*
X592215Y664764D01*
X592192Y664742D01*
X592164Y664725D01*
X592091Y664644D01*
X592013Y664568D01*
X591997Y664540D01*
X591975Y664516D01*
X591928Y664417D01*
X591874Y664322D01*
X591866Y664291D01*
X591852Y664262D01*
X591838Y664173D01*
X591809Y664048D01*
X591811Y663999D01*
X591805Y663957D01*
X591805Y655764D01*
X591813Y655705D01*
X591813Y655695D01*
X591814Y655692D01*
X591813Y655636D01*
X591834Y655561D01*
X591845Y655485D01*
X591871Y655426D01*
X591888Y655364D01*
X591929Y655298D01*
X591961Y655228D01*
X592003Y655179D01*
X592036Y655124D01*
X592094Y655072D01*
X592144Y655014D01*
X592198Y654978D01*
X592246Y654935D01*
X592261Y654928D01*
X595075Y652114D01*
X595075Y648366D01*
X592424Y645715D01*
X589628Y645715D01*
X589596Y645711D01*
X589564Y645713D01*
X589457Y645691D01*
X589348Y645675D01*
X589319Y645662D01*
X589287Y645656D01*
X589191Y645604D01*
X589091Y645559D01*
X589067Y645538D01*
X589038Y645523D01*
X588960Y645447D01*
X588877Y645376D01*
X588860Y645349D01*
X588836Y645326D01*
X588783Y645231D01*
X588723Y645140D01*
X588713Y645109D01*
X588697Y645081D01*
X588672Y644975D01*
X588640Y644870D01*
X588640Y644838D01*
X588632Y644806D01*
X588638Y644697D01*
X588637Y644588D01*
X588645Y644557D01*
X588647Y644525D01*
X588683Y644422D01*
X588712Y644316D01*
X588729Y644289D01*
X588739Y644258D01*
X588793Y644185D01*
X588860Y644076D01*
X588896Y644044D01*
X588921Y644009D01*
X589303Y643627D01*
X589380Y643570D01*
X589451Y643505D01*
X589492Y643485D01*
X589529Y643458D01*
X589619Y643424D01*
X589705Y643382D01*
X589747Y643376D01*
X589793Y643359D01*
X589920Y643349D01*
X590010Y643335D01*
X592424Y643335D01*
X595075Y640684D01*
X595075Y636936D01*
X592424Y634285D01*
X588358Y634285D01*
X588326Y634281D01*
X588294Y634283D01*
X588187Y634261D01*
X588078Y634245D01*
X588049Y634232D01*
X588017Y634226D01*
X587921Y634174D01*
X587821Y634129D01*
X587797Y634108D01*
X587769Y634093D01*
X587690Y634017D01*
X587607Y633946D01*
X587590Y633919D01*
X587566Y633896D01*
X587513Y633801D01*
X587453Y633710D01*
X587443Y633679D01*
X587427Y633651D01*
X587402Y633544D01*
X587370Y633440D01*
X587370Y633408D01*
X587362Y633377D01*
X587368Y633267D01*
X587367Y633158D01*
X587375Y633127D01*
X587377Y633095D01*
X587413Y632992D01*
X587442Y632886D01*
X587459Y632859D01*
X587469Y632828D01*
X587523Y632755D01*
X587590Y632646D01*
X587626Y632614D01*
X587651Y632579D01*
X588668Y631562D01*
X588745Y631505D01*
X588816Y631440D01*
X588857Y631420D01*
X588894Y631393D01*
X588984Y631359D01*
X589070Y631317D01*
X589112Y631311D01*
X589158Y631294D01*
X589285Y631284D01*
X589375Y631270D01*
X591789Y631270D01*
X594440Y628619D01*
X594440Y624871D01*
X591789Y622220D01*
X588041Y622220D01*
X585390Y624871D01*
X585390Y627285D01*
X585377Y627380D01*
X585372Y627476D01*
X585357Y627520D01*
X585350Y627565D01*
X585311Y627652D01*
X585279Y627743D01*
X585254Y627777D01*
X585234Y627821D01*
X585151Y627919D01*
X585098Y627992D01*
X558682Y654408D01*
X558605Y654465D01*
X558534Y654530D01*
X558493Y654550D01*
X558456Y654577D01*
X558366Y654611D01*
X558280Y654653D01*
X558238Y654659D01*
X558192Y654676D01*
X558065Y654686D01*
X557975Y654700D01*
X527528Y654700D01*
X527433Y654687D01*
X527337Y654682D01*
X527294Y654667D01*
X527249Y654660D01*
X527161Y654621D01*
X527071Y654589D01*
X527036Y654564D01*
X526992Y654544D01*
X526895Y654461D01*
X526822Y654408D01*
X525114Y652700D01*
X521366Y652700D01*
X518715Y655351D01*
X518715Y659416D01*
X518706Y659480D01*
X518707Y659544D01*
X518686Y659619D01*
X518675Y659695D01*
X518649Y659754D01*
X518632Y659816D01*
X518591Y659882D01*
X518559Y659952D01*
X518517Y660001D01*
X518484Y660056D01*
X518426Y660108D01*
X518376Y660166D01*
X518322Y660202D01*
X518274Y660245D01*
X518205Y660278D01*
X518140Y660321D01*
X518078Y660340D01*
X518021Y660368D01*
X517951Y660379D01*
X517870Y660403D01*
X517785Y660404D01*
X517716Y660415D01*
X447230Y660415D01*
X447135Y660402D01*
X447039Y660397D01*
X446995Y660382D01*
X446950Y660375D01*
X446863Y660336D01*
X446772Y660304D01*
X446738Y660279D01*
X446694Y660259D01*
X446596Y660176D01*
X446523Y660123D01*
X395977Y609577D01*
X395920Y609500D01*
X395855Y609429D01*
X395835Y609388D01*
X395808Y609351D01*
X395786Y609293D01*
X395779Y609282D01*
X395770Y609253D01*
X395732Y609175D01*
X395726Y609133D01*
X395709Y609087D01*
X395705Y609039D01*
X395697Y609012D01*
X395696Y608941D01*
X395685Y608870D01*
X395685Y606456D01*
X393034Y603805D01*
X389286Y603805D01*
X386635Y606456D01*
X386635Y610204D01*
X389286Y612855D01*
X391700Y612855D01*
X391795Y612868D01*
X391891Y612873D01*
X391935Y612888D01*
X391980Y612895D01*
X392067Y612934D01*
X392158Y612966D01*
X392192Y612991D01*
X392236Y613011D01*
X392334Y613094D01*
X392407Y613147D01*
X443049Y663789D01*
X443068Y663815D01*
X443093Y663836D01*
X443153Y663928D01*
X443218Y664015D01*
X443230Y664045D01*
X443247Y664072D01*
X443279Y664177D01*
X443318Y664279D01*
X443320Y664311D01*
X443330Y664342D01*
X443331Y664451D01*
X443340Y664560D01*
X443333Y664592D01*
X443333Y664624D01*
X443304Y664729D01*
X443282Y664836D01*
X443267Y664865D01*
X443258Y664896D01*
X443201Y664989D01*
X443149Y665085D01*
X443127Y665108D01*
X443110Y665136D01*
X443029Y665209D01*
X442953Y665287D01*
X442925Y665303D01*
X442901Y665325D01*
X442802Y665372D01*
X442707Y665426D01*
X442676Y665434D01*
X442647Y665448D01*
X442558Y665462D01*
X442433Y665491D01*
X442384Y665489D01*
X442342Y665495D01*
X290385Y665495D01*
X290290Y665482D01*
X290194Y665477D01*
X290150Y665462D01*
X290105Y665455D01*
X290018Y665416D01*
X289927Y665384D01*
X289893Y665359D01*
X289849Y665339D01*
X289751Y665256D01*
X289678Y665203D01*
X240306Y615831D01*
X240287Y615805D01*
X240262Y615784D01*
X240202Y615692D01*
X240137Y615605D01*
X240125Y615575D01*
X240108Y615548D01*
X240076Y615443D01*
X240037Y615341D01*
X240035Y615309D01*
X240025Y615278D01*
X240024Y615169D01*
X240015Y615060D01*
X240022Y615028D01*
X240022Y614996D01*
X240051Y614891D01*
X240073Y614784D01*
X240088Y614755D01*
X240097Y614724D01*
X240154Y614631D01*
X240206Y614535D01*
X240228Y614512D01*
X240245Y614484D01*
X240326Y614411D01*
X240402Y614333D01*
X240430Y614317D01*
X240454Y614295D01*
X240553Y614248D01*
X240648Y614194D01*
X240679Y614186D01*
X240708Y614172D01*
X240797Y614158D01*
X240922Y614129D01*
X240971Y614131D01*
X241013Y614125D01*
X243174Y614125D01*
X245825Y611474D01*
X245825Y608966D01*
X245829Y608934D01*
X245827Y608902D01*
X245849Y608795D01*
X245865Y608687D01*
X245878Y608657D01*
X245884Y608626D01*
X245936Y608529D01*
X245981Y608430D01*
X246002Y608405D01*
X246017Y608377D01*
X246093Y608299D01*
X246164Y608216D01*
X246191Y608198D01*
X246214Y608175D01*
X246309Y608121D01*
X246400Y608061D01*
X246431Y608052D01*
X246459Y608036D01*
X246565Y608011D01*
X246670Y607979D01*
X246702Y607978D01*
X246733Y607971D01*
X246843Y607976D01*
X246952Y607975D01*
X246983Y607984D01*
X247015Y607985D01*
X247118Y608021D01*
X247224Y608050D01*
X247251Y608067D01*
X247282Y608078D01*
X247355Y608131D01*
X247464Y608198D01*
X247496Y608234D01*
X247531Y608259D01*
X247681Y608410D01*
X251429Y608410D01*
X253928Y605911D01*
X253980Y605872D01*
X254025Y605826D01*
X254092Y605788D01*
X254154Y605741D01*
X254214Y605719D01*
X254270Y605687D01*
X254345Y605669D01*
X254418Y605642D01*
X254482Y605637D01*
X254545Y605622D01*
X254622Y605626D01*
X254699Y605620D01*
X254762Y605633D01*
X254826Y605636D01*
X254899Y605662D01*
X254975Y605678D01*
X255032Y605708D01*
X255093Y605729D01*
X255149Y605770D01*
X255224Y605810D01*
X255285Y605869D01*
X255342Y605911D01*
X257841Y608410D01*
X261589Y608410D01*
X264240Y605759D01*
X264240Y603345D01*
X264253Y603250D01*
X264258Y603154D01*
X264273Y603110D01*
X264280Y603065D01*
X264319Y602978D01*
X264351Y602887D01*
X264376Y602853D01*
X264396Y602809D01*
X264479Y602711D01*
X264532Y602638D01*
X268151Y599020D01*
X268227Y598962D01*
X268299Y598898D01*
X268340Y598878D01*
X268376Y598851D01*
X268466Y598817D01*
X268552Y598775D01*
X268595Y598768D01*
X268640Y598751D01*
X268768Y598741D01*
X268857Y598727D01*
X300574Y598727D01*
X300669Y598741D01*
X300765Y598746D01*
X300809Y598761D01*
X300853Y598767D01*
X300941Y598807D01*
X301032Y598838D01*
X301066Y598863D01*
X301110Y598883D01*
X301208Y598967D01*
X301281Y599020D01*
X302988Y600727D01*
X305785Y600727D01*
X305817Y600732D01*
X305849Y600729D01*
X305956Y600752D01*
X306064Y600767D01*
X306093Y600780D01*
X306125Y600787D01*
X306221Y600838D01*
X306321Y600883D01*
X306345Y600904D01*
X306374Y600919D01*
X306452Y600996D01*
X306535Y601067D01*
X306553Y601094D01*
X306576Y601116D01*
X306630Y601211D01*
X306690Y601303D01*
X306699Y601334D01*
X306715Y601362D01*
X306740Y601468D01*
X306772Y601572D01*
X306772Y601605D01*
X306780Y601636D01*
X306774Y601746D01*
X306776Y601854D01*
X306767Y601885D01*
X306766Y601918D01*
X306730Y602021D01*
X306701Y602126D01*
X306684Y602154D01*
X306673Y602184D01*
X306620Y602257D01*
X306552Y602366D01*
X306516Y602399D01*
X306491Y602433D01*
X291347Y617578D01*
X289575Y619349D01*
X289575Y624362D01*
X289562Y624457D01*
X289557Y624553D01*
X289542Y624596D01*
X289535Y624641D01*
X289496Y624729D01*
X289464Y624819D01*
X289439Y624854D01*
X289419Y624898D01*
X289336Y624995D01*
X289283Y625068D01*
X287575Y626776D01*
X287575Y630524D01*
X290226Y633175D01*
X293561Y633175D01*
X293625Y633184D01*
X293689Y633183D01*
X293764Y633204D01*
X293840Y633215D01*
X293899Y633241D01*
X293961Y633258D01*
X294027Y633299D01*
X294097Y633331D01*
X294146Y633373D01*
X294201Y633406D01*
X294253Y633464D01*
X294311Y633514D01*
X294347Y633568D01*
X294390Y633616D01*
X294423Y633685D01*
X294466Y633750D01*
X294485Y633812D01*
X294513Y633869D01*
X294524Y633939D01*
X294548Y634020D01*
X294549Y634105D01*
X294560Y634174D01*
X294560Y636239D01*
X297211Y638890D01*
X300959Y638890D01*
X303610Y636239D01*
X303610Y633539D01*
X303619Y633475D01*
X303618Y633411D01*
X303639Y633336D01*
X303650Y633260D01*
X303676Y633201D01*
X303693Y633139D01*
X303734Y633073D01*
X303766Y633003D01*
X303808Y632954D01*
X303841Y632899D01*
X303899Y632847D01*
X303949Y632789D01*
X304003Y632753D01*
X304051Y632710D01*
X304120Y632677D01*
X304185Y632634D01*
X304247Y632615D01*
X304304Y632587D01*
X304374Y632576D01*
X304455Y632552D01*
X304540Y632551D01*
X304609Y632540D01*
X307309Y632540D01*
X309960Y629889D01*
X309960Y626141D01*
X308904Y625085D01*
X308865Y625033D01*
X308819Y624989D01*
X308781Y624921D01*
X308735Y624859D01*
X308712Y624799D01*
X308680Y624743D01*
X308662Y624668D01*
X308635Y624595D01*
X308630Y624531D01*
X308615Y624469D01*
X308619Y624391D01*
X308613Y624314D01*
X308626Y624251D01*
X308630Y624187D01*
X308655Y624114D01*
X308671Y624038D01*
X308701Y623981D01*
X308722Y623921D01*
X308763Y623864D01*
X308803Y623789D01*
X308862Y623728D01*
X308904Y623672D01*
X327683Y604892D01*
X327760Y604835D01*
X327831Y604770D01*
X327872Y604750D01*
X327909Y604723D01*
X327999Y604689D01*
X328085Y604647D01*
X328127Y604641D01*
X328173Y604624D01*
X328300Y604614D01*
X328390Y604600D01*
X332074Y604600D01*
X334725Y601949D01*
X334725Y598201D01*
X332459Y595936D01*
X332421Y595884D01*
X332375Y595839D01*
X332337Y595772D01*
X332290Y595710D01*
X332267Y595650D01*
X332236Y595594D01*
X332218Y595519D01*
X332191Y595446D01*
X332186Y595382D01*
X332171Y595319D01*
X332175Y595242D01*
X332169Y595165D01*
X332182Y595102D01*
X332185Y595038D01*
X332211Y594965D01*
X332226Y594889D01*
X332257Y594832D01*
X332278Y594771D01*
X332319Y594715D01*
X332359Y594640D01*
X332418Y594579D01*
X332459Y594522D01*
X334090Y592892D01*
X334090Y589144D01*
X331439Y586493D01*
X327691Y586493D01*
X326061Y588123D01*
X326009Y588162D01*
X325964Y588208D01*
X325897Y588246D01*
X325835Y588293D01*
X325775Y588315D01*
X325719Y588347D01*
X325644Y588365D01*
X325571Y588392D01*
X325507Y588397D01*
X325444Y588412D01*
X325367Y588408D01*
X325290Y588414D01*
X325227Y588401D01*
X325163Y588398D01*
X325090Y588372D01*
X325014Y588356D01*
X324957Y588326D01*
X324896Y588305D01*
X324840Y588264D01*
X324765Y588224D01*
X324704Y588165D01*
X324647Y588123D01*
X323184Y586660D01*
X319436Y586660D01*
X316785Y589311D01*
X316785Y591725D01*
X316772Y591820D01*
X316767Y591916D01*
X316752Y591960D01*
X316745Y592005D01*
X316706Y592092D01*
X316674Y592183D01*
X316649Y592217D01*
X316629Y592261D01*
X316546Y592359D01*
X316493Y592432D01*
X311093Y597832D01*
X311067Y597851D01*
X311046Y597875D01*
X310955Y597935D01*
X310867Y598001D01*
X310837Y598012D01*
X310810Y598030D01*
X310706Y598062D01*
X310603Y598100D01*
X310571Y598103D01*
X310540Y598112D01*
X310431Y598114D01*
X310322Y598122D01*
X310291Y598116D01*
X310258Y598116D01*
X310153Y598087D01*
X310046Y598065D01*
X310018Y598049D01*
X309987Y598041D01*
X309894Y597983D01*
X309797Y597932D01*
X309774Y597910D01*
X309747Y597893D01*
X309673Y597812D01*
X309595Y597735D01*
X309579Y597707D01*
X309558Y597683D01*
X309510Y597585D01*
X309456Y597490D01*
X309449Y597459D01*
X309435Y597430D01*
X309421Y597340D01*
X309391Y597216D01*
X309394Y597167D01*
X309387Y597125D01*
X309387Y594328D01*
X306737Y591678D01*
X303305Y591678D01*
X303273Y591673D01*
X303241Y591676D01*
X303134Y591653D01*
X303026Y591638D01*
X302996Y591625D01*
X302965Y591618D01*
X302868Y591567D01*
X302769Y591522D01*
X302744Y591501D01*
X302716Y591486D01*
X302638Y591409D01*
X302555Y591338D01*
X302537Y591311D01*
X302514Y591289D01*
X302460Y591194D01*
X302400Y591103D01*
X302391Y591072D01*
X302375Y591044D01*
X302350Y590937D01*
X302318Y590833D01*
X302317Y590801D01*
X302310Y590769D01*
X302315Y590660D01*
X302314Y590551D01*
X302323Y590520D01*
X302324Y590487D01*
X302360Y590384D01*
X302389Y590279D01*
X302406Y590251D01*
X302417Y590221D01*
X302470Y590148D01*
X302537Y590039D01*
X302573Y590006D01*
X302598Y589972D01*
X303553Y589017D01*
X303630Y588960D01*
X303701Y588895D01*
X303742Y588875D01*
X303779Y588848D01*
X303869Y588814D01*
X303955Y588772D01*
X303997Y588766D01*
X304043Y588749D01*
X304170Y588739D01*
X304260Y588725D01*
X306674Y588725D01*
X309325Y586074D01*
X309325Y582326D01*
X306674Y579675D01*
X302926Y579675D01*
X300427Y582174D01*
X300375Y582213D01*
X300330Y582259D01*
X300263Y582297D01*
X300201Y582344D01*
X300141Y582366D01*
X300085Y582398D01*
X300010Y582416D01*
X299937Y582443D01*
X299873Y582448D01*
X299811Y582463D01*
X299733Y582459D01*
X299656Y582465D01*
X299593Y582452D01*
X299529Y582449D01*
X299456Y582423D01*
X299380Y582407D01*
X299323Y582377D01*
X299262Y582356D01*
X299206Y582315D01*
X299131Y582275D01*
X299070Y582216D01*
X299013Y582174D01*
X296514Y579675D01*
X292766Y579675D01*
X291058Y581383D01*
X290982Y581440D01*
X290910Y581505D01*
X290869Y581525D01*
X290833Y581552D01*
X290743Y581586D01*
X290656Y581628D01*
X290614Y581634D01*
X290569Y581651D01*
X290441Y581661D01*
X290352Y581675D01*
X259304Y581675D01*
X238775Y602204D01*
X238775Y605312D01*
X238762Y605407D01*
X238757Y605503D01*
X238742Y605546D01*
X238735Y605591D01*
X238696Y605679D01*
X238664Y605769D01*
X238639Y605804D01*
X238619Y605848D01*
X238536Y605945D01*
X238483Y606018D01*
X236775Y607726D01*
X236775Y609887D01*
X236771Y609919D01*
X236773Y609951D01*
X236767Y609981D01*
X236767Y609985D01*
X236763Y609999D01*
X236751Y610058D01*
X236735Y610167D01*
X236722Y610196D01*
X236716Y610228D01*
X236664Y610324D01*
X236619Y610424D01*
X236598Y610448D01*
X236583Y610476D01*
X236507Y610555D01*
X236436Y610638D01*
X236409Y610655D01*
X236386Y610679D01*
X236291Y610732D01*
X236200Y610792D01*
X236169Y610802D01*
X236141Y610818D01*
X236034Y610843D01*
X235930Y610875D01*
X235898Y610875D01*
X235867Y610883D01*
X235757Y610877D01*
X235648Y610878D01*
X235617Y610870D01*
X235585Y610868D01*
X235482Y610832D01*
X235376Y610803D01*
X235349Y610786D01*
X235318Y610776D01*
X235245Y610722D01*
X235211Y610701D01*
X235210Y610701D01*
X235209Y610700D01*
X235136Y610655D01*
X235104Y610619D01*
X235069Y610594D01*
X205382Y580907D01*
X205325Y580830D01*
X205260Y580759D01*
X205240Y580718D01*
X205213Y580681D01*
X205179Y580591D01*
X205137Y580505D01*
X205131Y580463D01*
X205114Y580417D01*
X205104Y580290D01*
X205090Y580200D01*
X205090Y513558D01*
X205103Y513463D01*
X205108Y513367D01*
X205123Y513324D01*
X205130Y513279D01*
X205169Y513191D01*
X205201Y513101D01*
X205226Y513066D01*
X205246Y513022D01*
X205329Y512925D01*
X205382Y512852D01*
X207090Y511144D01*
X207090Y507396D01*
X204439Y504745D01*
X200691Y504745D01*
X198040Y507396D01*
X198040Y511144D01*
X199748Y512852D01*
X199805Y512928D01*
X199870Y513000D01*
X199890Y513041D01*
X199917Y513077D01*
X199951Y513167D01*
X199993Y513254D01*
X199999Y513296D01*
X200016Y513341D01*
X200026Y513469D01*
X200040Y513558D01*
X200040Y580742D01*
X200036Y580774D01*
X200038Y580806D01*
X200016Y580913D01*
X200000Y581022D01*
X199987Y581051D01*
X199981Y581083D01*
X199929Y581179D01*
X199884Y581279D01*
X199863Y581303D01*
X199848Y581331D01*
X199772Y581410D01*
X199701Y581493D01*
X199674Y581510D01*
X199651Y581534D01*
X199556Y581587D01*
X199465Y581647D01*
X199434Y581657D01*
X199406Y581673D01*
X199299Y581698D01*
X199195Y581730D01*
X199163Y581730D01*
X199132Y581738D01*
X199022Y581732D01*
X198913Y581733D01*
X198882Y581725D01*
X198850Y581723D01*
X198747Y581687D01*
X198641Y581658D01*
X198614Y581641D01*
X198583Y581631D01*
X198510Y581577D01*
X198401Y581510D01*
X198369Y581474D01*
X198334Y581449D01*
X106987Y490102D01*
X105216Y488330D01*
X94458Y488330D01*
X94363Y488317D01*
X94267Y488312D01*
X94224Y488297D01*
X94179Y488290D01*
X94091Y488251D01*
X94001Y488219D01*
X93966Y488194D01*
X93922Y488174D01*
X93825Y488091D01*
X93752Y488038D01*
X92044Y486330D01*
X88296Y486330D01*
X85645Y488981D01*
X85645Y492729D01*
X88296Y495380D01*
X92044Y495380D01*
X93752Y493672D01*
X93828Y493615D01*
X93900Y493550D01*
X93941Y493530D01*
X93977Y493503D01*
X94067Y493469D01*
X94154Y493427D01*
X94196Y493421D01*
X94241Y493404D01*
X94369Y493394D01*
X94458Y493380D01*
X102710Y493380D01*
X102805Y493393D01*
X102901Y493398D01*
X102945Y493413D01*
X102990Y493420D01*
X103077Y493459D01*
X103168Y493491D01*
X103202Y493516D01*
X103246Y493536D01*
X103344Y493619D01*
X103417Y493672D01*
X285654Y675910D01*
X567881Y675910D01*
X567945Y675919D01*
X568009Y675918D01*
X568084Y675939D01*
X568160Y675950D01*
X568219Y675976D01*
X568281Y675993D01*
X568347Y676034D01*
X568417Y676066D01*
X568466Y676108D01*
X568521Y676141D01*
X568573Y676199D01*
X568631Y676249D01*
X568667Y676303D01*
X568710Y676351D01*
X568743Y676420D01*
X568786Y676485D01*
X568805Y676547D01*
X568833Y676604D01*
X568844Y676674D01*
X568868Y676755D01*
X568869Y676840D01*
X568880Y676909D01*
X568880Y677799D01*
X571531Y680450D01*
X575279Y680450D01*
X577930Y677799D01*
X577930Y674051D01*
X577828Y673949D01*
X577789Y673898D01*
X577743Y673853D01*
X577705Y673785D01*
X577659Y673723D01*
X577636Y673663D01*
X577604Y673607D01*
X577587Y673532D01*
X577559Y673460D01*
X577554Y673396D01*
X577539Y673333D01*
X577543Y673255D01*
X577537Y673178D01*
X577550Y673116D01*
X577554Y673051D01*
X577579Y672978D01*
X577595Y672902D01*
X577625Y672846D01*
X577646Y672785D01*
X577688Y672728D01*
X577727Y672653D01*
X577787Y672593D01*
X577828Y672536D01*
X580604Y669759D01*
X580630Y669740D01*
X580651Y669716D01*
X580743Y669656D01*
X580830Y669590D01*
X580860Y669579D01*
X580887Y669561D01*
X580992Y669529D01*
X581094Y669491D01*
X581126Y669488D01*
X581157Y669479D01*
X581266Y669477D01*
X581375Y669469D01*
X581407Y669475D01*
X581439Y669475D01*
X581544Y669504D01*
X581651Y669526D01*
X581680Y669542D01*
X581711Y669550D01*
X581804Y669608D01*
X581900Y669659D01*
X581923Y669681D01*
X581951Y669698D01*
X582024Y669779D01*
X582102Y669856D01*
X582118Y669884D01*
X582140Y669908D01*
X582187Y670006D01*
X582241Y670101D01*
X582249Y670132D01*
X582263Y670161D01*
X582277Y670251D01*
X582306Y670376D01*
X582304Y670424D01*
X582310Y670466D01*
X582310Y690055D01*
X582297Y690150D01*
X582292Y690246D01*
X582277Y690290D01*
X582270Y690335D01*
X582231Y690422D01*
X582199Y690513D01*
X582174Y690547D01*
X582154Y690591D01*
X582071Y690689D01*
X582018Y690762D01*
X577097Y695683D01*
X577020Y695740D01*
X576949Y695805D01*
X576908Y695825D01*
X576871Y695852D01*
X576781Y695886D01*
X576695Y695928D01*
X576653Y695934D01*
X576607Y695951D01*
X576480Y695961D01*
X576390Y695975D01*
X526258Y695975D01*
X526163Y695962D01*
X526067Y695957D01*
X526024Y695942D01*
X525979Y695935D01*
X525891Y695896D01*
X525801Y695864D01*
X525766Y695839D01*
X525722Y695819D01*
X525625Y695736D01*
X525552Y695683D01*
X523844Y693975D01*
X520096Y693975D01*
X517445Y696626D01*
X517445Y700374D01*
X520096Y703025D01*
X523844Y703025D01*
X525552Y701317D01*
X525628Y701260D01*
X525700Y701195D01*
X525741Y701175D01*
X525777Y701148D01*
X525867Y701114D01*
X525954Y701072D01*
X525996Y701066D01*
X526041Y701049D01*
X526169Y701039D01*
X526258Y701025D01*
X578896Y701025D01*
X580509Y699411D01*
X580535Y699392D01*
X580556Y699367D01*
X580648Y699307D01*
X580735Y699242D01*
X580765Y699230D01*
X580792Y699213D01*
X580897Y699181D01*
X580999Y699142D01*
X581031Y699140D01*
X581062Y699130D01*
X581171Y699129D01*
X581280Y699120D01*
X581312Y699127D01*
X581344Y699127D01*
X581449Y699156D01*
X581556Y699178D01*
X581585Y699193D01*
X581616Y699202D01*
X581709Y699259D01*
X581805Y699311D01*
X581828Y699333D01*
X581856Y699350D01*
X581929Y699431D01*
X582007Y699507D01*
X582023Y699535D01*
X582045Y699559D01*
X582092Y699658D01*
X582146Y699753D01*
X582154Y699784D01*
X582168Y699813D01*
X582182Y699902D01*
X582211Y700027D01*
X582209Y700076D01*
X582215Y700118D01*
X582215Y701644D01*
X584866Y704295D01*
X588614Y704295D01*
X588859Y704049D01*
X588885Y704030D01*
X588906Y704006D01*
X588972Y703963D01*
X588977Y703958D01*
X588986Y703954D01*
X588998Y703946D01*
X589085Y703880D01*
X589115Y703869D01*
X589142Y703851D01*
X589247Y703819D01*
X589349Y703781D01*
X589381Y703778D01*
X589412Y703769D01*
X589521Y703767D01*
X589630Y703759D01*
X589662Y703765D01*
X589694Y703765D01*
X589799Y703794D01*
X589906Y703816D01*
X589935Y703832D01*
X589966Y703840D01*
X590059Y703898D01*
X590155Y703949D01*
X590178Y703971D01*
X590206Y703988D01*
X590279Y704070D01*
X590357Y704146D01*
X590373Y704174D01*
X590395Y704198D01*
X590442Y704296D01*
X590496Y704391D01*
X590504Y704422D01*
X590518Y704451D01*
X590532Y704541D01*
X590553Y704631D01*
X590553Y704632D01*
X590561Y704665D01*
X590559Y704714D01*
X590565Y704756D01*
X590565Y707200D01*
X590552Y707295D01*
X590547Y707391D01*
X590532Y707435D01*
X590525Y707480D01*
X590486Y707567D01*
X590454Y707658D01*
X590429Y707692D01*
X590409Y707736D01*
X590326Y707834D01*
X590273Y707907D01*
X582177Y716003D01*
X582100Y716060D01*
X582029Y716125D01*
X581988Y716145D01*
X581951Y716172D01*
X581861Y716206D01*
X581775Y716248D01*
X581733Y716254D01*
X581687Y716271D01*
X581560Y716281D01*
X581470Y716295D01*
X556738Y716295D01*
X556643Y716282D01*
X556547Y716277D01*
X556504Y716262D01*
X556459Y716255D01*
X556371Y716216D01*
X556280Y716184D01*
X556246Y716159D01*
X556202Y716139D01*
X556105Y716056D01*
X556031Y716003D01*
X554324Y714295D01*
X550576Y714295D01*
X550408Y714463D01*
X550332Y714520D01*
X550260Y714585D01*
X550219Y714605D01*
X550183Y714632D01*
X550093Y714666D01*
X550006Y714708D01*
X549964Y714714D01*
X549919Y714731D01*
X549791Y714741D01*
X549702Y714755D01*
X505668Y714755D01*
X505573Y714742D01*
X505477Y714737D01*
X505434Y714722D01*
X505389Y714715D01*
X505301Y714676D01*
X505211Y714644D01*
X505176Y714619D01*
X505132Y714599D01*
X505035Y714516D01*
X504962Y714463D01*
X503524Y713025D01*
X499776Y713025D01*
X497125Y715676D01*
X497125Y719424D01*
X499776Y722075D01*
X500012Y722075D01*
X500107Y722088D01*
X500204Y722093D01*
X500247Y722108D01*
X500292Y722115D01*
X500379Y722154D01*
X500470Y722186D01*
X500504Y722211D01*
X500549Y722231D01*
X500646Y722314D01*
X500719Y722367D01*
X501236Y722885D01*
X549702Y722885D01*
X549797Y722898D01*
X549893Y722903D01*
X549936Y722918D01*
X549981Y722925D01*
X550069Y722964D01*
X550159Y722996D01*
X550194Y723021D01*
X550238Y723041D01*
X550335Y723124D01*
X550408Y723177D01*
X550576Y723345D01*
X554324Y723345D01*
X556031Y721637D01*
X556108Y721580D01*
X556180Y721515D01*
X556221Y721495D01*
X556257Y721468D01*
X556347Y721434D01*
X556433Y721392D01*
X556476Y721386D01*
X556521Y721369D01*
X556649Y721359D01*
X556738Y721345D01*
X583976Y721345D01*
X595615Y709706D01*
X595615Y696848D01*
X595619Y696816D01*
X595617Y696784D01*
X595639Y696677D01*
X595655Y696568D01*
X595668Y696539D01*
X595674Y696507D01*
X595726Y696411D01*
X595771Y696311D01*
X595792Y696287D01*
X595807Y696258D01*
X595883Y696180D01*
X595954Y696097D01*
X595981Y696080D01*
X596004Y696056D01*
X596099Y696003D01*
X596190Y695943D01*
X596221Y695933D01*
X596249Y695917D01*
X596355Y695892D01*
X596460Y695860D01*
X596492Y695860D01*
X596523Y695852D01*
X596633Y695858D01*
X596742Y695857D01*
X596773Y695865D01*
X596805Y695867D01*
X596908Y695903D01*
X597014Y695932D01*
X597041Y695949D01*
X597072Y695959D01*
X597145Y696013D01*
X597254Y696080D01*
X597286Y696116D01*
X597321Y696141D01*
X598433Y697253D01*
X598490Y697330D01*
X598555Y697401D01*
X598575Y697442D01*
X598602Y697479D01*
X598636Y697569D01*
X598678Y697655D01*
X598684Y697697D01*
X598701Y697743D01*
X598711Y697870D01*
X598725Y697960D01*
X598725Y700374D01*
X601376Y703025D01*
X602614Y703025D01*
X602646Y703029D01*
X602678Y703027D01*
X602785Y703049D01*
X602893Y703065D01*
X602923Y703078D01*
X602954Y703084D01*
X603051Y703136D01*
X603150Y703181D01*
X603175Y703202D01*
X603203Y703217D01*
X603281Y703293D01*
X603364Y703364D01*
X603382Y703391D01*
X603405Y703414D01*
X603459Y703509D01*
X603519Y703600D01*
X603528Y703631D01*
X603544Y703659D01*
X603569Y703765D01*
X603601Y703870D01*
X603602Y703902D01*
X603609Y703933D01*
X603604Y704043D01*
X603605Y704152D01*
X603596Y704183D01*
X603595Y704215D01*
X603559Y704318D01*
X603530Y704424D01*
X603513Y704451D01*
X603502Y704482D01*
X603449Y704555D01*
X603382Y704664D01*
X603346Y704696D01*
X603321Y704731D01*
X601265Y706786D01*
X601265Y710534D01*
X604150Y713419D01*
X604189Y713471D01*
X604235Y713516D01*
X604273Y713583D01*
X604320Y713645D01*
X604342Y713705D01*
X604374Y713761D01*
X604392Y713836D01*
X604419Y713909D01*
X604424Y713973D01*
X604439Y714035D01*
X604435Y714113D01*
X604441Y714190D01*
X604428Y714253D01*
X604425Y714317D01*
X604399Y714390D01*
X604383Y714466D01*
X604353Y714523D01*
X604332Y714584D01*
X604291Y714640D01*
X604251Y714715D01*
X604192Y714776D01*
X604150Y714833D01*
X510540Y808443D01*
X510464Y808500D01*
X510392Y808565D01*
X510351Y808585D01*
X510315Y808612D01*
X510225Y808646D01*
X510138Y808688D01*
X510096Y808694D01*
X510051Y808711D01*
X509923Y808721D01*
X509834Y808735D01*
X504398Y808735D01*
X504303Y808722D01*
X504207Y808717D01*
X504164Y808702D01*
X504119Y808695D01*
X504031Y808656D01*
X503941Y808624D01*
X503906Y808599D01*
X503862Y808579D01*
X503765Y808496D01*
X503692Y808443D01*
X503524Y808275D01*
X499776Y808275D01*
X499608Y808443D01*
X499532Y808500D01*
X499460Y808565D01*
X499419Y808585D01*
X499383Y808612D01*
X499293Y808646D01*
X499206Y808688D01*
X499164Y808694D01*
X499119Y808711D01*
X498991Y808721D01*
X498902Y808735D01*
X182466Y808735D01*
X157359Y833843D01*
X157282Y833900D01*
X157211Y833965D01*
X157170Y833985D01*
X157133Y834012D01*
X157043Y834046D01*
X156957Y834088D01*
X156915Y834094D01*
X156870Y834111D01*
X156742Y834121D01*
X156652Y834135D01*
X117048Y834135D01*
X116953Y834122D01*
X116857Y834117D01*
X116814Y834102D01*
X116769Y834095D01*
X116681Y834056D01*
X116591Y834024D01*
X116556Y833999D01*
X116512Y833979D01*
X116415Y833896D01*
X116342Y833843D01*
X116174Y833675D01*
X115938Y833675D01*
X115843Y833662D01*
X115746Y833657D01*
X115703Y833642D01*
X115658Y833635D01*
X115571Y833596D01*
X115480Y833564D01*
X115446Y833539D01*
X115401Y833519D01*
X115304Y833436D01*
X115231Y833383D01*
X105957Y824109D01*
X105900Y824032D01*
X105835Y823961D01*
X105815Y823920D01*
X105788Y823883D01*
X105754Y823793D01*
X105712Y823707D01*
X105706Y823665D01*
X105689Y823620D01*
X105679Y823492D01*
X105665Y823402D01*
X105665Y725998D01*
X105678Y725903D01*
X105683Y725806D01*
X105698Y725763D01*
X105705Y725718D01*
X105744Y725631D01*
X105776Y725540D01*
X105801Y725506D01*
X105821Y725461D01*
X105904Y725364D01*
X105957Y725291D01*
X115231Y716017D01*
X115308Y715960D01*
X115379Y715895D01*
X115420Y715875D01*
X115457Y715848D01*
X115547Y715814D01*
X115633Y715772D01*
X115675Y715766D01*
X115720Y715749D01*
X115848Y715739D01*
X115938Y715725D01*
X116174Y715725D01*
X118825Y713074D01*
X118825Y709326D01*
X116174Y706675D01*
X112426Y706675D01*
X109775Y709326D01*
X109775Y709562D01*
X109762Y709657D01*
X109757Y709754D01*
X109742Y709797D01*
X109735Y709842D01*
X109696Y709929D01*
X109664Y710020D01*
X109639Y710054D01*
X109619Y710099D01*
X109536Y710196D01*
X109483Y710269D01*
X97535Y722216D01*
X97535Y825974D01*
X97531Y826006D01*
X97533Y826039D01*
X97511Y826145D01*
X97495Y826254D01*
X97482Y826283D01*
X97476Y826315D01*
X97424Y826411D01*
X97379Y826511D01*
X97358Y826535D01*
X97343Y826564D01*
X97267Y826642D01*
X97196Y826725D01*
X97169Y826743D01*
X97146Y826766D01*
X97051Y826819D01*
X96960Y826879D01*
X96929Y826889D01*
X96901Y826905D01*
X96794Y826930D01*
X96690Y826962D01*
X96658Y826962D01*
X96627Y826970D01*
X96517Y826964D01*
X96408Y826966D01*
X96377Y826957D01*
X96345Y826955D01*
X96242Y826919D01*
X96136Y826890D01*
X96109Y826873D01*
X96078Y826863D01*
X96005Y826810D01*
X95896Y826742D01*
X95864Y826706D01*
X95829Y826681D01*
X93257Y824109D01*
X93200Y824032D01*
X93135Y823961D01*
X93115Y823920D01*
X93088Y823883D01*
X93054Y823793D01*
X93012Y823707D01*
X93006Y823665D01*
X92989Y823620D01*
X92979Y823492D01*
X92965Y823402D01*
X92965Y815548D01*
X92978Y815453D01*
X92983Y815357D01*
X92998Y815314D01*
X93005Y815269D01*
X93044Y815181D01*
X93076Y815091D01*
X93101Y815056D01*
X93121Y815012D01*
X93204Y814915D01*
X93257Y814842D01*
X93425Y814674D01*
X93425Y810926D01*
X93257Y810758D01*
X93200Y810682D01*
X93135Y810610D01*
X93115Y810569D01*
X93088Y810533D01*
X93054Y810443D01*
X93012Y810356D01*
X93006Y810314D01*
X92989Y810269D01*
X92979Y810141D01*
X92965Y810052D01*
X92965Y758398D01*
X92978Y758303D01*
X92983Y758207D01*
X92998Y758164D01*
X93005Y758119D01*
X93044Y758031D01*
X93076Y757941D01*
X93101Y757906D01*
X93121Y757862D01*
X93204Y757765D01*
X93257Y757692D01*
X93425Y757524D01*
X93425Y753776D01*
X90774Y751125D01*
X90538Y751125D01*
X90443Y751112D01*
X90346Y751107D01*
X90303Y751092D01*
X90258Y751085D01*
X90171Y751046D01*
X90080Y751014D01*
X90046Y750989D01*
X90001Y750969D01*
X89904Y750886D01*
X89831Y750833D01*
X55157Y716159D01*
X55100Y716082D01*
X55035Y716011D01*
X55015Y715970D01*
X54988Y715933D01*
X54954Y715843D01*
X54912Y715757D01*
X54906Y715715D01*
X54889Y715670D01*
X54879Y715542D01*
X54865Y715452D01*
X54865Y688548D01*
X54878Y688453D01*
X54883Y688357D01*
X54898Y688314D01*
X54905Y688269D01*
X54944Y688181D01*
X54976Y688091D01*
X55001Y688056D01*
X55021Y688012D01*
X55104Y687915D01*
X55157Y687842D01*
X55325Y687674D01*
X55325Y683926D01*
X55157Y683758D01*
X55100Y683682D01*
X55035Y683610D01*
X55015Y683569D01*
X54988Y683533D01*
X54954Y683443D01*
X54912Y683356D01*
X54906Y683314D01*
X54889Y683269D01*
X54879Y683141D01*
X54865Y683052D01*
X54865Y643448D01*
X54878Y643353D01*
X54883Y643256D01*
X54898Y643213D01*
X54905Y643168D01*
X54944Y643081D01*
X54976Y642990D01*
X55001Y642956D01*
X55021Y642911D01*
X55104Y642814D01*
X55157Y642741D01*
X64891Y633007D01*
X64968Y632950D01*
X65039Y632885D01*
X65080Y632865D01*
X65117Y632838D01*
X65207Y632804D01*
X65293Y632762D01*
X65335Y632756D01*
X65380Y632739D01*
X65508Y632729D01*
X65598Y632715D01*
X83836Y632715D01*
X83900Y632724D01*
X83964Y632723D01*
X84039Y632744D01*
X84115Y632755D01*
X84174Y632781D01*
X84236Y632798D01*
X84302Y632839D01*
X84372Y632871D01*
X84421Y632913D01*
X84476Y632946D01*
X84528Y633004D01*
X84586Y633054D01*
X84622Y633108D01*
X84665Y633156D01*
X84698Y633225D01*
X84741Y633290D01*
X84760Y633352D01*
X84788Y633409D01*
X84799Y633479D01*
X84823Y633560D01*
X84824Y633645D01*
X84835Y633714D01*
X84835Y658834D01*
X87509Y661507D01*
X93933Y667931D01*
X93990Y668008D01*
X94055Y668079D01*
X94075Y668120D01*
X94102Y668157D01*
X94136Y668247D01*
X94178Y668333D01*
X94184Y668375D01*
X94201Y668420D01*
X94211Y668548D01*
X94225Y668638D01*
X94225Y668874D01*
X96876Y671525D01*
X100624Y671525D01*
X103275Y668874D01*
X103275Y665126D01*
X100624Y662475D01*
X100388Y662475D01*
X100293Y662462D01*
X100196Y662457D01*
X100153Y662442D01*
X100108Y662435D01*
X100021Y662396D01*
X99930Y662364D01*
X99896Y662339D01*
X99851Y662319D01*
X99754Y662236D01*
X99681Y662183D01*
X93257Y655759D01*
X93200Y655682D01*
X93135Y655611D01*
X93115Y655570D01*
X93088Y655533D01*
X93054Y655443D01*
X93012Y655357D01*
X93006Y655315D01*
X92989Y655270D01*
X92979Y655142D01*
X92965Y655052D01*
X92965Y633714D01*
X92974Y633650D01*
X92973Y633586D01*
X92994Y633511D01*
X93005Y633435D01*
X93031Y633376D01*
X93048Y633314D01*
X93089Y633248D01*
X93121Y633178D01*
X93163Y633129D01*
X93196Y633074D01*
X93254Y633022D01*
X93304Y632964D01*
X93358Y632928D01*
X93406Y632885D01*
X93475Y632852D01*
X93540Y632809D01*
X93602Y632790D01*
X93659Y632762D01*
X93729Y632751D01*
X93810Y632727D01*
X93895Y632726D01*
X93964Y632715D01*
X135034Y632715D01*
X146981Y620767D01*
X147058Y620710D01*
X147129Y620645D01*
X147170Y620625D01*
X147207Y620598D01*
X147297Y620564D01*
X147383Y620522D01*
X147425Y620516D01*
X147470Y620499D01*
X147598Y620489D01*
X147688Y620475D01*
X147924Y620475D01*
X150575Y617824D01*
X150575Y614076D01*
X147924Y611425D01*
X144176Y611425D01*
X141525Y614076D01*
X141525Y614312D01*
X141512Y614407D01*
X141507Y614504D01*
X141492Y614547D01*
X141485Y614592D01*
X141446Y614679D01*
X141414Y614770D01*
X141389Y614804D01*
X141369Y614849D01*
X141286Y614946D01*
X141233Y615019D01*
X131959Y624293D01*
X131882Y624350D01*
X131811Y624415D01*
X131770Y624435D01*
X131733Y624462D01*
X131643Y624496D01*
X131557Y624538D01*
X131515Y624544D01*
X131470Y624561D01*
X131342Y624571D01*
X131252Y624585D01*
X91648Y624585D01*
X91553Y624572D01*
X91457Y624567D01*
X91414Y624552D01*
X91369Y624545D01*
X91281Y624506D01*
X91191Y624474D01*
X91156Y624449D01*
X91112Y624429D01*
X91015Y624346D01*
X90942Y624293D01*
X90774Y624125D01*
X87026Y624125D01*
X86858Y624293D01*
X86782Y624350D01*
X86710Y624415D01*
X86669Y624435D01*
X86633Y624462D01*
X86543Y624496D01*
X86456Y624538D01*
X86414Y624544D01*
X86369Y624561D01*
X86241Y624571D01*
X86152Y624585D01*
X68564Y624585D01*
X68500Y624576D01*
X68436Y624577D01*
X68361Y624556D01*
X68285Y624545D01*
X68226Y624519D01*
X68164Y624502D01*
X68098Y624461D01*
X68028Y624429D01*
X67979Y624387D01*
X67924Y624354D01*
X67872Y624296D01*
X67814Y624246D01*
X67778Y624192D01*
X67735Y624144D01*
X67702Y624075D01*
X67659Y624010D01*
X67640Y623948D01*
X67612Y623891D01*
X67601Y623821D01*
X67577Y623740D01*
X67576Y623655D01*
X67565Y623586D01*
X67565Y576166D01*
X64891Y573493D01*
X49267Y557869D01*
X49210Y557792D01*
X49145Y557721D01*
X49125Y557680D01*
X49098Y557643D01*
X49064Y557553D01*
X49022Y557467D01*
X49016Y557425D01*
X48999Y557380D01*
X48989Y557252D01*
X48975Y557162D01*
X48975Y556926D01*
X48807Y556759D01*
X48750Y556682D01*
X48685Y556610D01*
X48665Y556569D01*
X48638Y556533D01*
X48604Y556443D01*
X48562Y556357D01*
X48556Y556314D01*
X48539Y556269D01*
X48529Y556141D01*
X48515Y556052D01*
X48515Y485348D01*
X48528Y485253D01*
X48533Y485157D01*
X48548Y485114D01*
X48555Y485069D01*
X48594Y484981D01*
X48626Y484891D01*
X48651Y484856D01*
X48671Y484812D01*
X48754Y484715D01*
X48807Y484642D01*
X48975Y484474D01*
X48975Y484238D01*
X48988Y484143D01*
X48993Y484046D01*
X49008Y484003D01*
X49015Y483958D01*
X49054Y483871D01*
X49086Y483780D01*
X49111Y483746D01*
X49131Y483701D01*
X49214Y483604D01*
X49267Y483531D01*
X61441Y471357D01*
X61518Y471300D01*
X61589Y471235D01*
X61630Y471215D01*
X61667Y471188D01*
X61757Y471154D01*
X61843Y471112D01*
X61885Y471106D01*
X61930Y471089D01*
X62058Y471079D01*
X62148Y471065D01*
X178502Y471065D01*
X178597Y471078D01*
G37*
%LPC*%
G36*
X226726Y490775D02*
X226726Y490775D01*
X224075Y493426D01*
X224075Y497174D01*
X226726Y499825D01*
X230474Y499825D01*
X230642Y499657D01*
X230718Y499600D01*
X230790Y499535D01*
X230831Y499515D01*
X230867Y499488D01*
X230957Y499454D01*
X231044Y499412D01*
X231086Y499406D01*
X231131Y499389D01*
X231259Y499379D01*
X231348Y499365D01*
X267127Y499365D01*
X267222Y499378D01*
X267318Y499383D01*
X267361Y499398D01*
X267406Y499405D01*
X267494Y499444D01*
X267584Y499476D01*
X267619Y499501D01*
X267663Y499521D01*
X267760Y499604D01*
X267833Y499657D01*
X268001Y499825D01*
X271749Y499825D01*
X271917Y499657D01*
X271993Y499600D01*
X272065Y499535D01*
X272106Y499515D01*
X272142Y499488D01*
X272232Y499454D01*
X272319Y499412D01*
X272361Y499406D01*
X272406Y499389D01*
X272534Y499379D01*
X272623Y499365D01*
X508427Y499365D01*
X508522Y499378D01*
X508618Y499383D01*
X508661Y499398D01*
X508706Y499405D01*
X508794Y499444D01*
X508884Y499476D01*
X508919Y499501D01*
X508963Y499521D01*
X509060Y499604D01*
X509133Y499657D01*
X509301Y499825D01*
X513049Y499825D01*
X513217Y499657D01*
X513293Y499600D01*
X513365Y499535D01*
X513406Y499515D01*
X513442Y499488D01*
X513532Y499454D01*
X513619Y499412D01*
X513661Y499406D01*
X513706Y499389D01*
X513834Y499379D01*
X513923Y499365D01*
X749727Y499365D01*
X749822Y499378D01*
X749918Y499383D01*
X749961Y499398D01*
X750006Y499405D01*
X750094Y499444D01*
X750184Y499476D01*
X750219Y499501D01*
X750263Y499521D01*
X750360Y499604D01*
X750433Y499657D01*
X750601Y499825D01*
X754349Y499825D01*
X754517Y499657D01*
X754593Y499600D01*
X754665Y499535D01*
X754706Y499515D01*
X754742Y499488D01*
X754832Y499454D01*
X754919Y499412D01*
X754961Y499406D01*
X755006Y499389D01*
X755134Y499379D01*
X755223Y499365D01*
X991027Y499365D01*
X991122Y499378D01*
X991218Y499383D01*
X991261Y499398D01*
X991306Y499405D01*
X991394Y499444D01*
X991484Y499476D01*
X991519Y499501D01*
X991563Y499521D01*
X991660Y499604D01*
X991733Y499657D01*
X991901Y499825D01*
X995649Y499825D01*
X995817Y499657D01*
X995893Y499600D01*
X995965Y499535D01*
X996006Y499515D01*
X996042Y499488D01*
X996132Y499454D01*
X996219Y499412D01*
X996261Y499406D01*
X996306Y499389D01*
X996434Y499379D01*
X996523Y499365D01*
X1042477Y499365D01*
X1042572Y499378D01*
X1042669Y499383D01*
X1042712Y499398D01*
X1042757Y499405D01*
X1042844Y499444D01*
X1042935Y499476D01*
X1042969Y499501D01*
X1043014Y499521D01*
X1043111Y499604D01*
X1043184Y499657D01*
X1062443Y518916D01*
X1062500Y518993D01*
X1062565Y519064D01*
X1062585Y519105D01*
X1062612Y519142D01*
X1062646Y519232D01*
X1062688Y519318D01*
X1062694Y519360D01*
X1062711Y519405D01*
X1062721Y519533D01*
X1062735Y519623D01*
X1062735Y543352D01*
X1062722Y543447D01*
X1062717Y543543D01*
X1062702Y543586D01*
X1062695Y543631D01*
X1062656Y543719D01*
X1062624Y543809D01*
X1062599Y543844D01*
X1062579Y543888D01*
X1062496Y543985D01*
X1062443Y544058D01*
X1062275Y544226D01*
X1062275Y547974D01*
X1064926Y550625D01*
X1068674Y550625D01*
X1071325Y547974D01*
X1071325Y544226D01*
X1071157Y544058D01*
X1071100Y543982D01*
X1071035Y543910D01*
X1071015Y543869D01*
X1070988Y543833D01*
X1070954Y543743D01*
X1070912Y543656D01*
X1070906Y543614D01*
X1070889Y543569D01*
X1070879Y543441D01*
X1070865Y543352D01*
X1070865Y515841D01*
X1046259Y491235D01*
X996523Y491235D01*
X996428Y491222D01*
X996332Y491217D01*
X996289Y491202D01*
X996244Y491195D01*
X996156Y491156D01*
X996066Y491124D01*
X996031Y491099D01*
X995987Y491079D01*
X995890Y490996D01*
X995817Y490943D01*
X995649Y490775D01*
X991901Y490775D01*
X991733Y490943D01*
X991657Y491000D01*
X991585Y491065D01*
X991544Y491085D01*
X991508Y491112D01*
X991418Y491146D01*
X991331Y491188D01*
X991289Y491194D01*
X991244Y491211D01*
X991116Y491221D01*
X991027Y491235D01*
X755223Y491235D01*
X755128Y491222D01*
X755032Y491217D01*
X754989Y491202D01*
X754944Y491195D01*
X754856Y491156D01*
X754766Y491124D01*
X754731Y491099D01*
X754687Y491079D01*
X754590Y490996D01*
X754517Y490943D01*
X754349Y490775D01*
X750601Y490775D01*
X750433Y490943D01*
X750357Y491000D01*
X750285Y491065D01*
X750244Y491085D01*
X750208Y491112D01*
X750118Y491146D01*
X750031Y491188D01*
X749989Y491194D01*
X749944Y491211D01*
X749816Y491221D01*
X749727Y491235D01*
X513923Y491235D01*
X513828Y491222D01*
X513732Y491217D01*
X513689Y491202D01*
X513644Y491195D01*
X513556Y491156D01*
X513466Y491124D01*
X513431Y491099D01*
X513387Y491079D01*
X513290Y490996D01*
X513217Y490943D01*
X513049Y490775D01*
X509301Y490775D01*
X509133Y490943D01*
X509057Y491000D01*
X508985Y491065D01*
X508944Y491085D01*
X508908Y491112D01*
X508818Y491146D01*
X508731Y491188D01*
X508689Y491194D01*
X508644Y491211D01*
X508516Y491221D01*
X508427Y491235D01*
X272623Y491235D01*
X272528Y491222D01*
X272432Y491217D01*
X272389Y491202D01*
X272344Y491195D01*
X272256Y491156D01*
X272166Y491124D01*
X272131Y491099D01*
X272087Y491079D01*
X271990Y490996D01*
X271917Y490943D01*
X271749Y490775D01*
X268001Y490775D01*
X267833Y490943D01*
X267757Y491000D01*
X267685Y491065D01*
X267644Y491085D01*
X267608Y491112D01*
X267518Y491146D01*
X267431Y491188D01*
X267389Y491194D01*
X267344Y491211D01*
X267216Y491221D01*
X267127Y491235D01*
X231348Y491235D01*
X231253Y491222D01*
X231157Y491217D01*
X231114Y491202D01*
X231069Y491195D01*
X230981Y491156D01*
X230891Y491124D01*
X230856Y491099D01*
X230812Y491079D01*
X230715Y490996D01*
X230642Y490943D01*
X230474Y490775D01*
X226726Y490775D01*
G37*
%LPD*%
%LPC*%
G36*
X633126Y763825D02*
X633126Y763825D01*
X630475Y766476D01*
X630475Y770224D01*
X632183Y771932D01*
X632240Y772008D01*
X632305Y772080D01*
X632325Y772121D01*
X632352Y772157D01*
X632386Y772247D01*
X632428Y772334D01*
X632434Y772376D01*
X632451Y772421D01*
X632461Y772549D01*
X632475Y772638D01*
X632475Y849440D01*
X632462Y849535D01*
X632457Y849631D01*
X632442Y849675D01*
X632435Y849720D01*
X632396Y849807D01*
X632364Y849898D01*
X632339Y849932D01*
X632319Y849976D01*
X632236Y850074D01*
X632183Y850147D01*
X584797Y897533D01*
X583025Y899304D01*
X583025Y940512D01*
X583012Y940607D01*
X583007Y940703D01*
X582992Y940746D01*
X582985Y940791D01*
X582946Y940879D01*
X582914Y940970D01*
X582889Y941004D01*
X582869Y941048D01*
X582786Y941145D01*
X582733Y941218D01*
X581781Y942171D01*
X581755Y942190D01*
X581734Y942214D01*
X581642Y942274D01*
X581555Y942340D01*
X581525Y942351D01*
X581498Y942369D01*
X581393Y942401D01*
X581291Y942439D01*
X581259Y942442D01*
X581228Y942451D01*
X581119Y942453D01*
X581010Y942461D01*
X580978Y942455D01*
X580946Y942455D01*
X580841Y942426D01*
X580734Y942404D01*
X580705Y942388D01*
X580677Y942380D01*
X580739Y942449D01*
X580817Y942526D01*
X580833Y942554D01*
X580855Y942578D01*
X580902Y942676D01*
X580956Y942771D01*
X580964Y942803D01*
X580978Y942831D01*
X580992Y942921D01*
X581021Y943046D01*
X581019Y943094D01*
X581025Y943136D01*
X581025Y946674D01*
X583676Y949325D01*
X587424Y949325D01*
X590075Y946674D01*
X590075Y944486D01*
X590079Y944454D01*
X590077Y944422D01*
X590099Y944315D01*
X590115Y944207D01*
X590128Y944177D01*
X590134Y944146D01*
X590186Y944049D01*
X590231Y943950D01*
X590252Y943925D01*
X590267Y943897D01*
X590343Y943819D01*
X590414Y943736D01*
X590441Y943718D01*
X590464Y943695D01*
X590559Y943641D01*
X590650Y943581D01*
X590681Y943572D01*
X590709Y943556D01*
X590815Y943531D01*
X590920Y943499D01*
X590952Y943498D01*
X590983Y943491D01*
X591093Y943496D01*
X591202Y943495D01*
X591233Y943504D01*
X591265Y943505D01*
X591368Y943541D01*
X591474Y943570D01*
X591501Y943587D01*
X591532Y943598D01*
X591605Y943651D01*
X591714Y943718D01*
X591746Y943754D01*
X591781Y943779D01*
X593676Y945675D01*
X597424Y945675D01*
X599319Y943779D01*
X599345Y943760D01*
X599366Y943736D01*
X599458Y943676D01*
X599545Y943610D01*
X599575Y943599D01*
X599602Y943581D01*
X599707Y943549D01*
X599809Y943511D01*
X599841Y943508D01*
X599872Y943499D01*
X599981Y943497D01*
X600090Y943489D01*
X600122Y943495D01*
X600154Y943495D01*
X600259Y943524D01*
X600366Y943546D01*
X600395Y943562D01*
X600426Y943570D01*
X600519Y943628D01*
X600615Y943679D01*
X600638Y943701D01*
X600666Y943718D01*
X600739Y943799D01*
X600817Y943876D01*
X600833Y943904D01*
X600855Y943928D01*
X600902Y944026D01*
X600956Y944121D01*
X600964Y944152D01*
X600978Y944181D01*
X600992Y944271D01*
X601021Y944396D01*
X601019Y944444D01*
X601025Y944486D01*
X601025Y946359D01*
X603676Y949010D01*
X607424Y949010D01*
X610075Y946359D01*
X610075Y942611D01*
X608367Y940903D01*
X608310Y940827D01*
X608245Y940755D01*
X608225Y940714D01*
X608198Y940678D01*
X608164Y940588D01*
X608122Y940501D01*
X608116Y940459D01*
X608099Y940414D01*
X608089Y940286D01*
X608075Y940197D01*
X608075Y907210D01*
X608088Y907115D01*
X608093Y907019D01*
X608108Y906975D01*
X608115Y906930D01*
X608154Y906843D01*
X608186Y906752D01*
X608211Y906718D01*
X608231Y906674D01*
X608314Y906576D01*
X608367Y906503D01*
X628134Y886736D01*
X628160Y886717D01*
X628181Y886692D01*
X628273Y886632D01*
X628360Y886567D01*
X628390Y886555D01*
X628417Y886538D01*
X628522Y886506D01*
X628624Y886467D01*
X628656Y886465D01*
X628687Y886455D01*
X628796Y886454D01*
X628905Y886445D01*
X628937Y886452D01*
X628969Y886452D01*
X629074Y886481D01*
X629181Y886503D01*
X629210Y886518D01*
X629241Y886527D01*
X629334Y886584D01*
X629430Y886636D01*
X629453Y886658D01*
X629481Y886675D01*
X629554Y886756D01*
X629632Y886832D01*
X629648Y886860D01*
X629670Y886884D01*
X629717Y886983D01*
X629771Y887078D01*
X629779Y887109D01*
X629793Y887138D01*
X629807Y887227D01*
X629836Y887352D01*
X629834Y887401D01*
X629840Y887443D01*
X629840Y890239D01*
X632491Y892890D01*
X634905Y892890D01*
X635000Y892903D01*
X635096Y892908D01*
X635140Y892923D01*
X635185Y892930D01*
X635272Y892969D01*
X635363Y893001D01*
X635397Y893026D01*
X635441Y893046D01*
X635539Y893129D01*
X635612Y893182D01*
X658123Y915693D01*
X658180Y915770D01*
X658245Y915841D01*
X658265Y915882D01*
X658292Y915919D01*
X658326Y916009D01*
X658368Y916095D01*
X658374Y916137D01*
X658391Y916183D01*
X658397Y916256D01*
X661066Y918925D01*
X664814Y918925D01*
X667465Y916274D01*
X667465Y912526D01*
X664814Y909875D01*
X661066Y909875D01*
X660962Y909979D01*
X660911Y910017D01*
X660866Y910063D01*
X660799Y910102D01*
X660737Y910148D01*
X660677Y910171D01*
X660621Y910202D01*
X660545Y910220D01*
X660473Y910248D01*
X660409Y910252D01*
X660346Y910267D01*
X660269Y910263D01*
X660192Y910269D01*
X660129Y910256D01*
X660065Y910253D01*
X659991Y910228D01*
X659916Y910212D01*
X659859Y910182D01*
X659798Y910160D01*
X659741Y910119D01*
X659667Y910079D01*
X659606Y910020D01*
X659549Y909979D01*
X639182Y889612D01*
X639125Y889535D01*
X639060Y889464D01*
X639040Y889423D01*
X639013Y889386D01*
X638979Y889296D01*
X638937Y889210D01*
X638931Y889168D01*
X638914Y889122D01*
X638904Y888995D01*
X638890Y888905D01*
X638890Y887539D01*
X638899Y887475D01*
X638898Y887411D01*
X638919Y887336D01*
X638930Y887260D01*
X638956Y887201D01*
X638973Y887139D01*
X639014Y887073D01*
X639046Y887003D01*
X639088Y886954D01*
X639121Y886899D01*
X639179Y886847D01*
X639229Y886789D01*
X639283Y886753D01*
X639331Y886710D01*
X639400Y886677D01*
X639465Y886634D01*
X639527Y886615D01*
X639584Y886587D01*
X639654Y886576D01*
X639735Y886552D01*
X639820Y886551D01*
X639889Y886540D01*
X640620Y886540D01*
X640715Y886553D01*
X640811Y886558D01*
X640855Y886573D01*
X640900Y886580D01*
X640987Y886619D01*
X641078Y886651D01*
X641112Y886676D01*
X641156Y886696D01*
X641254Y886779D01*
X641327Y886832D01*
X646019Y891525D01*
X659922Y891525D01*
X660017Y891538D01*
X660113Y891543D01*
X660156Y891558D01*
X660201Y891565D01*
X660289Y891604D01*
X660379Y891636D01*
X660414Y891661D01*
X660458Y891681D01*
X660555Y891764D01*
X660628Y891817D01*
X662336Y893525D01*
X666084Y893525D01*
X668735Y890874D01*
X668735Y887126D01*
X666084Y884475D01*
X662336Y884475D01*
X660628Y886183D01*
X660552Y886240D01*
X660480Y886305D01*
X660439Y886325D01*
X660403Y886352D01*
X660313Y886386D01*
X660226Y886428D01*
X660184Y886434D01*
X660139Y886451D01*
X660011Y886461D01*
X659922Y886475D01*
X648525Y886475D01*
X648430Y886462D01*
X648334Y886457D01*
X648290Y886442D01*
X648245Y886435D01*
X648158Y886396D01*
X648067Y886364D01*
X648033Y886339D01*
X647989Y886319D01*
X647891Y886236D01*
X647818Y886183D01*
X644897Y883262D01*
X644840Y883185D01*
X644775Y883114D01*
X644755Y883073D01*
X644728Y883036D01*
X644694Y882946D01*
X644652Y882860D01*
X644646Y882818D01*
X644629Y882772D01*
X644619Y882645D01*
X644605Y882555D01*
X644605Y880141D01*
X641954Y877490D01*
X639793Y877490D01*
X639761Y877486D01*
X639729Y877488D01*
X639622Y877466D01*
X639513Y877450D01*
X639484Y877437D01*
X639452Y877431D01*
X639356Y877379D01*
X639256Y877334D01*
X639232Y877313D01*
X639204Y877298D01*
X639125Y877222D01*
X639042Y877151D01*
X639025Y877124D01*
X639001Y877101D01*
X638948Y877006D01*
X638888Y876915D01*
X638878Y876884D01*
X638862Y876856D01*
X638837Y876749D01*
X638805Y876645D01*
X638805Y876613D01*
X638797Y876582D01*
X638803Y876472D01*
X638802Y876363D01*
X638810Y876332D01*
X638812Y876300D01*
X638848Y876197D01*
X638877Y876091D01*
X638894Y876064D01*
X638904Y876033D01*
X638958Y875960D01*
X639025Y875851D01*
X639061Y875819D01*
X639086Y875784D01*
X668869Y846001D01*
X668895Y845982D01*
X668916Y845957D01*
X669008Y845897D01*
X669095Y845832D01*
X669125Y845820D01*
X669152Y845803D01*
X669257Y845771D01*
X669359Y845732D01*
X669391Y845730D01*
X669422Y845720D01*
X669531Y845719D01*
X669640Y845710D01*
X669672Y845717D01*
X669704Y845717D01*
X669809Y845746D01*
X669916Y845768D01*
X669945Y845783D01*
X669976Y845792D01*
X670069Y845849D01*
X670165Y845901D01*
X670188Y845923D01*
X670216Y845940D01*
X670289Y846021D01*
X670367Y846097D01*
X670383Y846125D01*
X670405Y846149D01*
X670452Y846248D01*
X670506Y846343D01*
X670514Y846374D01*
X670528Y846403D01*
X670542Y846492D01*
X670571Y846617D01*
X670569Y846666D01*
X670575Y846708D01*
X670575Y851980D01*
X670562Y852075D01*
X670557Y852171D01*
X670542Y852215D01*
X670535Y852260D01*
X670496Y852347D01*
X670464Y852438D01*
X670439Y852472D01*
X670419Y852516D01*
X670336Y852614D01*
X670283Y852687D01*
X664187Y858783D01*
X664110Y858840D01*
X664039Y858905D01*
X663998Y858925D01*
X663961Y858952D01*
X663871Y858986D01*
X663785Y859028D01*
X663743Y859034D01*
X663697Y859051D01*
X663570Y859061D01*
X663480Y859075D01*
X661066Y859075D01*
X658415Y861726D01*
X658415Y865474D01*
X661066Y868125D01*
X664814Y868125D01*
X667465Y865474D01*
X667465Y863060D01*
X667478Y862965D01*
X667483Y862869D01*
X667498Y862825D01*
X667505Y862780D01*
X667544Y862693D01*
X667576Y862602D01*
X667601Y862568D01*
X667621Y862524D01*
X667704Y862426D01*
X667757Y862353D01*
X675625Y854486D01*
X675625Y828081D01*
X665217Y817674D01*
X665160Y817597D01*
X665095Y817526D01*
X665075Y817485D01*
X665048Y817448D01*
X665014Y817358D01*
X664972Y817272D01*
X664966Y817230D01*
X664949Y817184D01*
X664939Y817057D01*
X664925Y816967D01*
X664925Y814736D01*
X662426Y812237D01*
X662387Y812185D01*
X662341Y812140D01*
X662303Y812073D01*
X662256Y812011D01*
X662234Y811951D01*
X662202Y811895D01*
X662184Y811820D01*
X662157Y811747D01*
X662152Y811683D01*
X662137Y811621D01*
X662141Y811543D01*
X662135Y811466D01*
X662148Y811403D01*
X662151Y811339D01*
X662177Y811266D01*
X662193Y811190D01*
X662223Y811133D01*
X662244Y811072D01*
X662285Y811016D01*
X662325Y810941D01*
X662384Y810880D01*
X662426Y810823D01*
X664925Y808324D01*
X664925Y804576D01*
X663217Y802868D01*
X663160Y802792D01*
X663095Y802720D01*
X663075Y802679D01*
X663048Y802643D01*
X663014Y802553D01*
X662972Y802466D01*
X662966Y802424D01*
X662949Y802379D01*
X662939Y802251D01*
X662925Y802162D01*
X662925Y792704D01*
X639817Y769597D01*
X639760Y769520D01*
X639695Y769449D01*
X639675Y769408D01*
X639648Y769371D01*
X639614Y769281D01*
X639572Y769195D01*
X639566Y769153D01*
X639549Y769107D01*
X639539Y768980D01*
X639525Y768890D01*
X639525Y766476D01*
X636874Y763825D01*
X633126Y763825D01*
G37*
%LPD*%
%LPC*%
G36*
X360636Y447420D02*
X360636Y447420D01*
X358209Y448426D01*
X356351Y450284D01*
X355345Y452711D01*
X355345Y455339D01*
X356351Y457766D01*
X357904Y459319D01*
X357923Y459345D01*
X357948Y459366D01*
X358008Y459458D01*
X358073Y459545D01*
X358085Y459575D01*
X358102Y459602D01*
X358134Y459707D01*
X358173Y459809D01*
X358175Y459841D01*
X358185Y459872D01*
X358186Y459981D01*
X358195Y460090D01*
X358188Y460122D01*
X358188Y460154D01*
X358159Y460259D01*
X358137Y460366D01*
X358122Y460395D01*
X358113Y460426D01*
X358056Y460519D01*
X358004Y460615D01*
X357982Y460638D01*
X357965Y460666D01*
X357884Y460739D01*
X357808Y460817D01*
X357780Y460833D01*
X357756Y460855D01*
X357657Y460902D01*
X357562Y460956D01*
X357531Y460964D01*
X357502Y460978D01*
X357413Y460992D01*
X357288Y461021D01*
X357239Y461019D01*
X357197Y461025D01*
X270988Y461025D01*
X270893Y461012D01*
X270797Y461007D01*
X270754Y460992D01*
X270709Y460985D01*
X270621Y460946D01*
X270531Y460914D01*
X270496Y460889D01*
X270452Y460869D01*
X270355Y460786D01*
X270282Y460733D01*
X268574Y459025D01*
X264826Y459025D01*
X262175Y461676D01*
X262175Y465424D01*
X264826Y468075D01*
X268574Y468075D01*
X270282Y466367D01*
X270358Y466310D01*
X270430Y466245D01*
X270471Y466225D01*
X270507Y466198D01*
X270597Y466164D01*
X270684Y466122D01*
X270726Y466116D01*
X270771Y466099D01*
X270899Y466089D01*
X270988Y466075D01*
X503712Y466075D01*
X503807Y466088D01*
X503903Y466093D01*
X503946Y466108D01*
X503991Y466115D01*
X504079Y466154D01*
X504169Y466186D01*
X504204Y466211D01*
X504248Y466231D01*
X504345Y466314D01*
X504418Y466367D01*
X506126Y468075D01*
X509874Y468075D01*
X511582Y466367D01*
X511658Y466310D01*
X511730Y466245D01*
X511771Y466225D01*
X511807Y466198D01*
X511897Y466164D01*
X511984Y466122D01*
X512026Y466116D01*
X512071Y466099D01*
X512199Y466089D01*
X512288Y466075D01*
X745012Y466075D01*
X745107Y466088D01*
X745203Y466093D01*
X745246Y466108D01*
X745291Y466115D01*
X745379Y466154D01*
X745469Y466186D01*
X745504Y466211D01*
X745548Y466231D01*
X745645Y466314D01*
X745718Y466367D01*
X747426Y468075D01*
X751174Y468075D01*
X752882Y466367D01*
X752958Y466310D01*
X753030Y466245D01*
X753071Y466225D01*
X753107Y466198D01*
X753197Y466164D01*
X753284Y466122D01*
X753326Y466116D01*
X753371Y466099D01*
X753499Y466089D01*
X753588Y466075D01*
X986312Y466075D01*
X986407Y466088D01*
X986503Y466093D01*
X986546Y466108D01*
X986591Y466115D01*
X986679Y466154D01*
X986769Y466186D01*
X986804Y466211D01*
X986848Y466231D01*
X986945Y466314D01*
X987018Y466367D01*
X988726Y468075D01*
X992474Y468075D01*
X995125Y465424D01*
X995125Y461676D01*
X992474Y459025D01*
X988726Y459025D01*
X987018Y460733D01*
X986942Y460790D01*
X986870Y460855D01*
X986829Y460875D01*
X986793Y460902D01*
X986703Y460936D01*
X986616Y460978D01*
X986574Y460984D01*
X986529Y461001D01*
X986401Y461011D01*
X986312Y461025D01*
X753588Y461025D01*
X753493Y461012D01*
X753397Y461007D01*
X753354Y460992D01*
X753309Y460985D01*
X753221Y460946D01*
X753131Y460914D01*
X753096Y460889D01*
X753052Y460869D01*
X752955Y460786D01*
X752882Y460733D01*
X751174Y459025D01*
X747426Y459025D01*
X745718Y460733D01*
X745642Y460790D01*
X745570Y460855D01*
X745529Y460875D01*
X745493Y460902D01*
X745403Y460936D01*
X745316Y460978D01*
X745274Y460984D01*
X745229Y461001D01*
X745101Y461011D01*
X745012Y461025D01*
X664518Y461025D01*
X664486Y461021D01*
X664454Y461023D01*
X664347Y461001D01*
X664238Y460985D01*
X664209Y460972D01*
X664177Y460966D01*
X664081Y460914D01*
X663981Y460869D01*
X663957Y460848D01*
X663929Y460833D01*
X663850Y460757D01*
X663767Y460686D01*
X663750Y460659D01*
X663726Y460636D01*
X663673Y460541D01*
X663613Y460450D01*
X663603Y460419D01*
X663587Y460391D01*
X663562Y460285D01*
X663530Y460180D01*
X663530Y460148D01*
X663522Y460117D01*
X663528Y460007D01*
X663527Y459898D01*
X663535Y459867D01*
X663537Y459835D01*
X663573Y459732D01*
X663602Y459626D01*
X663619Y459599D01*
X663629Y459568D01*
X663683Y459495D01*
X663750Y459386D01*
X663786Y459354D01*
X663811Y459319D01*
X665364Y457766D01*
X666370Y455339D01*
X666370Y452711D01*
X665364Y450284D01*
X663506Y448426D01*
X661079Y447420D01*
X601301Y447420D01*
X598874Y448426D01*
X597016Y450284D01*
X596010Y452711D01*
X596010Y455339D01*
X597016Y457766D01*
X598569Y459319D01*
X598588Y459345D01*
X598613Y459366D01*
X598673Y459458D01*
X598738Y459545D01*
X598750Y459575D01*
X598767Y459602D01*
X598799Y459707D01*
X598838Y459809D01*
X598840Y459841D01*
X598850Y459872D01*
X598851Y459981D01*
X598860Y460090D01*
X598853Y460122D01*
X598853Y460154D01*
X598824Y460259D01*
X598802Y460366D01*
X598787Y460395D01*
X598778Y460426D01*
X598721Y460519D01*
X598669Y460615D01*
X598647Y460638D01*
X598630Y460666D01*
X598549Y460739D01*
X598473Y460817D01*
X598445Y460833D01*
X598421Y460855D01*
X598322Y460902D01*
X598227Y460956D01*
X598196Y460964D01*
X598167Y460978D01*
X598078Y460992D01*
X597953Y461021D01*
X597904Y461019D01*
X597862Y461025D01*
X512288Y461025D01*
X512193Y461012D01*
X512097Y461007D01*
X512054Y460992D01*
X512009Y460985D01*
X511921Y460946D01*
X511831Y460914D01*
X511796Y460889D01*
X511752Y460869D01*
X511655Y460786D01*
X511582Y460733D01*
X509874Y459025D01*
X506126Y459025D01*
X504418Y460733D01*
X504342Y460790D01*
X504270Y460855D01*
X504229Y460875D01*
X504193Y460902D01*
X504103Y460936D01*
X504016Y460978D01*
X503974Y460984D01*
X503929Y461001D01*
X503801Y461011D01*
X503712Y461025D01*
X423853Y461025D01*
X423821Y461021D01*
X423789Y461023D01*
X423682Y461001D01*
X423573Y460985D01*
X423544Y460972D01*
X423512Y460966D01*
X423416Y460914D01*
X423316Y460869D01*
X423292Y460848D01*
X423264Y460833D01*
X423185Y460757D01*
X423102Y460686D01*
X423085Y460659D01*
X423061Y460636D01*
X423008Y460541D01*
X422948Y460450D01*
X422938Y460419D01*
X422922Y460391D01*
X422897Y460285D01*
X422865Y460180D01*
X422865Y460148D01*
X422857Y460117D01*
X422863Y460007D01*
X422862Y459898D01*
X422870Y459867D01*
X422872Y459835D01*
X422908Y459732D01*
X422937Y459626D01*
X422954Y459599D01*
X422964Y459568D01*
X423018Y459495D01*
X423085Y459386D01*
X423121Y459354D01*
X423146Y459319D01*
X424699Y457766D01*
X425705Y455339D01*
X425705Y452711D01*
X424699Y450284D01*
X422841Y448426D01*
X420414Y447420D01*
X360636Y447420D01*
G37*
%LPD*%
%LPC*%
G36*
X594660Y179716D02*
X594660Y179716D01*
X584624Y183369D01*
X576443Y190234D01*
X571104Y199483D01*
X569249Y210000D01*
X571104Y220517D01*
X576443Y229766D01*
X584624Y236631D01*
X594660Y240284D01*
X605340Y240284D01*
X615376Y236631D01*
X623557Y229766D01*
X628896Y220518D01*
X630751Y210000D01*
X628896Y199482D01*
X623557Y190234D01*
X615376Y183369D01*
X605340Y179716D01*
X594660Y179716D01*
G37*
%LPD*%
%LPC*%
G36*
X1154661Y929720D02*
X1154661Y929720D01*
X1144626Y933372D01*
X1136446Y940236D01*
X1131107Y949484D01*
X1129253Y960000D01*
X1131107Y970516D01*
X1136446Y979764D01*
X1144626Y986628D01*
X1154661Y990280D01*
X1165339Y990280D01*
X1175374Y986628D01*
X1183554Y979764D01*
X1188893Y970516D01*
X1190747Y960000D01*
X1188893Y949484D01*
X1183554Y940236D01*
X1175374Y933372D01*
X1165339Y929720D01*
X1154661Y929720D01*
G37*
%LPD*%
%LPC*%
G36*
X34661Y349720D02*
X34661Y349720D01*
X24626Y353372D01*
X16446Y360236D01*
X11107Y369484D01*
X9253Y380000D01*
X11107Y390516D01*
X16446Y399764D01*
X24626Y406628D01*
X34661Y410280D01*
X45339Y410280D01*
X55374Y406628D01*
X63554Y399764D01*
X68893Y390516D01*
X70747Y380000D01*
X68893Y369484D01*
X63554Y360236D01*
X55374Y353372D01*
X45339Y349720D01*
X34661Y349720D01*
G37*
%LPD*%
%LPC*%
G36*
X1154661Y349720D02*
X1154661Y349720D01*
X1144626Y353372D01*
X1136446Y360236D01*
X1131107Y369484D01*
X1129253Y380000D01*
X1131107Y390516D01*
X1136446Y399764D01*
X1144626Y406628D01*
X1154661Y410280D01*
X1165339Y410280D01*
X1175374Y406628D01*
X1183554Y399764D01*
X1188893Y390516D01*
X1190747Y380000D01*
X1188893Y369484D01*
X1183554Y360236D01*
X1175374Y353372D01*
X1165339Y349720D01*
X1154661Y349720D01*
G37*
%LPD*%
%LPC*%
G36*
X34661Y929720D02*
X34661Y929720D01*
X24626Y933372D01*
X16446Y940236D01*
X11107Y949484D01*
X9253Y960000D01*
X11107Y970516D01*
X16446Y979764D01*
X24626Y986628D01*
X34661Y990280D01*
X45339Y990280D01*
X55374Y986628D01*
X63554Y979764D01*
X68893Y970516D01*
X70747Y960000D01*
X68893Y949484D01*
X63554Y940236D01*
X55374Y933372D01*
X45339Y929720D01*
X34661Y929720D01*
G37*
%LPD*%
%LPC*%
G36*
X745714Y816625D02*
X745714Y816625D01*
X734375Y827964D01*
X734375Y829232D01*
X734362Y829327D01*
X734357Y829423D01*
X734342Y829466D01*
X734335Y829511D01*
X734296Y829599D01*
X734264Y829689D01*
X734239Y829724D01*
X734219Y829768D01*
X734136Y829865D01*
X734083Y829938D01*
X732375Y831646D01*
X732375Y835394D01*
X735026Y838045D01*
X738774Y838045D01*
X741425Y835394D01*
X741425Y831646D01*
X740336Y830557D01*
X740298Y830506D01*
X740252Y830461D01*
X740213Y830394D01*
X740167Y830332D01*
X740144Y830272D01*
X740113Y830216D01*
X740095Y830140D01*
X740067Y830068D01*
X740063Y830004D01*
X740048Y829941D01*
X740052Y829864D01*
X740046Y829787D01*
X740059Y829724D01*
X740062Y829660D01*
X740087Y829586D01*
X740103Y829511D01*
X740133Y829454D01*
X740155Y829393D01*
X740196Y829337D01*
X740236Y829262D01*
X740295Y829201D01*
X740336Y829144D01*
X743069Y826411D01*
X743095Y826392D01*
X743116Y826367D01*
X743208Y826307D01*
X743295Y826242D01*
X743325Y826230D01*
X743352Y826213D01*
X743457Y826181D01*
X743559Y826142D01*
X743591Y826140D01*
X743622Y826130D01*
X743731Y826129D01*
X743840Y826120D01*
X743872Y826127D01*
X743904Y826127D01*
X744009Y826156D01*
X744116Y826178D01*
X744145Y826193D01*
X744176Y826202D01*
X744269Y826259D01*
X744365Y826311D01*
X744388Y826333D01*
X744416Y826350D01*
X744489Y826431D01*
X744567Y826507D01*
X744583Y826535D01*
X744605Y826559D01*
X744652Y826658D01*
X744706Y826753D01*
X744714Y826784D01*
X744728Y826813D01*
X744742Y826902D01*
X744771Y827027D01*
X744769Y827076D01*
X744775Y827118D01*
X744775Y827374D01*
X747426Y830025D01*
X751174Y830025D01*
X752882Y828317D01*
X752958Y828260D01*
X753030Y828195D01*
X753071Y828175D01*
X753107Y828148D01*
X753197Y828114D01*
X753284Y828072D01*
X753326Y828066D01*
X753371Y828049D01*
X753499Y828039D01*
X753588Y828025D01*
X811340Y828025D01*
X811435Y828038D01*
X811531Y828043D01*
X811575Y828058D01*
X811620Y828065D01*
X811707Y828104D01*
X811798Y828136D01*
X811832Y828161D01*
X811876Y828181D01*
X811974Y828264D01*
X812047Y828317D01*
X827763Y844033D01*
X827820Y844110D01*
X827885Y844181D01*
X827905Y844222D01*
X827932Y844259D01*
X827966Y844349D01*
X828008Y844435D01*
X828014Y844477D01*
X828031Y844523D01*
X828041Y844650D01*
X828055Y844740D01*
X828055Y883095D01*
X828042Y883190D01*
X828037Y883286D01*
X828022Y883330D01*
X828015Y883375D01*
X827976Y883462D01*
X827944Y883553D01*
X827919Y883587D01*
X827899Y883631D01*
X827816Y883729D01*
X827763Y883802D01*
X819127Y892438D01*
X819050Y892495D01*
X818979Y892560D01*
X818938Y892580D01*
X818901Y892607D01*
X818811Y892641D01*
X818725Y892683D01*
X818683Y892689D01*
X818637Y892706D01*
X818510Y892716D01*
X818420Y892730D01*
X816006Y892730D01*
X813355Y895381D01*
X813355Y899129D01*
X816006Y901780D01*
X819754Y901780D01*
X822405Y899129D01*
X822405Y896715D01*
X822418Y896620D01*
X822423Y896524D01*
X822438Y896480D01*
X822445Y896435D01*
X822484Y896348D01*
X822516Y896257D01*
X822541Y896223D01*
X822561Y896179D01*
X822644Y896081D01*
X822697Y896008D01*
X833105Y885601D01*
X833105Y842234D01*
X831333Y840463D01*
X814251Y823381D01*
X814239Y823364D01*
X814231Y823358D01*
X814226Y823350D01*
X814207Y823334D01*
X814147Y823242D01*
X814082Y823155D01*
X814070Y823125D01*
X814053Y823098D01*
X814021Y822993D01*
X813982Y822891D01*
X813980Y822859D01*
X813970Y822828D01*
X813969Y822719D01*
X813960Y822610D01*
X813967Y822578D01*
X813967Y822546D01*
X813996Y822441D01*
X814018Y822334D01*
X814033Y822305D01*
X814042Y822274D01*
X814099Y822181D01*
X814151Y822085D01*
X814173Y822062D01*
X814190Y822034D01*
X814271Y821961D01*
X814347Y821883D01*
X814375Y821867D01*
X814399Y821845D01*
X814498Y821798D01*
X814593Y821744D01*
X814624Y821736D01*
X814653Y821722D01*
X814742Y821708D01*
X814867Y821679D01*
X814916Y821681D01*
X814958Y821675D01*
X817690Y821675D01*
X817785Y821688D01*
X817881Y821693D01*
X817925Y821708D01*
X817970Y821715D01*
X818057Y821754D01*
X818148Y821786D01*
X818182Y821811D01*
X818226Y821831D01*
X818324Y821914D01*
X818397Y821967D01*
X838558Y842128D01*
X838615Y842205D01*
X838680Y842276D01*
X838700Y842317D01*
X838727Y842354D01*
X838761Y842444D01*
X838803Y842530D01*
X838809Y842572D01*
X838826Y842618D01*
X838836Y842745D01*
X838850Y842835D01*
X838850Y885451D01*
X840622Y887222D01*
X849458Y896058D01*
X849515Y896135D01*
X849580Y896206D01*
X849600Y896247D01*
X849627Y896284D01*
X849661Y896374D01*
X849703Y896460D01*
X849709Y896502D01*
X849726Y896548D01*
X849736Y896675D01*
X849750Y896765D01*
X849750Y899179D01*
X852401Y901830D01*
X856149Y901830D01*
X858800Y899179D01*
X858800Y895431D01*
X856149Y892780D01*
X853735Y892780D01*
X853640Y892767D01*
X853544Y892762D01*
X853500Y892747D01*
X853455Y892740D01*
X853368Y892701D01*
X853277Y892669D01*
X853243Y892644D01*
X853199Y892624D01*
X853101Y892541D01*
X853028Y892488D01*
X844192Y883652D01*
X844135Y883575D01*
X844070Y883504D01*
X844050Y883463D01*
X844023Y883426D01*
X843989Y883336D01*
X843947Y883250D01*
X843941Y883208D01*
X843924Y883162D01*
X843914Y883035D01*
X843900Y882945D01*
X843900Y840329D01*
X821967Y818397D01*
X820196Y816625D01*
X745714Y816625D01*
G37*
%LPD*%
%LPC*%
G36*
X1083976Y617775D02*
X1083976Y617775D01*
X1083808Y617943D01*
X1083732Y618000D01*
X1083660Y618065D01*
X1083619Y618085D01*
X1083583Y618112D01*
X1083493Y618146D01*
X1083406Y618188D01*
X1083364Y618194D01*
X1083319Y618211D01*
X1083191Y618221D01*
X1083102Y618235D01*
X1007966Y618235D01*
X1002369Y623833D01*
X1002292Y623890D01*
X1002221Y623955D01*
X1002180Y623975D01*
X1002143Y624002D01*
X1002053Y624036D01*
X1001967Y624078D01*
X1001925Y624084D01*
X1001880Y624101D01*
X1001752Y624111D01*
X1001662Y624125D01*
X1001426Y624125D01*
X998775Y626776D01*
X998775Y627012D01*
X998762Y627107D01*
X998757Y627204D01*
X998742Y627247D01*
X998735Y627292D01*
X998696Y627379D01*
X998664Y627470D01*
X998639Y627504D01*
X998619Y627549D01*
X998536Y627646D01*
X998483Y627719D01*
X989209Y636993D01*
X989132Y637050D01*
X989061Y637115D01*
X989020Y637135D01*
X988983Y637162D01*
X988893Y637196D01*
X988807Y637238D01*
X988765Y637244D01*
X988720Y637261D01*
X988592Y637271D01*
X988502Y637285D01*
X923498Y637285D01*
X923403Y637272D01*
X923307Y637267D01*
X923264Y637252D01*
X923219Y637245D01*
X923131Y637206D01*
X923041Y637174D01*
X923006Y637149D01*
X922962Y637129D01*
X922865Y637046D01*
X922792Y636993D01*
X922624Y636825D01*
X918876Y636825D01*
X916225Y639476D01*
X916225Y643224D01*
X918876Y645875D01*
X922624Y645875D01*
X922792Y645707D01*
X922868Y645650D01*
X922940Y645585D01*
X922981Y645565D01*
X923017Y645538D01*
X923107Y645504D01*
X923194Y645462D01*
X923236Y645456D01*
X923281Y645439D01*
X923409Y645429D01*
X923498Y645415D01*
X992284Y645415D01*
X1004231Y633467D01*
X1004308Y633410D01*
X1004379Y633345D01*
X1004420Y633325D01*
X1004457Y633298D01*
X1004547Y633264D01*
X1004633Y633222D01*
X1004675Y633216D01*
X1004720Y633199D01*
X1004848Y633189D01*
X1004938Y633175D01*
X1005174Y633175D01*
X1007825Y630524D01*
X1007825Y630288D01*
X1007838Y630193D01*
X1007843Y630096D01*
X1007858Y630053D01*
X1007865Y630008D01*
X1007904Y629921D01*
X1007936Y629830D01*
X1007961Y629796D01*
X1007981Y629751D01*
X1008064Y629654D01*
X1008117Y629581D01*
X1011041Y626657D01*
X1011118Y626600D01*
X1011189Y626535D01*
X1011230Y626515D01*
X1011267Y626488D01*
X1011357Y626454D01*
X1011443Y626412D01*
X1011485Y626406D01*
X1011530Y626389D01*
X1011658Y626379D01*
X1011748Y626365D01*
X1083102Y626365D01*
X1083197Y626378D01*
X1083293Y626383D01*
X1083336Y626398D01*
X1083381Y626405D01*
X1083469Y626444D01*
X1083559Y626476D01*
X1083594Y626501D01*
X1083638Y626521D01*
X1083735Y626604D01*
X1083808Y626657D01*
X1083976Y626825D01*
X1087724Y626825D01*
X1090375Y624174D01*
X1090375Y620426D01*
X1087724Y617775D01*
X1083976Y617775D01*
G37*
%LPD*%
%LPC*%
G36*
X137191Y762555D02*
X137191Y762555D01*
X134429Y765317D01*
X134378Y765356D01*
X134333Y765402D01*
X134265Y765440D01*
X134203Y765486D01*
X134143Y765509D01*
X134087Y765541D01*
X134012Y765558D01*
X133940Y765586D01*
X133876Y765591D01*
X133813Y765606D01*
X133736Y765602D01*
X133658Y765608D01*
X133596Y765594D01*
X133531Y765591D01*
X133458Y765566D01*
X133382Y765550D01*
X133326Y765520D01*
X133265Y765499D01*
X133208Y765457D01*
X133133Y765418D01*
X133073Y765358D01*
X133016Y765317D01*
X131524Y763825D01*
X127776Y763825D01*
X125125Y766476D01*
X125125Y770364D01*
X125121Y770396D01*
X125123Y770428D01*
X125101Y770535D01*
X125085Y770643D01*
X125072Y770673D01*
X125066Y770704D01*
X125014Y770801D01*
X124969Y770900D01*
X124948Y770925D01*
X124933Y770953D01*
X124857Y771031D01*
X124786Y771114D01*
X124759Y771132D01*
X124736Y771155D01*
X124641Y771209D01*
X124550Y771269D01*
X124519Y771278D01*
X124491Y771294D01*
X124385Y771319D01*
X124280Y771351D01*
X124248Y771352D01*
X124217Y771359D01*
X124107Y771354D01*
X123998Y771355D01*
X123967Y771346D01*
X123935Y771345D01*
X123832Y771309D01*
X123726Y771280D01*
X123699Y771263D01*
X123668Y771252D01*
X123595Y771199D01*
X123486Y771132D01*
X123454Y771096D01*
X123419Y771071D01*
X122524Y770175D01*
X118776Y770175D01*
X116125Y772826D01*
X116125Y776574D01*
X117833Y778282D01*
X117890Y778358D01*
X117955Y778430D01*
X117975Y778471D01*
X118002Y778507D01*
X118036Y778597D01*
X118078Y778684D01*
X118084Y778726D01*
X118101Y778771D01*
X118111Y778899D01*
X118125Y778988D01*
X118125Y801146D01*
X129129Y812150D01*
X137952Y812150D01*
X138047Y812163D01*
X138143Y812168D01*
X138186Y812183D01*
X138231Y812190D01*
X138319Y812229D01*
X138409Y812261D01*
X138444Y812286D01*
X138488Y812306D01*
X138585Y812389D01*
X138658Y812442D01*
X140366Y814150D01*
X144114Y814150D01*
X146765Y811499D01*
X146765Y807751D01*
X144114Y805100D01*
X140366Y805100D01*
X138658Y806808D01*
X138582Y806865D01*
X138510Y806930D01*
X138469Y806950D01*
X138433Y806977D01*
X138343Y807011D01*
X138256Y807053D01*
X138214Y807059D01*
X138169Y807076D01*
X138041Y807086D01*
X137952Y807100D01*
X131635Y807100D01*
X131540Y807087D01*
X131444Y807082D01*
X131400Y807067D01*
X131355Y807060D01*
X131268Y807021D01*
X131177Y806989D01*
X131143Y806964D01*
X131099Y806944D01*
X131001Y806861D01*
X130928Y806808D01*
X130451Y806331D01*
X130432Y806305D01*
X130407Y806284D01*
X130347Y806192D01*
X130282Y806105D01*
X130270Y806075D01*
X130253Y806048D01*
X130221Y805943D01*
X130182Y805841D01*
X130180Y805809D01*
X130170Y805778D01*
X130169Y805669D01*
X130160Y805560D01*
X130167Y805528D01*
X130167Y805496D01*
X130196Y805391D01*
X130218Y805284D01*
X130233Y805255D01*
X130242Y805224D01*
X130299Y805131D01*
X130351Y805035D01*
X130373Y805012D01*
X130390Y804984D01*
X130471Y804911D01*
X130547Y804833D01*
X130575Y804817D01*
X130599Y804795D01*
X130698Y804748D01*
X130793Y804694D01*
X130824Y804686D01*
X130853Y804672D01*
X130943Y804658D01*
X131067Y804629D01*
X131115Y804631D01*
X131158Y804625D01*
X135224Y804625D01*
X137875Y801974D01*
X137875Y798226D01*
X136167Y796518D01*
X136110Y796442D01*
X136045Y796370D01*
X136025Y796329D01*
X135998Y796293D01*
X135964Y796203D01*
X135922Y796116D01*
X135916Y796074D01*
X135899Y796029D01*
X135889Y795901D01*
X135875Y795812D01*
X135875Y772604D01*
X135884Y772540D01*
X135883Y772476D01*
X135904Y772401D01*
X135915Y772325D01*
X135941Y772266D01*
X135958Y772204D01*
X135999Y772138D01*
X136031Y772068D01*
X136073Y772019D01*
X136106Y771964D01*
X136164Y771912D01*
X136214Y771854D01*
X136268Y771818D01*
X136316Y771775D01*
X136385Y771742D01*
X136450Y771699D01*
X136512Y771680D01*
X136569Y771652D01*
X136639Y771641D01*
X136720Y771617D01*
X136805Y771616D01*
X136874Y771605D01*
X140939Y771605D01*
X142647Y769897D01*
X142723Y769840D01*
X142795Y769775D01*
X142836Y769755D01*
X142872Y769728D01*
X142962Y769694D01*
X143049Y769652D01*
X143091Y769646D01*
X143136Y769629D01*
X143264Y769619D01*
X143353Y769605D01*
X185611Y769605D01*
X185675Y769614D01*
X185739Y769613D01*
X185814Y769634D01*
X185890Y769645D01*
X185949Y769671D01*
X186011Y769688D01*
X186077Y769729D01*
X186147Y769761D01*
X186196Y769803D01*
X186251Y769836D01*
X186303Y769894D01*
X186361Y769944D01*
X186397Y769998D01*
X186440Y770046D01*
X186447Y770061D01*
X189261Y772875D01*
X193009Y772875D01*
X195660Y770224D01*
X195660Y766476D01*
X193009Y763825D01*
X189261Y763825D01*
X188823Y764263D01*
X188747Y764320D01*
X188675Y764385D01*
X188634Y764405D01*
X188598Y764432D01*
X188508Y764466D01*
X188421Y764508D01*
X188379Y764514D01*
X188334Y764531D01*
X188206Y764541D01*
X188117Y764555D01*
X143353Y764555D01*
X143258Y764542D01*
X143162Y764537D01*
X143119Y764522D01*
X143074Y764515D01*
X142986Y764476D01*
X142896Y764444D01*
X142861Y764419D01*
X142817Y764399D01*
X142720Y764316D01*
X142647Y764263D01*
X140939Y762555D01*
X137191Y762555D01*
G37*
%LPD*%
%LPC*%
G36*
X360076Y884475D02*
X360076Y884475D01*
X357425Y887126D01*
X357425Y890874D01*
X360076Y893525D01*
X360312Y893525D01*
X360407Y893538D01*
X360504Y893543D01*
X360547Y893558D01*
X360592Y893565D01*
X360679Y893604D01*
X360770Y893636D01*
X360804Y893661D01*
X360849Y893681D01*
X360946Y893764D01*
X361019Y893817D01*
X366616Y899415D01*
X484284Y899415D01*
X489881Y893817D01*
X489958Y893760D01*
X490029Y893695D01*
X490070Y893675D01*
X490107Y893648D01*
X490197Y893614D01*
X490283Y893572D01*
X490325Y893566D01*
X490370Y893549D01*
X490498Y893539D01*
X490588Y893525D01*
X490824Y893525D01*
X493475Y890874D01*
X493475Y887126D01*
X490824Y884475D01*
X487076Y884475D01*
X484425Y887126D01*
X484425Y887362D01*
X484412Y887457D01*
X484407Y887554D01*
X484392Y887597D01*
X484385Y887642D01*
X484346Y887729D01*
X484314Y887820D01*
X484289Y887854D01*
X484269Y887899D01*
X484186Y887996D01*
X484133Y888069D01*
X481209Y890993D01*
X481132Y891050D01*
X481061Y891115D01*
X481020Y891135D01*
X480983Y891162D01*
X480893Y891196D01*
X480807Y891238D01*
X480765Y891244D01*
X480720Y891261D01*
X480592Y891271D01*
X480502Y891285D01*
X370398Y891285D01*
X370303Y891272D01*
X370206Y891267D01*
X370163Y891252D01*
X370118Y891245D01*
X370031Y891206D01*
X369940Y891174D01*
X369906Y891149D01*
X369861Y891129D01*
X369764Y891046D01*
X369691Y890993D01*
X366767Y888069D01*
X366710Y887992D01*
X366645Y887921D01*
X366625Y887880D01*
X366598Y887843D01*
X366564Y887753D01*
X366522Y887667D01*
X366516Y887625D01*
X366499Y887580D01*
X366489Y887452D01*
X366475Y887362D01*
X366475Y887126D01*
X363824Y884475D01*
X360076Y884475D01*
G37*
%LPD*%
%LPC*%
G36*
X151086Y425195D02*
X151086Y425195D01*
X148659Y426201D01*
X146801Y428059D01*
X145795Y430486D01*
X145795Y433114D01*
X146801Y435541D01*
X148659Y437399D01*
X151086Y438405D01*
X229914Y438405D01*
X232341Y437399D01*
X234199Y435541D01*
X235205Y433114D01*
X235205Y430486D01*
X234199Y428059D01*
X232341Y426201D01*
X229914Y425195D01*
X151086Y425195D01*
G37*
%LPD*%
%LPC*%
G36*
X127776Y636825D02*
X127776Y636825D01*
X125125Y639476D01*
X125125Y643364D01*
X125121Y643396D01*
X125123Y643428D01*
X125101Y643535D01*
X125085Y643643D01*
X125072Y643673D01*
X125066Y643704D01*
X125014Y643801D01*
X124969Y643900D01*
X124948Y643925D01*
X124933Y643953D01*
X124857Y644031D01*
X124786Y644114D01*
X124759Y644132D01*
X124736Y644155D01*
X124641Y644209D01*
X124550Y644269D01*
X124519Y644278D01*
X124491Y644294D01*
X124385Y644319D01*
X124280Y644351D01*
X124248Y644352D01*
X124217Y644359D01*
X124107Y644354D01*
X123998Y644355D01*
X123967Y644346D01*
X123935Y644345D01*
X123832Y644309D01*
X123726Y644280D01*
X123699Y644263D01*
X123668Y644252D01*
X123595Y644199D01*
X123486Y644132D01*
X123454Y644096D01*
X123419Y644071D01*
X122524Y643175D01*
X118776Y643175D01*
X116125Y645826D01*
X116125Y649574D01*
X117833Y651282D01*
X117890Y651358D01*
X117955Y651430D01*
X117975Y651471D01*
X118002Y651507D01*
X118036Y651597D01*
X118078Y651684D01*
X118084Y651726D01*
X118101Y651771D01*
X118111Y651899D01*
X118125Y651988D01*
X118125Y675416D01*
X129129Y686420D01*
X138587Y686420D01*
X138682Y686433D01*
X138778Y686438D01*
X138821Y686453D01*
X138866Y686460D01*
X138954Y686499D01*
X139045Y686531D01*
X139079Y686556D01*
X139123Y686576D01*
X139220Y686659D01*
X139294Y686712D01*
X141001Y688420D01*
X144749Y688420D01*
X147400Y685769D01*
X147400Y682021D01*
X144749Y679370D01*
X141001Y679370D01*
X139294Y681078D01*
X139217Y681135D01*
X139145Y681200D01*
X139104Y681220D01*
X139068Y681247D01*
X138978Y681281D01*
X138892Y681323D01*
X138849Y681329D01*
X138804Y681346D01*
X138676Y681356D01*
X138587Y681370D01*
X131635Y681370D01*
X131540Y681357D01*
X131444Y681352D01*
X131400Y681337D01*
X131355Y681330D01*
X131268Y681291D01*
X131177Y681259D01*
X131143Y681234D01*
X131099Y681214D01*
X131001Y681131D01*
X130928Y681078D01*
X123467Y673617D01*
X123410Y673540D01*
X123345Y673469D01*
X123325Y673428D01*
X123298Y673391D01*
X123264Y673301D01*
X123222Y673215D01*
X123216Y673173D01*
X123199Y673127D01*
X123189Y673000D01*
X123175Y672910D01*
X123175Y651988D01*
X123188Y651893D01*
X123193Y651797D01*
X123208Y651754D01*
X123215Y651709D01*
X123254Y651621D01*
X123286Y651531D01*
X123311Y651496D01*
X123331Y651452D01*
X123414Y651355D01*
X123467Y651282D01*
X125175Y649574D01*
X125175Y645686D01*
X125179Y645654D01*
X125177Y645622D01*
X125199Y645515D01*
X125215Y645407D01*
X125228Y645377D01*
X125234Y645346D01*
X125286Y645249D01*
X125331Y645150D01*
X125352Y645125D01*
X125367Y645097D01*
X125443Y645019D01*
X125514Y644936D01*
X125541Y644918D01*
X125564Y644895D01*
X125659Y644841D01*
X125750Y644781D01*
X125781Y644772D01*
X125809Y644756D01*
X125915Y644731D01*
X126020Y644699D01*
X126052Y644698D01*
X126083Y644691D01*
X126193Y644696D01*
X126302Y644695D01*
X126333Y644704D01*
X126365Y644705D01*
X126468Y644741D01*
X126574Y644770D01*
X126601Y644787D01*
X126632Y644798D01*
X126705Y644851D01*
X126814Y644918D01*
X126846Y644954D01*
X126881Y644979D01*
X127776Y645875D01*
X129826Y645875D01*
X129890Y645884D01*
X129954Y645883D01*
X130029Y645904D01*
X130105Y645915D01*
X130164Y645941D01*
X130226Y645958D01*
X130292Y645999D01*
X130362Y646031D01*
X130411Y646073D01*
X130466Y646106D01*
X130518Y646164D01*
X130576Y646214D01*
X130612Y646268D01*
X130655Y646316D01*
X130688Y646385D01*
X130731Y646450D01*
X130750Y646512D01*
X130778Y646569D01*
X130789Y646639D01*
X130813Y646720D01*
X130814Y646805D01*
X130825Y646874D01*
X130825Y668812D01*
X130815Y668884D01*
X130816Y668941D01*
X130809Y668966D01*
X130807Y669003D01*
X130792Y669046D01*
X130785Y669091D01*
X130756Y669155D01*
X130740Y669213D01*
X130726Y669237D01*
X130714Y669270D01*
X130689Y669304D01*
X130669Y669348D01*
X130626Y669399D01*
X130592Y669453D01*
X130557Y669484D01*
X130533Y669519D01*
X128825Y671226D01*
X128825Y674974D01*
X131476Y677625D01*
X135224Y677625D01*
X137875Y674974D01*
X137875Y671226D01*
X136167Y669519D01*
X136148Y669493D01*
X136125Y669473D01*
X136090Y669420D01*
X136045Y669370D01*
X136025Y669329D01*
X135998Y669293D01*
X135986Y669261D01*
X135970Y669237D01*
X135953Y669179D01*
X135922Y669117D01*
X135916Y669074D01*
X135899Y669029D01*
X135896Y668993D01*
X135888Y668967D01*
X135887Y668891D01*
X135875Y668812D01*
X135875Y646874D01*
X135884Y646810D01*
X135883Y646746D01*
X135904Y646671D01*
X135915Y646595D01*
X135941Y646536D01*
X135958Y646474D01*
X135999Y646408D01*
X136031Y646338D01*
X136073Y646289D01*
X136106Y646234D01*
X136164Y646182D01*
X136214Y646124D01*
X136268Y646088D01*
X136316Y646045D01*
X136385Y646012D01*
X136450Y645969D01*
X136512Y645950D01*
X136569Y645922D01*
X136639Y645911D01*
X136720Y645887D01*
X136805Y645886D01*
X136874Y645875D01*
X140939Y645875D01*
X142012Y644802D01*
X142088Y644745D01*
X142160Y644680D01*
X142201Y644660D01*
X142237Y644633D01*
X142327Y644599D01*
X142414Y644557D01*
X142456Y644551D01*
X142501Y644534D01*
X142629Y644524D01*
X142718Y644510D01*
X185577Y644510D01*
X185672Y644523D01*
X185768Y644528D01*
X185811Y644543D01*
X185856Y644550D01*
X185944Y644589D01*
X186035Y644621D01*
X186069Y644646D01*
X186113Y644666D01*
X186210Y644749D01*
X186284Y644802D01*
X187991Y646510D01*
X191739Y646510D01*
X194390Y643859D01*
X194390Y640111D01*
X191739Y637460D01*
X187991Y637460D01*
X186284Y639168D01*
X186207Y639225D01*
X186135Y639290D01*
X186094Y639310D01*
X186058Y639337D01*
X185968Y639371D01*
X185882Y639413D01*
X185839Y639419D01*
X185794Y639436D01*
X185666Y639446D01*
X185577Y639460D01*
X143988Y639460D01*
X143893Y639447D01*
X143797Y639442D01*
X143754Y639427D01*
X143709Y639420D01*
X143621Y639381D01*
X143531Y639349D01*
X143496Y639324D01*
X143452Y639304D01*
X143355Y639221D01*
X143282Y639168D01*
X140939Y636825D01*
X137191Y636825D01*
X135064Y638952D01*
X135013Y638991D01*
X134968Y639037D01*
X134900Y639075D01*
X134838Y639121D01*
X134778Y639144D01*
X134722Y639176D01*
X134647Y639193D01*
X134575Y639221D01*
X134511Y639226D01*
X134448Y639241D01*
X134371Y639237D01*
X134293Y639243D01*
X134231Y639229D01*
X134166Y639226D01*
X134093Y639201D01*
X134017Y639185D01*
X133961Y639155D01*
X133900Y639134D01*
X133843Y639092D01*
X133768Y639053D01*
X133708Y638993D01*
X133651Y638952D01*
X131524Y636825D01*
X127776Y636825D01*
G37*
%LPD*%
G36*
X663446Y713364D02*
X663446Y713364D01*
X663479Y713362D01*
X663585Y713384D01*
X663694Y713400D01*
X663723Y713413D01*
X663755Y713419D01*
X663851Y713471D01*
X663951Y713516D01*
X663975Y713537D01*
X664004Y713552D01*
X664082Y713628D01*
X664165Y713699D01*
X664183Y713726D01*
X664206Y713749D01*
X664259Y713844D01*
X664319Y713935D01*
X664329Y713966D01*
X664345Y713994D01*
X664370Y714101D01*
X664402Y714205D01*
X664402Y714237D01*
X664410Y714268D01*
X664404Y714378D01*
X664406Y714487D01*
X664397Y714518D01*
X664395Y714550D01*
X664359Y714653D01*
X664330Y714759D01*
X664313Y714786D01*
X664303Y714817D01*
X664249Y714890D01*
X664182Y714999D01*
X664146Y715031D01*
X664121Y715066D01*
X658199Y720988D01*
X658122Y721045D01*
X658051Y721110D01*
X658010Y721130D01*
X657973Y721157D01*
X657883Y721191D01*
X657797Y721233D01*
X657755Y721239D01*
X657710Y721256D01*
X657582Y721266D01*
X657492Y721280D01*
X657256Y721280D01*
X654605Y723931D01*
X654605Y727679D01*
X656565Y729638D01*
X656584Y729664D01*
X656608Y729685D01*
X656668Y729777D01*
X656734Y729864D01*
X656745Y729894D01*
X656763Y729921D01*
X656795Y730026D01*
X656833Y730128D01*
X656836Y730160D01*
X656845Y730191D01*
X656847Y730300D01*
X656855Y730409D01*
X656849Y730441D01*
X656849Y730473D01*
X656820Y730578D01*
X656798Y730685D01*
X656782Y730714D01*
X656774Y730745D01*
X656716Y730838D01*
X656665Y730934D01*
X656643Y730957D01*
X656626Y730985D01*
X656545Y731058D01*
X656468Y731136D01*
X656440Y731152D01*
X656416Y731174D01*
X656318Y731221D01*
X656223Y731275D01*
X656192Y731283D01*
X656163Y731297D01*
X656073Y731311D01*
X655948Y731340D01*
X655900Y731338D01*
X655858Y731344D01*
X601548Y731344D01*
X601516Y731340D01*
X601484Y731342D01*
X601377Y731320D01*
X601269Y731304D01*
X601239Y731291D01*
X601208Y731285D01*
X601111Y731233D01*
X601012Y731188D01*
X600987Y731167D01*
X600959Y731152D01*
X600880Y731076D01*
X600797Y731005D01*
X600780Y730978D01*
X600757Y730955D01*
X600703Y730860D01*
X600643Y730769D01*
X600634Y730738D01*
X600618Y730710D01*
X600592Y730603D01*
X600561Y730499D01*
X600560Y730467D01*
X600553Y730436D01*
X600558Y730326D01*
X600557Y730217D01*
X600565Y730186D01*
X600567Y730154D01*
X600603Y730051D01*
X600632Y729945D01*
X600649Y729918D01*
X600660Y729887D01*
X600713Y729814D01*
X600780Y729705D01*
X600816Y729673D01*
X600841Y729638D01*
X615037Y715443D01*
X615113Y715385D01*
X615185Y715321D01*
X615226Y715301D01*
X615262Y715274D01*
X615352Y715240D01*
X615439Y715198D01*
X615481Y715191D01*
X615526Y715174D01*
X615654Y715164D01*
X615743Y715150D01*
X619790Y715150D01*
X621288Y713652D01*
X621365Y713595D01*
X621436Y713530D01*
X621477Y713510D01*
X621513Y713483D01*
X621604Y713449D01*
X621690Y713407D01*
X621732Y713401D01*
X621777Y713384D01*
X621905Y713374D01*
X621994Y713360D01*
X663414Y713360D01*
X663446Y713364D01*
G37*
%LPC*%
G36*
X1171463Y561325D02*
X1171463Y561325D01*
X1165389Y563841D01*
X1160741Y568489D01*
X1158225Y574563D01*
X1158225Y581137D01*
X1160741Y587211D01*
X1165389Y591859D01*
X1171463Y594375D01*
X1178037Y594375D01*
X1184111Y591859D01*
X1188759Y587211D01*
X1191275Y581137D01*
X1191275Y574563D01*
X1188759Y568489D01*
X1184111Y563841D01*
X1178037Y561325D01*
X1171463Y561325D01*
G37*
%LPD*%
%LPC*%
G36*
X696626Y916225D02*
X696626Y916225D01*
X693975Y918876D01*
X693975Y921290D01*
X693962Y921385D01*
X693957Y921481D01*
X693942Y921525D01*
X693935Y921570D01*
X693896Y921657D01*
X693864Y921748D01*
X693839Y921782D01*
X693819Y921826D01*
X693736Y921924D01*
X693683Y921997D01*
X659647Y956033D01*
X659570Y956090D01*
X659499Y956155D01*
X659458Y956175D01*
X659421Y956202D01*
X659331Y956236D01*
X659245Y956278D01*
X659203Y956284D01*
X659157Y956301D01*
X659030Y956311D01*
X658940Y956325D01*
X585660Y956325D01*
X585565Y956312D01*
X585469Y956307D01*
X585425Y956292D01*
X585380Y956285D01*
X585293Y956246D01*
X585202Y956214D01*
X585168Y956189D01*
X585124Y956169D01*
X585026Y956086D01*
X584953Y956033D01*
X578367Y949447D01*
X578310Y949370D01*
X578245Y949299D01*
X578225Y949258D01*
X578198Y949221D01*
X578164Y949131D01*
X578122Y949045D01*
X578116Y949003D01*
X578099Y948957D01*
X578089Y948830D01*
X578075Y948740D01*
X578075Y944088D01*
X578088Y943993D01*
X578093Y943897D01*
X578108Y943854D01*
X578115Y943809D01*
X578154Y943722D01*
X578186Y943631D01*
X578211Y943596D01*
X578231Y943552D01*
X578314Y943455D01*
X578367Y943382D01*
X579319Y942429D01*
X579345Y942410D01*
X579366Y942386D01*
X579458Y942326D01*
X579545Y942260D01*
X579575Y942249D01*
X579602Y942231D01*
X579707Y942199D01*
X579809Y942161D01*
X579841Y942158D01*
X579872Y942149D01*
X579981Y942147D01*
X580090Y942139D01*
X580122Y942145D01*
X580154Y942145D01*
X580259Y942174D01*
X580366Y942196D01*
X580395Y942212D01*
X580423Y942220D01*
X580361Y942151D01*
X580283Y942074D01*
X580267Y942046D01*
X580245Y942022D01*
X580198Y941924D01*
X580144Y941829D01*
X580136Y941798D01*
X580122Y941769D01*
X580108Y941679D01*
X580079Y941554D01*
X580081Y941506D01*
X580075Y941464D01*
X580075Y937926D01*
X577424Y935275D01*
X573676Y935275D01*
X571025Y937926D01*
X571025Y941674D01*
X572733Y943382D01*
X572790Y943458D01*
X572855Y943530D01*
X572875Y943571D01*
X572902Y943607D01*
X572936Y943697D01*
X572978Y943784D01*
X572984Y943826D01*
X573001Y943871D01*
X573011Y943999D01*
X573025Y944088D01*
X573025Y951246D01*
X583154Y961375D01*
X661446Y961375D01*
X697253Y925567D01*
X697330Y925510D01*
X697401Y925445D01*
X697442Y925425D01*
X697479Y925398D01*
X697569Y925364D01*
X697655Y925322D01*
X697697Y925316D01*
X697743Y925299D01*
X697870Y925289D01*
X697960Y925275D01*
X700374Y925275D01*
X703025Y922624D01*
X703025Y918876D01*
X700374Y916225D01*
X696626Y916225D01*
G37*
%LPD*%
G36*
X708313Y648341D02*
X708313Y648341D01*
X708422Y648339D01*
X708453Y648348D01*
X708485Y648350D01*
X708588Y648385D01*
X708694Y648415D01*
X708721Y648432D01*
X708752Y648442D01*
X708825Y648495D01*
X708934Y648563D01*
X708966Y648599D01*
X709001Y648624D01*
X718491Y658115D01*
X731452Y658115D01*
X731547Y658128D01*
X731644Y658133D01*
X731687Y658148D01*
X731732Y658155D01*
X731819Y658194D01*
X731910Y658226D01*
X731944Y658251D01*
X731989Y658271D01*
X732086Y658354D01*
X732159Y658407D01*
X738593Y664841D01*
X738650Y664918D01*
X738715Y664989D01*
X738735Y665030D01*
X738762Y665067D01*
X738796Y665157D01*
X738838Y665243D01*
X738844Y665285D01*
X738861Y665330D01*
X738871Y665458D01*
X738885Y665548D01*
X738885Y674386D01*
X738876Y674450D01*
X738877Y674514D01*
X738856Y674589D01*
X738845Y674665D01*
X738819Y674724D01*
X738802Y674786D01*
X738761Y674852D01*
X738729Y674922D01*
X738687Y674971D01*
X738654Y675026D01*
X738596Y675078D01*
X738546Y675136D01*
X738492Y675172D01*
X738444Y675215D01*
X738375Y675248D01*
X738310Y675291D01*
X738248Y675310D01*
X738191Y675338D01*
X738121Y675349D01*
X738040Y675373D01*
X737955Y675374D01*
X737886Y675385D01*
X688548Y675385D01*
X688453Y675372D01*
X688357Y675367D01*
X688314Y675352D01*
X688269Y675345D01*
X688181Y675306D01*
X688090Y675274D01*
X688056Y675249D01*
X688012Y675229D01*
X687915Y675146D01*
X687841Y675093D01*
X687674Y674925D01*
X687418Y674925D01*
X687386Y674921D01*
X687354Y674923D01*
X687247Y674901D01*
X687138Y674885D01*
X687109Y674872D01*
X687077Y674866D01*
X686981Y674814D01*
X686881Y674769D01*
X686857Y674748D01*
X686829Y674733D01*
X686750Y674657D01*
X686667Y674586D01*
X686650Y674559D01*
X686626Y674536D01*
X686573Y674441D01*
X686513Y674350D01*
X686503Y674319D01*
X686487Y674291D01*
X686462Y674184D01*
X686430Y674080D01*
X686430Y674048D01*
X686422Y674017D01*
X686428Y673907D01*
X686427Y673798D01*
X686435Y673767D01*
X686437Y673735D01*
X686473Y673632D01*
X686502Y673526D01*
X686519Y673499D01*
X686529Y673468D01*
X686583Y673395D01*
X686650Y673286D01*
X686686Y673254D01*
X686711Y673219D01*
X705295Y654636D01*
X705295Y652523D01*
X705308Y652428D01*
X705313Y652332D01*
X705328Y652289D01*
X705335Y652244D01*
X705374Y652156D01*
X705406Y652066D01*
X705431Y652031D01*
X705451Y651987D01*
X705534Y651890D01*
X705587Y651817D01*
X707295Y650109D01*
X707295Y649330D01*
X707299Y649299D01*
X707297Y649266D01*
X707319Y649159D01*
X707335Y649051D01*
X707348Y649022D01*
X707354Y648990D01*
X707406Y648894D01*
X707451Y648794D01*
X707472Y648770D01*
X707487Y648741D01*
X707563Y648663D01*
X707634Y648580D01*
X707661Y648562D01*
X707684Y648539D01*
X707779Y648485D01*
X707870Y648426D01*
X707901Y648416D01*
X707929Y648400D01*
X708036Y648375D01*
X708140Y648343D01*
X708172Y648343D01*
X708203Y648335D01*
X708313Y648341D01*
G37*
G36*
X607056Y539869D02*
X607056Y539869D01*
X607088Y539867D01*
X607195Y539889D01*
X607303Y539905D01*
X607333Y539918D01*
X607364Y539924D01*
X607460Y539976D01*
X607560Y540021D01*
X607585Y540042D01*
X607613Y540057D01*
X607691Y540133D01*
X607774Y540204D01*
X607792Y540231D01*
X607815Y540254D01*
X607869Y540349D01*
X607929Y540440D01*
X607938Y540471D01*
X607954Y540499D01*
X607979Y540605D01*
X608011Y540710D01*
X608012Y540742D01*
X608019Y540773D01*
X608014Y540883D01*
X608015Y540992D01*
X608006Y541023D01*
X608005Y541055D01*
X607969Y541158D01*
X607940Y541264D01*
X607923Y541291D01*
X607912Y541322D01*
X607859Y541395D01*
X607792Y541504D01*
X607756Y541536D01*
X607731Y541571D01*
X605075Y544226D01*
X605075Y547974D01*
X606783Y549682D01*
X606840Y549758D01*
X606905Y549830D01*
X606925Y549871D01*
X606952Y549907D01*
X606986Y549997D01*
X607028Y550084D01*
X607034Y550126D01*
X607051Y550171D01*
X607061Y550299D01*
X607075Y550388D01*
X607075Y569342D01*
X607071Y569374D01*
X607073Y569406D01*
X607051Y569513D01*
X607035Y569622D01*
X607022Y569651D01*
X607016Y569683D01*
X606964Y569779D01*
X606919Y569879D01*
X606898Y569903D01*
X606883Y569931D01*
X606807Y570010D01*
X606736Y570093D01*
X606709Y570110D01*
X606686Y570134D01*
X606591Y570187D01*
X606500Y570247D01*
X606469Y570257D01*
X606441Y570273D01*
X606334Y570298D01*
X606230Y570330D01*
X606198Y570330D01*
X606167Y570338D01*
X606057Y570332D01*
X605948Y570333D01*
X605917Y570325D01*
X605885Y570323D01*
X605782Y570287D01*
X605676Y570258D01*
X605649Y570241D01*
X605618Y570231D01*
X605545Y570177D01*
X605436Y570110D01*
X605404Y570074D01*
X605369Y570049D01*
X585881Y550560D01*
X575788Y550560D01*
X575693Y550547D01*
X575597Y550542D01*
X575554Y550527D01*
X575509Y550520D01*
X575421Y550481D01*
X575331Y550449D01*
X575296Y550424D01*
X575252Y550404D01*
X575155Y550321D01*
X575082Y550268D01*
X573374Y548560D01*
X570851Y548560D01*
X570819Y548556D01*
X570786Y548558D01*
X570680Y548536D01*
X570571Y548520D01*
X570542Y548507D01*
X570510Y548501D01*
X570414Y548449D01*
X570314Y548404D01*
X570290Y548383D01*
X570261Y548368D01*
X570183Y548292D01*
X570100Y548221D01*
X570082Y548194D01*
X570059Y548171D01*
X570006Y548076D01*
X569946Y547985D01*
X569936Y547954D01*
X569920Y547926D01*
X569895Y547819D01*
X569863Y547715D01*
X569863Y547683D01*
X569855Y547652D01*
X569861Y547542D01*
X569859Y547433D01*
X569868Y547402D01*
X569870Y547370D01*
X569906Y547267D01*
X569935Y547161D01*
X569952Y547134D01*
X569962Y547103D01*
X570015Y547030D01*
X570083Y546921D01*
X570119Y546889D01*
X570144Y546854D01*
X576841Y540157D01*
X576918Y540100D01*
X576989Y540035D01*
X577030Y540015D01*
X577067Y539988D01*
X577157Y539954D01*
X577243Y539912D01*
X577285Y539906D01*
X577330Y539889D01*
X577458Y539879D01*
X577548Y539865D01*
X607024Y539865D01*
X607056Y539869D01*
G37*
%LPC*%
G36*
X332136Y855900D02*
X332136Y855900D01*
X329485Y858551D01*
X329485Y862299D01*
X331002Y863816D01*
X331059Y863892D01*
X331124Y863964D01*
X331144Y864005D01*
X331171Y864041D01*
X331205Y864131D01*
X331247Y864218D01*
X331253Y864260D01*
X331270Y864305D01*
X331280Y864433D01*
X331294Y864522D01*
X331294Y872683D01*
X331285Y872745D01*
X331286Y872788D01*
X331279Y872814D01*
X331276Y872875D01*
X331261Y872918D01*
X331254Y872963D01*
X331215Y873050D01*
X331183Y873141D01*
X331158Y873175D01*
X331138Y873220D01*
X331055Y873317D01*
X331002Y873390D01*
X324559Y879833D01*
X324482Y879890D01*
X324411Y879955D01*
X324370Y879975D01*
X324333Y880002D01*
X324243Y880036D01*
X324157Y880078D01*
X324115Y880084D01*
X324070Y880101D01*
X323942Y880111D01*
X323852Y880125D01*
X302738Y880125D01*
X302643Y880112D01*
X302547Y880107D01*
X302504Y880092D01*
X302459Y880085D01*
X302371Y880046D01*
X302280Y880014D01*
X302246Y879989D01*
X302202Y879969D01*
X302105Y879886D01*
X302031Y879833D01*
X300324Y878125D01*
X296576Y878125D01*
X293925Y880776D01*
X293925Y884524D01*
X296576Y887175D01*
X300324Y887175D01*
X302031Y885467D01*
X302108Y885410D01*
X302180Y885345D01*
X302221Y885325D01*
X302257Y885298D01*
X302347Y885264D01*
X302433Y885222D01*
X302476Y885216D01*
X302521Y885199D01*
X302649Y885189D01*
X302738Y885175D01*
X326358Y885175D01*
X336344Y875189D01*
X336344Y864904D01*
X336357Y864809D01*
X336362Y864713D01*
X336377Y864670D01*
X336384Y864625D01*
X336423Y864537D01*
X336455Y864447D01*
X336480Y864412D01*
X336500Y864368D01*
X336583Y864271D01*
X336636Y864198D01*
X338535Y862299D01*
X338535Y858551D01*
X335884Y855900D01*
X332136Y855900D01*
G37*
%LPD*%
%LPC*%
G36*
X118776Y732075D02*
X118776Y732075D01*
X116125Y734726D01*
X116125Y738474D01*
X118776Y741125D01*
X119012Y741125D01*
X119107Y741138D01*
X119204Y741143D01*
X119247Y741158D01*
X119292Y741165D01*
X119379Y741204D01*
X119470Y741236D01*
X119504Y741261D01*
X119549Y741281D01*
X119646Y741364D01*
X119719Y741417D01*
X125316Y747015D01*
X143302Y747015D01*
X143397Y747028D01*
X143493Y747033D01*
X143536Y747048D01*
X143581Y747055D01*
X143669Y747094D01*
X143759Y747126D01*
X143794Y747151D01*
X143838Y747171D01*
X143935Y747254D01*
X144008Y747307D01*
X144176Y747475D01*
X147924Y747475D01*
X150575Y744824D01*
X150575Y741076D01*
X147924Y738425D01*
X144176Y738425D01*
X144008Y738593D01*
X143932Y738650D01*
X143860Y738715D01*
X143819Y738735D01*
X143783Y738762D01*
X143693Y738796D01*
X143606Y738838D01*
X143564Y738844D01*
X143519Y738861D01*
X143391Y738871D01*
X143302Y738885D01*
X129098Y738885D01*
X129003Y738872D01*
X128906Y738867D01*
X128863Y738852D01*
X128818Y738845D01*
X128731Y738806D01*
X128640Y738774D01*
X128606Y738749D01*
X128561Y738729D01*
X128464Y738646D01*
X128391Y738593D01*
X125467Y735669D01*
X125410Y735592D01*
X125345Y735521D01*
X125325Y735480D01*
X125298Y735443D01*
X125264Y735353D01*
X125222Y735267D01*
X125216Y735225D01*
X125199Y735180D01*
X125189Y735052D01*
X125175Y734962D01*
X125175Y734726D01*
X122524Y732075D01*
X118776Y732075D01*
G37*
%LPD*%
%LPC*%
G36*
X690276Y808275D02*
X690276Y808275D01*
X687625Y810926D01*
X687625Y814674D01*
X690276Y817325D01*
X692690Y817325D01*
X692785Y817338D01*
X692881Y817343D01*
X692925Y817358D01*
X692970Y817365D01*
X693057Y817404D01*
X693148Y817436D01*
X693182Y817461D01*
X693226Y817481D01*
X693324Y817564D01*
X693397Y817617D01*
X695683Y819903D01*
X695740Y819980D01*
X695805Y820051D01*
X695825Y820092D01*
X695852Y820129D01*
X695886Y820219D01*
X695928Y820305D01*
X695934Y820347D01*
X695951Y820393D01*
X695961Y820520D01*
X695975Y820610D01*
X695975Y840262D01*
X695962Y840357D01*
X695957Y840453D01*
X695942Y840496D01*
X695935Y840541D01*
X695896Y840629D01*
X695864Y840719D01*
X695839Y840754D01*
X695819Y840798D01*
X695736Y840895D01*
X695683Y840968D01*
X693975Y842676D01*
X693975Y846424D01*
X696626Y849075D01*
X700374Y849075D01*
X703025Y846424D01*
X703025Y842676D01*
X701317Y840968D01*
X701260Y840892D01*
X701195Y840820D01*
X701175Y840779D01*
X701148Y840743D01*
X701114Y840653D01*
X701072Y840566D01*
X701066Y840524D01*
X701049Y840479D01*
X701039Y840351D01*
X701025Y840262D01*
X701025Y818104D01*
X696967Y814047D01*
X696910Y813970D01*
X696845Y813899D01*
X696825Y813858D01*
X696798Y813821D01*
X696764Y813731D01*
X696722Y813645D01*
X696716Y813603D01*
X696699Y813557D01*
X696689Y813430D01*
X696675Y813340D01*
X696675Y810926D01*
X694024Y808275D01*
X690276Y808275D01*
G37*
%LPD*%
G36*
X585122Y635627D02*
X585122Y635627D01*
X585154Y635627D01*
X585259Y635656D01*
X585366Y635678D01*
X585395Y635693D01*
X585426Y635702D01*
X585519Y635759D01*
X585615Y635811D01*
X585638Y635833D01*
X585666Y635850D01*
X585739Y635931D01*
X585817Y636007D01*
X585833Y636035D01*
X585855Y636059D01*
X585902Y636158D01*
X585956Y636253D01*
X585964Y636284D01*
X585978Y636313D01*
X585992Y636402D01*
X586021Y636527D01*
X586019Y636576D01*
X586025Y636618D01*
X586025Y639350D01*
X586012Y639445D01*
X586007Y639541D01*
X585992Y639585D01*
X585985Y639630D01*
X585946Y639717D01*
X585914Y639808D01*
X585889Y639842D01*
X585869Y639886D01*
X585786Y639984D01*
X585733Y640057D01*
X582310Y643479D01*
X582310Y654876D01*
X582302Y654935D01*
X582302Y654952D01*
X582301Y654954D01*
X582302Y655004D01*
X582281Y655079D01*
X582270Y655155D01*
X582244Y655214D01*
X582227Y655276D01*
X582186Y655342D01*
X582154Y655412D01*
X582112Y655461D01*
X582079Y655516D01*
X582021Y655568D01*
X581971Y655626D01*
X581917Y655662D01*
X581869Y655705D01*
X581800Y655738D01*
X581735Y655781D01*
X581673Y655800D01*
X581616Y655828D01*
X581546Y655839D01*
X581465Y655863D01*
X581380Y655864D01*
X581311Y655875D01*
X577246Y655875D01*
X575538Y657583D01*
X575462Y657640D01*
X575390Y657705D01*
X575349Y657725D01*
X575313Y657752D01*
X575223Y657786D01*
X575136Y657828D01*
X575094Y657834D01*
X575049Y657851D01*
X574921Y657861D01*
X574832Y657875D01*
X566644Y657875D01*
X564397Y660123D01*
X564320Y660180D01*
X564249Y660245D01*
X564208Y660265D01*
X564171Y660292D01*
X564081Y660326D01*
X563995Y660368D01*
X563953Y660374D01*
X563907Y660391D01*
X563780Y660401D01*
X563690Y660415D01*
X562228Y660415D01*
X562196Y660411D01*
X562164Y660413D01*
X562057Y660391D01*
X561948Y660375D01*
X561919Y660362D01*
X561887Y660356D01*
X561791Y660304D01*
X561691Y660259D01*
X561667Y660238D01*
X561638Y660223D01*
X561560Y660147D01*
X561477Y660076D01*
X561460Y660049D01*
X561436Y660026D01*
X561383Y659932D01*
X561323Y659840D01*
X561313Y659809D01*
X561297Y659781D01*
X561272Y659675D01*
X561240Y659570D01*
X561240Y659538D01*
X561232Y659507D01*
X561238Y659397D01*
X561237Y659288D01*
X561245Y659257D01*
X561247Y659225D01*
X561283Y659122D01*
X561312Y659016D01*
X561329Y658989D01*
X561339Y658958D01*
X561393Y658885D01*
X561460Y658776D01*
X561496Y658744D01*
X561521Y658709D01*
X562252Y657978D01*
X584319Y635911D01*
X584345Y635892D01*
X584366Y635867D01*
X584458Y635807D01*
X584545Y635742D01*
X584575Y635730D01*
X584602Y635713D01*
X584707Y635681D01*
X584809Y635642D01*
X584841Y635640D01*
X584872Y635630D01*
X584981Y635629D01*
X585090Y635620D01*
X585122Y635627D01*
G37*
%LPC*%
G36*
X808057Y943499D02*
X808057Y943499D01*
X805668Y944489D01*
X803839Y946318D01*
X802849Y948707D01*
X802849Y951293D01*
X803839Y953682D01*
X805668Y955511D01*
X808057Y956501D01*
X810643Y956501D01*
X813032Y955511D01*
X814861Y953682D01*
X815851Y951293D01*
X815851Y948707D01*
X814861Y946318D01*
X813032Y944489D01*
X810643Y943499D01*
X808057Y943499D01*
G37*
%LPD*%
%LPC*%
G36*
X738606Y757499D02*
X738606Y757499D01*
X736584Y758337D01*
X735037Y759884D01*
X734199Y761906D01*
X734199Y764094D01*
X735037Y766116D01*
X736584Y767663D01*
X738606Y768501D01*
X740794Y768501D01*
X742816Y767663D01*
X744363Y766116D01*
X745201Y764094D01*
X745201Y761906D01*
X744363Y759884D01*
X742816Y758337D01*
X740794Y757499D01*
X738606Y757499D01*
G37*
%LPD*%
D10*
X977900Y315550D03*
X977900Y230550D03*
X736600Y315550D03*
X736600Y230550D03*
X495300Y315550D03*
X495300Y230550D03*
X254000Y315550D03*
X254000Y230550D03*
D11*
X504750Y25400D03*
X568250Y25400D03*
X631750Y25400D03*
X695250Y25400D03*
D12*
X480000Y50800D03*
D13*
X480000Y77050D03*
X466875Y73533D03*
X457267Y63925D03*
X453750Y50800D03*
X457267Y37675D03*
X466875Y28067D03*
X480000Y24550D03*
X493125Y28067D03*
X502733Y37675D03*
X506250Y50800D03*
X502733Y63925D03*
X493125Y73533D03*
D12*
X560000Y63500D03*
D13*
X560000Y89750D03*
X546875Y86233D03*
X537267Y76625D03*
X533750Y63500D03*
X537267Y50375D03*
X546875Y40767D03*
X560000Y37250D03*
X573125Y40767D03*
X582733Y50375D03*
X586250Y63500D03*
X582733Y76625D03*
X573125Y86233D03*
D12*
X640000Y63500D03*
D13*
X640000Y89750D03*
X626875Y86233D03*
X617267Y76625D03*
X613750Y63500D03*
X617267Y50375D03*
X626875Y40767D03*
X640000Y37250D03*
X653125Y40767D03*
X662733Y50375D03*
X666250Y63500D03*
X662733Y76625D03*
X653125Y86233D03*
D12*
X720000Y50800D03*
D13*
X720000Y77050D03*
X706875Y73533D03*
X697267Y63925D03*
X693750Y50800D03*
X697267Y37675D03*
X706875Y28067D03*
X720000Y24550D03*
X733125Y28067D03*
X742733Y37675D03*
X746250Y50800D03*
X742733Y63925D03*
X733125Y73533D03*
D11*
X1174750Y82550D03*
X1174750Y146050D03*
X1174750Y514350D03*
X1174750Y577850D03*
X25400Y146050D03*
X25400Y82550D03*
D12*
X50800Y171450D03*
D13*
X77050Y171450D03*
X73533Y184575D03*
X63925Y194183D03*
X50800Y197700D03*
X37675Y194183D03*
X28067Y184575D03*
X24550Y171450D03*
X28067Y158325D03*
X37675Y148717D03*
X50800Y145200D03*
X63925Y148717D03*
X73533Y158325D03*
D12*
X50800Y57150D03*
D13*
X77050Y57150D03*
X73533Y70275D03*
X63925Y79883D03*
X50800Y83400D03*
X37675Y79883D03*
X28067Y70275D03*
X24550Y57150D03*
X28067Y44025D03*
X37675Y34417D03*
X50800Y30900D03*
X63925Y34417D03*
X73533Y44025D03*
D12*
X1149350Y171450D03*
D13*
X1175600Y171450D03*
X1172083Y184575D03*
X1162475Y194183D03*
X1149350Y197700D03*
X1136225Y194183D03*
X1126617Y184575D03*
X1123100Y171450D03*
X1126617Y158325D03*
X1136225Y148717D03*
X1149350Y145200D03*
X1162475Y148717D03*
X1172083Y158325D03*
D12*
X1149350Y57150D03*
D13*
X1175600Y57150D03*
X1172083Y70275D03*
X1162475Y79883D03*
X1149350Y83400D03*
X1136225Y79883D03*
X1126617Y70275D03*
X1123100Y57150D03*
X1126617Y44025D03*
X1136225Y34417D03*
X1149350Y30900D03*
X1162475Y34417D03*
X1172083Y44025D03*
D14*
X706750Y640495D03*
X685800Y679450D03*
D15*
X742950Y679450D01*
D14*
X742950Y679450D03*
X669290Y709295D03*
D15*
X669290Y695960D01*
X685800Y679450D01*
D14*
X617916Y710626D03*
D15*
X619246Y709295D01*
X669290Y709295D01*
D14*
X659130Y725805D03*
D15*
X669290Y715645D01*
X669290Y709295D01*
X742950Y679450D02*
X774700Y679450D01*
X825500Y628650D02*
X838200Y628650D01*
X825500Y628650D02*
X774700Y679450D01*
D14*
X838200Y628650D03*
X831850Y687065D03*
D15*
X820415Y698500D01*
X806450Y698500D01*
D14*
X806450Y698500D03*
D15*
X755650Y749300D01*
X755650Y793750D02*
X723900Y825500D01*
X755650Y793750D02*
X755650Y749300D01*
X723900Y838200D02*
X730250Y844550D01*
X723900Y838200D02*
X723900Y825500D01*
X730250Y844550D02*
X749300Y844550D01*
X755650Y838200D01*
D14*
X755650Y838200D03*
X781050Y882650D03*
D15*
X781050Y850900D01*
X768350Y838200D01*
X755650Y838200D01*
D14*
X958850Y939800D03*
D15*
X838200Y939800D01*
X781050Y882650D01*
X838200Y680715D02*
X838200Y628650D01*
X838200Y680715D02*
X831850Y687065D01*
X706750Y640495D02*
X706750Y605560D01*
X695350Y594160D01*
D14*
X695350Y594160D03*
D15*
X654050Y552860D01*
D16*
X654050Y552450D01*
D14*
X654050Y552450D03*
D15*
X617916Y710626D02*
X614106Y710626D01*
X511931Y812800D01*
X501650Y812800D01*
D14*
X501650Y812800D03*
D15*
X184150Y812800D01*
X158750Y838200D01*
X114300Y838200D01*
D14*
X114300Y838200D03*
X361950Y889000D03*
D15*
X368300Y895350D01*
X482600Y895350D01*
X488950Y889000D01*
D14*
X488950Y889000D03*
D15*
X114300Y838200D02*
X101600Y825500D01*
X101600Y723900D02*
X114300Y711200D01*
D14*
X114300Y711200D03*
D15*
X101600Y723900D02*
X101600Y825500D01*
D14*
X228600Y495300D03*
X1066800Y546100D03*
D15*
X993775Y495300D02*
X752475Y495300D01*
X1066800Y517525D02*
X1066800Y546100D01*
X1066800Y517525D02*
X1044575Y495300D01*
X993775Y495300D01*
D14*
X993775Y495300D03*
X752475Y495300D03*
D15*
X511175Y495300D01*
D14*
X511175Y495300D03*
D15*
X269875Y495300D02*
X228600Y495300D01*
D14*
X269875Y495300D03*
D15*
X511175Y495300D01*
X742950Y663450D02*
X742950Y679450D01*
X742950Y663450D02*
X733550Y654050D01*
X720175Y654050D01*
X706750Y640625D02*
X706750Y640495D01*
X706750Y640625D02*
X720175Y654050D01*
D14*
X95885Y311785D03*
X103505Y311785D03*
X111125Y311785D03*
X95885Y303911D03*
X103505Y303911D03*
X111125Y303911D03*
X111125Y296037D03*
X103505Y296037D03*
X95885Y296037D03*
X95885Y288163D03*
X103505Y288163D03*
X111125Y288163D03*
X95885Y280289D03*
X103505Y280289D03*
X111125Y280289D03*
X95885Y272415D03*
X103505Y272415D03*
X111125Y272415D03*
X222885Y312420D03*
X230505Y312420D03*
X238125Y312420D03*
X222885Y304546D03*
X230505Y304546D03*
X238125Y304546D03*
X238125Y296672D03*
X230505Y296672D03*
X222885Y296672D03*
X222885Y288798D03*
X230505Y288798D03*
X238125Y288798D03*
X222885Y280924D03*
X230505Y280924D03*
X238125Y280924D03*
X222885Y273050D03*
X230505Y273050D03*
X238125Y273050D03*
X705485Y311150D03*
X713105Y311150D03*
X720725Y311150D03*
X705485Y303276D03*
X713105Y303276D03*
X720725Y303276D03*
X720725Y295402D03*
X713105Y295402D03*
X705485Y295402D03*
X705485Y287528D03*
X713105Y287528D03*
X720725Y287528D03*
X705485Y279654D03*
X713105Y279654D03*
X720725Y279654D03*
X705485Y271780D03*
X713105Y271780D03*
X720725Y271780D03*
X946785Y312420D03*
X954405Y312420D03*
X962025Y312420D03*
X946785Y304546D03*
X954405Y304546D03*
X962025Y304546D03*
X962025Y296672D03*
X954405Y296672D03*
X946785Y296672D03*
X946785Y288798D03*
X954405Y288798D03*
X962025Y288798D03*
X946785Y280924D03*
X954405Y280924D03*
X962025Y280924D03*
X946785Y273050D03*
X954405Y273050D03*
X962025Y273050D03*
X462915Y312420D03*
X470535Y312420D03*
X478155Y312420D03*
X462915Y304546D03*
X470535Y304546D03*
X478155Y304546D03*
X478155Y296672D03*
X470535Y296672D03*
X462915Y296672D03*
X462915Y288798D03*
X470535Y288798D03*
X478155Y288798D03*
X462915Y280924D03*
X470535Y280924D03*
X478155Y280924D03*
X462915Y273050D03*
X470535Y273050D03*
X478155Y273050D03*
X469900Y368300D03*
X1114425Y434975D03*
X681355Y434975D03*
X873125Y434975D03*
X193675Y454025D03*
X659130Y656590D03*
X633730Y631190D03*
X646430Y631190D03*
X659130Y631190D03*
X659130Y618490D03*
X646430Y618490D03*
X633730Y618490D03*
X633730Y643890D03*
X646430Y643890D03*
X659130Y643890D03*
X646430Y656590D03*
X633730Y656590D03*
X633730Y669290D03*
X646430Y669290D03*
X659130Y669290D03*
X659130Y681990D03*
X646430Y681990D03*
X633730Y681990D03*
X318300Y536100D03*
X324650Y542900D03*
X331000Y549250D03*
X337350Y555600D03*
X723900Y869950D03*
X736600Y869950D03*
X723900Y857250D03*
X736600Y857250D03*
X145950Y860850D03*
X273050Y571500D03*
X311150Y552450D03*
X317500Y558800D03*
X304800Y546100D03*
X298450Y539750D03*
X336550Y533400D03*
X342900Y539750D03*
X349250Y546100D03*
X241300Y539750D03*
X247650Y546100D03*
X254000Y552450D03*
X260350Y558800D03*
X266700Y565150D03*
X234950Y571500D03*
X241300Y577850D03*
X247650Y584200D03*
X215900Y539750D03*
X222250Y546100D03*
X292100Y692150D03*
X285750Y698500D03*
X279400Y704850D03*
X260350Y723900D03*
X254000Y730250D03*
X247650Y736600D03*
X228600Y755650D03*
X222250Y762000D03*
X215900Y768350D03*
X196850Y787400D03*
X190500Y793750D03*
X184150Y800100D03*
X260350Y781050D03*
X254000Y787400D03*
X247650Y793750D03*
X292100Y749300D03*
X285750Y755650D03*
X279400Y762000D03*
X323850Y717550D03*
X317500Y723900D03*
X311150Y730250D03*
X355600Y685800D03*
X349250Y692150D03*
X342900Y698500D03*
X400050Y641350D03*
X393700Y647700D03*
X387350Y654050D03*
X419100Y647700D03*
X425450Y654050D03*
X431800Y660400D03*
X444500Y647700D03*
X438150Y641350D03*
X431800Y635000D03*
X355600Y635000D03*
X349250Y641350D03*
X342900Y647700D03*
X260350Y666750D03*
X254000Y673100D03*
X247650Y679450D03*
X228600Y698500D03*
X222250Y704850D03*
X215900Y711200D03*
X196850Y730250D03*
X190500Y736600D03*
X184150Y742950D03*
X177800Y660400D03*
X171450Y666750D03*
X165100Y673100D03*
X222250Y628650D03*
X215900Y635000D03*
X209550Y641350D03*
X196850Y603250D03*
X190500Y609600D03*
X184150Y615950D03*
X184150Y533400D03*
X190500Y539750D03*
X196850Y546100D03*
X133350Y539750D03*
X139700Y546100D03*
X146050Y552450D03*
X101600Y508000D03*
X107950Y514350D03*
X114300Y520700D03*
X152400Y501650D03*
X158750Y508000D03*
X165100Y514350D03*
X38100Y469900D03*
X31750Y476250D03*
X25400Y482600D03*
X38100Y577850D03*
X44450Y584200D03*
X50800Y590550D03*
X44450Y730250D03*
X50800Y736600D03*
X57150Y742950D03*
X82550Y850900D03*
X76200Y857250D03*
X69850Y863600D03*
X88900Y844550D03*
X95250Y850900D03*
X101600Y857250D03*
X190500Y838200D03*
X184150Y844550D03*
X177800Y850900D03*
X228600Y939800D03*
X222250Y946150D03*
X215900Y952500D03*
X209550Y958850D03*
X203200Y965200D03*
X196850Y971550D03*
X393700Y946150D03*
X387350Y952500D03*
X381000Y958850D03*
X520700Y869950D03*
X514350Y876300D03*
X508000Y882650D03*
X552450Y838200D03*
X546100Y844550D03*
X539750Y850900D03*
X508000Y793750D03*
X501650Y800100D03*
X539750Y762000D03*
X533400Y768350D03*
X527050Y774700D03*
X584200Y806450D03*
X577850Y812800D03*
X571500Y819150D03*
X596900Y869950D03*
X590550Y876300D03*
X584200Y882650D03*
X641350Y914400D03*
X635000Y920750D03*
X628650Y927100D03*
X660400Y939800D03*
X654050Y933450D03*
X647700Y927100D03*
X666750Y781050D03*
X673100Y787400D03*
X679450Y793750D03*
X742950Y781050D03*
X736600Y787400D03*
X730250Y793750D03*
X819150Y609600D03*
X825500Y615950D03*
X844550Y577850D03*
X838200Y571500D03*
X831850Y565150D03*
X882650Y584200D03*
X876300Y590550D03*
X869950Y596900D03*
X965200Y520700D03*
X958850Y514350D03*
X952500Y508000D03*
X1104900Y469900D03*
X1111250Y476250D03*
X1117600Y482600D03*
X1143000Y450850D03*
X1149350Y457200D03*
X1155700Y463550D03*
X1155700Y533400D03*
X1162050Y539750D03*
X1168400Y546100D03*
X1130300Y558800D03*
X1136650Y565150D03*
X1143000Y571500D03*
X1073150Y558800D03*
X1066800Y565150D03*
X1060450Y571500D03*
X1162050Y622300D03*
X1155700Y628650D03*
X1149350Y635000D03*
X1149350Y685800D03*
X1155700Y692150D03*
X1162050Y698500D03*
X1085850Y692150D03*
X1092200Y698500D03*
X1098550Y704850D03*
X952500Y685800D03*
X958850Y692150D03*
X965200Y698500D03*
X996950Y730250D03*
X1003300Y736600D03*
X1009650Y742950D03*
X720100Y729250D03*
X726450Y735600D03*
X707850Y739250D03*
X714200Y745600D03*
X844550Y793750D03*
X850900Y800100D03*
X857250Y806450D03*
X952500Y755650D03*
X958850Y762000D03*
X965200Y768350D03*
X1079500Y755650D03*
X1085850Y762000D03*
X1092200Y768350D03*
X1162050Y787400D03*
X1155700Y793750D03*
X1149350Y800100D03*
X1130300Y819150D03*
X1123950Y825500D03*
X1117600Y831850D03*
X1155700Y844550D03*
X1149350Y850900D03*
X1143000Y857250D03*
X1187450Y812800D03*
X1181100Y819150D03*
X1174750Y825500D03*
X876300Y825500D03*
X882650Y831850D03*
X889000Y838200D03*
X863600Y863600D03*
X869950Y869950D03*
X876300Y876300D03*
X882650Y882650D03*
X889000Y889000D03*
X895350Y895350D03*
X908050Y857250D03*
X914400Y863600D03*
X920750Y869950D03*
X990600Y850900D03*
X996950Y857250D03*
X1003300Y863600D03*
X984250Y876300D03*
X990600Y882650D03*
X996950Y889000D03*
X1009650Y901700D03*
X1016000Y908050D03*
X1022350Y914400D03*
X971550Y901700D03*
X977900Y908050D03*
X984250Y914400D03*
X990600Y920750D03*
X996950Y927100D03*
X546100Y539750D03*
X552450Y546100D03*
X560800Y534400D03*
X588750Y544000D03*
X595100Y550350D03*
X601450Y556700D03*
X107950Y392113D03*
X228600Y368300D03*
X711200Y368300D03*
X952500Y368300D03*
X572600Y654550D03*
X606500Y728250D03*
X733350Y671900D03*
X586200Y528050D03*
X576550Y528150D03*
X638200Y524400D03*
X643850Y517950D03*
X675100Y521700D03*
X687800Y521700D03*
X700500Y521700D03*
X713200Y521700D03*
X725900Y521700D03*
X471900Y540750D03*
X484600Y540750D03*
X497300Y540750D03*
X510000Y540750D03*
X471900Y623300D03*
X484600Y623300D03*
X497300Y623300D03*
X510000Y623300D03*
X402050Y686800D03*
X414750Y686800D03*
X427450Y686800D03*
X440150Y686800D03*
X243300Y445500D03*
X256000Y445500D03*
X268700Y445500D03*
X281400Y445500D03*
X294100Y445500D03*
X97250Y432800D03*
X109950Y432800D03*
X122650Y432800D03*
X484600Y445500D03*
X497300Y445500D03*
X510000Y445500D03*
X522700Y445500D03*
X535400Y445500D03*
X725900Y445500D03*
X738600Y445500D03*
X751300Y445500D03*
X764000Y445500D03*
X776700Y445500D03*
X967200Y445500D03*
X979900Y445500D03*
X992600Y445500D03*
X1005300Y445500D03*
X852900Y477250D03*
X865600Y477250D03*
X878300Y477250D03*
X891000Y477250D03*
X852900Y509000D03*
X865600Y509000D03*
X878300Y509000D03*
X891000Y509000D03*
X852900Y534400D03*
X865600Y534400D03*
X878300Y534400D03*
X891000Y534400D03*
X852900Y559800D03*
X865600Y559800D03*
X878300Y559800D03*
X891000Y559800D03*
X888000Y687800D03*
X888000Y700500D03*
X888000Y713200D03*
X888000Y725900D03*
X1081500Y902700D03*
X1094200Y902700D03*
X1106900Y902700D03*
X1119600Y902700D03*
X1180100Y878300D03*
X1180100Y891000D03*
X1180100Y903700D03*
X1180100Y916400D03*
X802900Y810100D03*
X812100Y809900D03*
X808250Y836250D03*
X814600Y842600D03*
X1075150Y985250D03*
X1087850Y985250D03*
X1100550Y985250D03*
X1113250Y985250D03*
X996350Y985250D03*
X1009050Y985250D03*
X1021750Y985250D03*
X927900Y985550D03*
X939200Y985650D03*
X725900Y985250D03*
X738600Y985250D03*
X751300Y985250D03*
X764000Y985250D03*
X608600Y802100D03*
X608600Y814800D03*
X608600Y827500D03*
X608600Y840200D03*
X672900Y985250D03*
X685600Y985250D03*
X571000Y985250D03*
X583700Y985250D03*
X596400Y985250D03*
X609100Y985250D03*
X505900Y985250D03*
X518600Y985250D03*
X531300Y985250D03*
X406100Y985550D03*
X418800Y985550D03*
X431500Y985550D03*
X444200Y985550D03*
X279200Y985250D03*
X291900Y985250D03*
X304600Y985250D03*
X317300Y985250D03*
X152500Y984950D03*
X139800Y984950D03*
X127100Y984950D03*
X18050Y871950D03*
X18050Y884650D03*
X18050Y897350D03*
X18050Y910050D03*
X18050Y922750D03*
X17250Y761900D03*
X17250Y774600D03*
X17250Y787300D03*
X17850Y634850D03*
X17850Y647550D03*
X17850Y660250D03*
X306800Y801100D03*
X319500Y801100D03*
X332200Y801100D03*
X344900Y801100D03*
X402050Y801100D03*
X414750Y801100D03*
X427450Y801100D03*
X440150Y801100D03*
X214900Y827500D03*
X214900Y840200D03*
X214900Y852900D03*
X1018350Y445700D03*
X210500Y883150D03*
X119000Y883250D03*
X135200Y883150D03*
X157200Y883150D03*
X173000Y883050D03*
X195500Y883050D03*
X600075Y661670D03*
D16*
X593090Y668655D01*
X593090Y708660D01*
D14*
X552450Y718820D03*
D15*
X502920Y718820D01*
D16*
X501650Y717550D01*
D14*
X501650Y717550D03*
X863600Y615950D03*
D15*
X755650Y508000D01*
X635000Y508000D01*
D14*
X635000Y508000D03*
D15*
X393700Y508000D01*
D14*
X393700Y508000D03*
D16*
X593090Y708660D02*
X582930Y718820D01*
X552450Y718820D01*
D15*
X552450Y558800D02*
X575450Y535800D01*
X552450Y558800D02*
X552450Y634365D01*
D14*
X552450Y634365D03*
D15*
X635000Y514350D02*
X635000Y508000D01*
X635000Y514350D02*
X613550Y535800D01*
X575450Y535800D01*
X393700Y508000D02*
X222250Y508000D01*
X180975Y466725D02*
X180700Y467000D01*
D14*
X180975Y466725D03*
D15*
X222250Y508000D01*
X60050Y467000D02*
X44450Y482600D01*
D14*
X44450Y482600D03*
D15*
X60050Y467000D02*
X180700Y467000D01*
X44450Y482600D02*
X44450Y558800D01*
X50800Y685800D02*
X50800Y717550D01*
X88900Y755650D01*
X88900Y812800D01*
X133350Y869950D02*
X146050Y869950D01*
X184150Y869950D01*
X220450Y869900D02*
X220800Y870250D01*
X220450Y869900D02*
X184200Y869900D01*
X184150Y869950D01*
X220800Y870250D02*
X246500Y844550D01*
X266700Y844550D01*
X273050Y850900D01*
X273050Y908050D02*
X279400Y914400D01*
X273050Y908050D02*
X273050Y850900D01*
X279400Y914400D02*
X311150Y946150D01*
X374650Y946150D02*
X406400Y914400D01*
X336550Y946150D02*
X311150Y946150D01*
X336550Y946150D02*
X361950Y946150D01*
X374650Y946150D01*
X406400Y914400D02*
X444500Y914400D01*
X469900Y939800D01*
X469900Y952500D01*
D14*
X44450Y558800D03*
X88900Y628650D03*
X146050Y615950D03*
D15*
X133350Y628650D01*
X88900Y628650D01*
D14*
X98750Y667000D03*
X50800Y685800D03*
X146050Y742950D03*
D15*
X127000Y742950D01*
X120650Y736600D01*
D14*
X120650Y736600D03*
X88900Y755650D03*
X50800Y850900D03*
X88900Y812800D03*
X146050Y869950D03*
X184150Y869950D03*
X220800Y870250D03*
X266700Y844550D03*
D15*
X88900Y825500D02*
X88900Y812800D01*
X88900Y825500D02*
X133350Y869950D01*
X63500Y850900D02*
X50800Y850900D01*
X63500Y850900D02*
X88900Y825500D01*
X63500Y577850D02*
X44450Y558800D01*
X88900Y657150D02*
X98750Y667000D01*
X88900Y657150D02*
X88900Y628650D01*
X63500Y628650D01*
X50800Y641350D02*
X50800Y685800D01*
X50800Y641350D02*
X63500Y628650D01*
X63500Y577850D01*
D14*
X361950Y946150D03*
X336500Y924300D03*
D15*
X336500Y946100D01*
X336550Y946150D01*
D14*
X469900Y952500D03*
X444500Y914400D03*
X406400Y914400D03*
X279400Y914400D03*
X641985Y584835D03*
X702770Y648235D03*
X605790Y708660D03*
D16*
X702770Y648235D02*
X641985Y587450D01*
X641985Y584835D01*
X702770Y648235D02*
X702770Y653590D01*
X655320Y701040D01*
X613410Y701040D01*
X605790Y708660D01*
D14*
X635000Y768350D03*
D16*
X660400Y793750D02*
X660400Y806450D01*
X660400Y793750D02*
X635000Y768350D01*
D14*
X660400Y806450D03*
D16*
X635000Y768350D02*
X635000Y850900D01*
X585550Y900350D02*
X585550Y944800D01*
D14*
X585550Y944800D03*
D16*
X585550Y900350D02*
X635000Y850900D01*
D14*
X660400Y838200D03*
D16*
X595550Y903050D01*
X595550Y941150D01*
D14*
X595550Y941150D03*
D16*
X666750Y832318D02*
X660567Y826135D01*
X666750Y832318D02*
X666750Y844550D01*
X605550Y905750D01*
X605550Y944485D01*
D14*
X660567Y826135D03*
X605550Y944485D03*
X660400Y816610D03*
D16*
X673100Y853440D02*
X662940Y863600D01*
D14*
X662940Y863600D03*
D16*
X673100Y829127D02*
X660583Y816610D01*
X660400Y816610D01*
X673100Y829127D02*
X673100Y853440D01*
D14*
X266700Y463550D03*
D16*
X508000Y463550D01*
X749300Y463550D01*
X990600Y463550D01*
D14*
X508000Y463550D03*
X749300Y463550D03*
X990600Y463550D03*
X575550Y939800D03*
D16*
X575550Y950200D01*
X584200Y958850D01*
X660400Y958850D02*
X698500Y920750D01*
D14*
X698500Y920750D03*
D16*
X660400Y958850D02*
X584200Y958850D01*
D14*
X602615Y685800D03*
D16*
X609600Y678815D01*
X609600Y546100D01*
D14*
X609600Y546100D03*
X573405Y675925D03*
D16*
X570865Y673385D01*
X286700Y673385D01*
X104170Y490855D01*
X90170Y490855D01*
D14*
X90170Y490855D03*
X278765Y312420D03*
X286385Y312420D03*
X294005Y312420D03*
X278765Y304546D03*
X286385Y304546D03*
X294005Y304546D03*
X294005Y296672D03*
X286385Y296672D03*
X278765Y296672D03*
X278765Y288798D03*
X286385Y288798D03*
X294005Y288798D03*
X278765Y280924D03*
X286385Y280924D03*
X294005Y280924D03*
X278765Y273050D03*
X286385Y273050D03*
X294005Y273050D03*
X357505Y312420D03*
X365125Y312420D03*
X372745Y312420D03*
X357505Y304546D03*
X365125Y304546D03*
X372745Y304546D03*
X372745Y296672D03*
X365125Y296672D03*
X357505Y296672D03*
X357505Y288798D03*
X365125Y288798D03*
X372745Y288798D03*
X357505Y280924D03*
X365125Y280924D03*
X372745Y280924D03*
X357505Y273050D03*
X365125Y273050D03*
X372745Y273050D03*
X598805Y312420D03*
X606425Y312420D03*
X614045Y312420D03*
X598805Y304546D03*
X606425Y304546D03*
X614045Y304546D03*
X614045Y296672D03*
X606425Y296672D03*
X598805Y296672D03*
X598805Y288798D03*
X606425Y288798D03*
X614045Y288798D03*
X598805Y280924D03*
X606425Y280924D03*
X614045Y280924D03*
X598805Y273050D03*
X606425Y273050D03*
X614045Y273050D03*
X520065Y311150D03*
X527685Y311150D03*
X535305Y311150D03*
X520065Y303276D03*
X527685Y303276D03*
X535305Y303276D03*
X535305Y295402D03*
X527685Y295402D03*
X520065Y295402D03*
X520065Y287528D03*
X527685Y287528D03*
X535305Y287528D03*
X520065Y279654D03*
X527685Y279654D03*
X535305Y279654D03*
X520065Y271780D03*
X527685Y271780D03*
X535305Y271780D03*
X761365Y312420D03*
X768985Y312420D03*
X776605Y312420D03*
X761365Y304546D03*
X768985Y304546D03*
X776605Y304546D03*
X776605Y296672D03*
X768985Y296672D03*
X761365Y296672D03*
X761365Y288798D03*
X768985Y288798D03*
X776605Y288798D03*
X761365Y280924D03*
X768985Y280924D03*
X776605Y280924D03*
X761365Y273050D03*
X768985Y273050D03*
X776605Y273050D03*
X1002665Y312420D03*
X1010285Y312420D03*
X1017905Y312420D03*
X1002665Y304546D03*
X1010285Y304546D03*
X1017905Y304546D03*
X1017905Y296672D03*
X1010285Y296672D03*
X1002665Y296672D03*
X1002665Y288798D03*
X1010285Y288798D03*
X1017905Y288798D03*
X1002665Y280924D03*
X1010285Y280924D03*
X1017905Y280924D03*
X1002665Y273050D03*
X1010285Y273050D03*
X1017905Y273050D03*
X1081405Y311150D03*
X1089025Y311150D03*
X1096645Y311150D03*
X1081405Y303276D03*
X1089025Y303276D03*
X1096645Y303276D03*
X1096645Y295402D03*
X1089025Y295402D03*
X1081405Y295402D03*
X1081405Y287528D03*
X1089025Y287528D03*
X1096645Y287528D03*
X1081405Y279654D03*
X1089025Y279654D03*
X1096645Y279654D03*
X1081405Y271780D03*
X1089025Y271780D03*
X1096645Y271780D03*
X841375Y311150D03*
X848995Y311150D03*
X856615Y311150D03*
X841375Y303276D03*
X848995Y303276D03*
X856615Y303276D03*
X856615Y295402D03*
X848995Y295402D03*
X841375Y295402D03*
X841375Y287528D03*
X848995Y287528D03*
X856615Y287528D03*
X841375Y279654D03*
X848995Y279654D03*
X856615Y279654D03*
X841375Y271780D03*
X848995Y271780D03*
X856615Y271780D03*
X664210Y889000D03*
D16*
X647065Y889000D01*
X640080Y882015D01*
D14*
X640080Y882015D03*
X662940Y914400D03*
D16*
X660400Y914400D01*
X634365Y888365D01*
D14*
X634365Y888365D03*
X321310Y591185D03*
D16*
X292100Y620395D01*
X292100Y628650D01*
D14*
X292100Y628650D03*
X329565Y591018D03*
X299085Y634365D03*
D16*
X299085Y621665D02*
X329565Y591185D01*
X299085Y621665D02*
X299085Y634365D01*
X329565Y591185D02*
X329565Y591018D01*
D14*
X330200Y600075D03*
D16*
X328930Y600075D02*
X305435Y623570D01*
X305435Y628015D01*
X328930Y600075D02*
X330200Y600075D01*
D14*
X305435Y628015D03*
X139065Y767080D03*
D16*
X189865Y767080D02*
X191135Y768350D01*
X189865Y767080D02*
X139065Y767080D01*
D14*
X191135Y768350D03*
X731040Y687070D03*
D16*
X731040Y705468D01*
X679525Y756983D02*
X608267Y756983D01*
X679525Y756983D02*
X731040Y705468D01*
X514571Y850679D02*
X457421Y850679D01*
X453611Y854489D01*
D14*
X453611Y854489D03*
D16*
X514571Y850679D02*
X608267Y756983D01*
D14*
X722500Y687070D03*
D16*
X722500Y709024D01*
X679335Y752189D01*
X606711Y752189D01*
X514350Y844550D02*
X476250Y844550D01*
D14*
X476250Y844550D03*
D16*
X514350Y844550D02*
X606711Y752189D01*
D14*
X714595Y687070D03*
D16*
X714595Y711945D01*
X679145Y747395D01*
X605155Y747395D01*
D14*
X419100Y863600D03*
D16*
X431800Y863600D02*
X456565Y838835D01*
X431800Y863600D02*
X419100Y863600D01*
X456565Y838835D02*
X513715Y838835D01*
X605155Y747395D01*
D14*
X304862Y596203D03*
D16*
X267397Y596203D01*
X259715Y603885D01*
D14*
X259715Y603885D03*
X304800Y584200D03*
X249555Y603885D03*
D16*
X298450Y590550D02*
X304800Y584200D01*
X298450Y590550D02*
X262890Y590550D01*
X249555Y603885D01*
D14*
X294640Y584200D03*
D16*
X260350Y584200D02*
X241300Y603250D01*
X241300Y609600D01*
X260350Y584200D02*
X294640Y584200D01*
D14*
X241300Y609600D03*
X139065Y641350D03*
D16*
X139700Y641985D02*
X189865Y641985D01*
X139700Y641985D02*
X139065Y641350D01*
D14*
X189865Y641985D03*
X690880Y687070D03*
D16*
X690880Y718820D01*
X675831Y733869D01*
X323850Y819150D02*
X311150Y831850D01*
D14*
X311150Y831850D03*
D16*
X599656Y733869D02*
X675831Y733869D01*
X599656Y733869D02*
X514375Y819150D01*
X323850Y819150D01*
D14*
X698785Y687070D03*
D16*
X698785Y717153D01*
X677433Y738505D01*
X601345Y738505D01*
D14*
X355600Y825500D03*
D16*
X514350Y825500D01*
X601345Y738505D01*
D14*
X706690Y687070D03*
D16*
X706690Y714866D01*
X678606Y742950D01*
X603250Y742950D01*
D14*
X292100Y863600D03*
D16*
X323850Y831850D01*
X514350Y831850D01*
X603250Y742950D01*
D14*
X202565Y509270D03*
X575945Y668020D03*
D16*
X288925Y668020D01*
X202565Y581660D01*
X202565Y509270D01*
D14*
X579120Y660400D03*
X391160Y608330D03*
D16*
X567690Y660400D02*
X579120Y660400D01*
X567690Y660400D02*
X565150Y662940D01*
X445770Y662940D01*
X391160Y608330D01*
D14*
X589915Y626745D03*
D16*
X559435Y657225D01*
X523240Y657225D01*
D14*
X523240Y657225D03*
X590550Y638810D03*
D16*
X584835Y644525D01*
X584835Y691515D02*
X577850Y698500D01*
X584835Y691515D02*
X584835Y644525D01*
X577850Y698500D02*
X521970Y698500D01*
D14*
X521970Y698500D03*
X590550Y650240D03*
D16*
X589280Y651510D01*
X589280Y697230D02*
X586740Y699770D01*
X589280Y697230D02*
X589280Y651510D01*
D14*
X586740Y699770D03*
X120650Y774700D03*
D16*
X120650Y800100D01*
X130175Y809625D02*
X142240Y809625D01*
D14*
X142240Y809625D03*
D16*
X130175Y809625D02*
X120650Y800100D01*
D14*
X133350Y800100D03*
D16*
X133350Y772050D01*
X129650Y768350D01*
D14*
X129650Y768350D03*
X425450Y882650D03*
D16*
X450850Y882650D01*
X461010Y872490D01*
X461010Y860425D01*
D14*
X461010Y860425D03*
X450850Y869950D03*
D16*
X422250Y869950D01*
X419100Y873100D01*
D14*
X419100Y873100D03*
X120650Y647700D03*
D16*
X120650Y674370D01*
X130175Y683895D02*
X142875Y683895D01*
X130175Y683895D02*
X120650Y674370D01*
D14*
X142875Y683895D03*
X133350Y673100D03*
D16*
X133350Y645050D01*
X129650Y641350D01*
D14*
X129650Y641350D03*
X298450Y882650D03*
X334010Y860425D03*
D16*
X333819Y860616D02*
X333819Y874143D01*
X333819Y860616D02*
X334010Y860425D01*
X333819Y874143D02*
X325312Y882650D01*
X298450Y882650D01*
D14*
X323850Y869950D03*
D16*
X295250Y869950D01*
X292100Y873100D01*
D14*
X292100Y873100D03*
X602615Y454025D03*
X361950Y454025D03*
X228600Y431800D03*
D17*
X193675Y431800D01*
D14*
X152400Y431800D03*
D17*
X193675Y431800D01*
D14*
X193675Y431800D03*
X659765Y454025D03*
D17*
X602615Y454025D01*
D14*
X419100Y454025D03*
D17*
X361950Y454025D01*
D14*
X749300Y825500D03*
D16*
X812800Y825500D01*
X830580Y843280D01*
X830580Y884555D02*
X817880Y897255D01*
X830580Y884555D02*
X830580Y843280D01*
D14*
X817880Y897255D03*
X736900Y833520D03*
D16*
X736900Y829010D01*
X746760Y819150D01*
X819150Y819150D01*
X841375Y884405D02*
X854275Y897305D01*
X841375Y884405D02*
X841375Y841375D01*
D14*
X854275Y897305D03*
D16*
X841375Y841375D02*
X819150Y819150D01*
D14*
X920750Y641350D03*
D15*
X990600Y641350D01*
X1003300Y628650D01*
D14*
X1003300Y628650D03*
D15*
X1009650Y622300D01*
X1085850Y622300D01*
D14*
X1085850Y622300D03*
X626110Y425450D03*
D15*
X632460Y419100D01*
X644525Y419100D01*
D14*
X644525Y419100D03*
X692150Y812800D03*
D16*
X698500Y819150D01*
X698500Y844550D01*
D14*
X698500Y844550D03*
X603250Y698500D03*
D16*
X596900Y692150D01*
X596900Y681990D01*
X584835Y553085D02*
X571500Y553085D01*
D14*
X571500Y553085D03*
D16*
X605980Y574230D02*
X605980Y672910D01*
X596900Y681990D01*
X605980Y574230D02*
X584835Y553085D01*
M02*
