M48
;GenerationSoftware,Autodesk,EAGLE,9.3.2*%
;CreationDate,2019-04-24T13:37:47Z*%
FMAT,2
ICI,OFF
METRIC,TZ,000.000
T7C0.300
T6C0.700
T5C0.900
T4C1.500
T3C3.000
T2C3.500
%
G90
M71
T2
X114935Y17145
X56000Y6350
X72000Y5080
X48000Y5080
X5080Y17145
X114935Y5715
X64000Y6350
X5080Y5715
T3
X116000Y96000
X4000Y38000
X25000Y4000
X95000Y4000
X116000Y38000
X4000Y96000
X60000Y21000
T4
X56825Y2540
X117475Y51435
X50475Y2540
X63175Y2540
X117475Y57785
X2540Y14605
X2540Y8255
X69525Y2540
X117475Y14605
X117475Y8255
T5
X80935Y95000
X85435Y95000
T6
X73970Y76300
X68270Y76300
T7
X35751Y31242
X35751Y30455
X37275Y31242
X36513Y31242
X27876Y28880
X36513Y30455
X37275Y30455
X37275Y29667
X36513Y29667
X35751Y29667
X35751Y28880
X36513Y28880
X37275Y28880
X35751Y28092
X36513Y28092
X37275Y28092
X35751Y27305
X36513Y27305
X37275Y27305
X28638Y30455
X50800Y46355
X74930Y46355
X99060Y46355
X57555Y93980
X69850Y92075
X60261Y68580
X60960Y54610
X57340Y67593
X9017Y49085
X27876Y31242
X28638Y31242
X29400Y31242
X27876Y30455
X29400Y27305
X29400Y30455
X29400Y29667
X28638Y29667
X27876Y29667
X61404Y30455
X28638Y28880
X29400Y28880
X27876Y28092
X28638Y28092
X29400Y28092
X27876Y27305
X28638Y27305
X76137Y28092
X52006Y27178
X52768Y27178
X53530Y27178
X76137Y31242
X76899Y31242
X77661Y31242
X76137Y30455
X76899Y30455
X77661Y30455
X77661Y29667
X76899Y29667
X76137Y29667
X76137Y28880
X76899Y28880
X77661Y28880
X53530Y27965
X76899Y28092
X77661Y28092
X76137Y27305
X76899Y27305
X77661Y27305
X100266Y31242
X101028Y31242
X101790Y31242
X100266Y30455
X101028Y30455
X101790Y30455
X101790Y29667
X101028Y29667
X100266Y29667
X109664Y29540
X60642Y27305
X60642Y31242
X61404Y31242
X59880Y30455
X60642Y30455
X100266Y28880
X61404Y29667
X60642Y29667
X59880Y29667
X59880Y28880
X60642Y28880
X61404Y28880
X59880Y28092
X60642Y28092
X61404Y28092
X59880Y27305
X59880Y31242
X61404Y27305
X52006Y31115
X52768Y31115
X53530Y31115
X52006Y30328
X52768Y30328
X53530Y30328
X53530Y29540
X52768Y29540
X52006Y29540
X52006Y28753
X52768Y28753
X53530Y28753
X52006Y27965
X52768Y27965
X1805Y89735
X40610Y98555
X41880Y98555
X43150Y98555
X44420Y98555
X27920Y98525
X29190Y98525
X30460Y98525
X31730Y98525
X15250Y98495
X13980Y98495
X12710Y98495
X1805Y87195
X1805Y88465
X53130Y98525
X1805Y91005
X1805Y92275
X1725Y76190
X1725Y77460
X1725Y78730
X1785Y63485
X1785Y64755
X1785Y66025
X30680Y80110
X31950Y80110
X33220Y80110
X34490Y80110
X40205Y80110
X76400Y98525
X81460Y84260
X107515Y98525
X108785Y98525
X110055Y98525
X111325Y98525
X99635Y98525
X100905Y98525
X102175Y98525
X92790Y98555
X93920Y98565
X72590Y98525
X73860Y98525
X75130Y98525
X41475Y80110
X60860Y80210
X60860Y81480
X60860Y82750
X60860Y84020
X67290Y98525
X68560Y98525
X57100Y98525
X58370Y98525
X59640Y98525
X60910Y98525
X50590Y98525
X51860Y98525
X27940Y91440
X12065Y73660
X8890Y75565
X5080Y85090
X8890Y81280
X14605Y86995
X18415Y86995
X22080Y87025
X26670Y84455
X36195Y94615
X33650Y92430
X46990Y95250
X44450Y91440
X40640Y91440
X14605Y74295
X64198Y58483
X70277Y64823
X60579Y70866
X63500Y76835
X66040Y80645
X58555Y94480
X66040Y83820
X59555Y94115
X66057Y82614
X60555Y94448
X66040Y81661
X66294Y86360
X55245Y71882
X42745Y80110
X44015Y80110
X21490Y82750
X21490Y84020
X21490Y85290
X101835Y44570
X21050Y88315
X11900Y88325
X13520Y88315
X15720Y88315
X17300Y88305
X19550Y88305
X60007Y66167
X26670Y46355
X50165Y71755
X86360Y61595
X63500Y50800
X39370Y50800
X55245Y63436
X18098Y46672
X4445Y48260
X4445Y55880
X8890Y62865
X14605Y61595
X9875Y66700
X5080Y68580
X61727Y5038
X53375Y6350
X53727Y5038
X54687Y4077
X56000Y3725
X57312Y4077
X58273Y5038
X58625Y6350
X58273Y7662
X57312Y8623
X64000Y8975
X62687Y8623
X61727Y7662
X61375Y6350
X53727Y7662
X62687Y4077
X64000Y3725
X65312Y4077
X66273Y5038
X66625Y6350
X66273Y7662
X65312Y8623
X72000Y7705
X70688Y7353
X69727Y6392
X69375Y5080
X69727Y3767
X70688Y2807
X46687Y7353
X81788Y89725
X73690Y83352
X85428Y89730
X92075Y64135
X100330Y62865
X108585Y62230
X62611Y42545
X64452Y41910
X69215Y81280
X69850Y84455
X60325Y69850
X57150Y55308
X48000Y7705
X72000Y2455
X45727Y6392
X45375Y5080
X45727Y3767
X46687Y2807
X48000Y2455
X49312Y2807
X50273Y3767
X50625Y5080
X50273Y6392
X49312Y7353
X56000Y8975
X54687Y8623
X117208Y15832
X6392Y3442
X7353Y4403
X117560Y17145
X117208Y18458
X116247Y19418
X114935Y19770
X113622Y19418
X112662Y18458
X112310Y17145
X112662Y15832
X113622Y14872
X114935Y14520
X116247Y14872
X5080Y3090
X117560Y5715
X117208Y7027
X116247Y7988
X114935Y8340
X113622Y7988
X112662Y7027
X112310Y5715
X112662Y4403
X113622Y3442
X114935Y3090
X116247Y3442
X117208Y4403
X3767Y14872
X73313Y2807
X74273Y3767
X74625Y5080
X74273Y6392
X73313Y7353
X7705Y17145
X7353Y18458
X6392Y19418
X5080Y19770
X3767Y19418
X2807Y18458
X2455Y17145
X2807Y15832
X74930Y82550
X5080Y14520
X6392Y14872
X7353Y15832
X7705Y5715
X7353Y7027
X6392Y7988
X5080Y8340
X3767Y7988
X2807Y7027
X2455Y5715
X2807Y4403
X3767Y3442
X84138Y27178
X85662Y31115
X84138Y30328
X84900Y30328
X85662Y30328
X85662Y29540
X84900Y29540
X84138Y29540
X84138Y28753
X84900Y28753
X85662Y28753
X84138Y27965
X84900Y27965
X85662Y27965
X84900Y31115
X84900Y27178
X85662Y27178
X66421Y88900
X64008Y88201
X66294Y91440
X63436Y88836
X32131Y59118
X29210Y62865
X32957Y59102
X29908Y63436
X33020Y60007
X30543Y62801
X13906Y76708
X80825Y83625
X101790Y28880
X100266Y28092
X101028Y28092
X101790Y28092
X100266Y27305
X101028Y27305
X101790Y27305
X108140Y31115
X108902Y31115
X109664Y31115
X108140Y30328
X108902Y30328
X109664Y30328
X19114Y76835
X108902Y29540
X108140Y29540
X108140Y28753
X108902Y28753
X109664Y28753
X108140Y27965
X108902Y27965
X109664Y27965
X108140Y27178
X108902Y27178
X109664Y27178
X84138Y31115
X13335Y67310
X52197Y69850
X59055Y65024
X58674Y69977
X12065Y77470
X14224Y80963
X13335Y80010
X12965Y76835
X42545Y88265
X46101Y86043
X45085Y86995
X41910Y87310
X12065Y64770
X14287Y68390
X59055Y63881
X12965Y64135
X29845Y88265
X33401Y86043
X32385Y86995
X29210Y87310
X60261Y45402
X36195Y45402
X22860Y43180
X15240Y43180
X19368Y43180
X65977Y45402
X41910Y45402
X18987Y64198
X73104Y68707
X45361Y85449
X72250Y68707
X47625Y84455
X71460Y68707
X41910Y86360
X30486Y59620
X25971Y60388
X30480Y58420
X24955Y60388
X29464Y58420
X24130Y60960
X13906Y64135
X101028Y28880
X69088Y68707
X31115Y83185
X69879Y68707
X35560Y82550
X70669Y68707
X29210Y86360
X20257Y50927
X57594Y66802
X57912Y66040
X39116Y60833
X58991Y62674
X52324Y65723
X23495Y57150
X14595Y86085
X27305Y57150
X31115Y55245
X31750Y55880
X30480Y54610
X29845Y53975
X33655Y53340
X34290Y53975
X34925Y54610
X24130Y53975
X24765Y54610
X25400Y55245
X26035Y55880
X26670Y56515
X73660Y85725
X24130Y57785
X24765Y58420
X21590Y53975
X22225Y54610
X29210Y69215
X28575Y69850
X27940Y70485
X26035Y72390
X25400Y73025
X24765Y73660
X22860Y75565
X22225Y76200
X21590Y76835
X19685Y78740
X63373Y65659
X68136Y43498
X87313Y43498
X19368Y45402
X65913Y65659
X63373Y63119
X64643Y63119
X65913Y63119
X65913Y61849
X64643Y61849
X63373Y61849
X63373Y64389
X64643Y64389
X65913Y64389
X64643Y65659
X19050Y79375
X63373Y66929
X64643Y66929
X65913Y66929
X65913Y68199
X64643Y68199
X63373Y68199
X31830Y53610
X32465Y54290
X33100Y54925
X33735Y55560
X72390Y86995
X73660Y86995
X72390Y85725
X18415Y53340
X22225Y70485
X21590Y71120
X19685Y73025
X19050Y73660
X18415Y74295
X17780Y66040
X17145Y66675
X16510Y67310
X22225Y62865
X21590Y63500
X20955Y64135
X19685Y60325
X19050Y60960
X18415Y61595
X22860Y69850
X19050Y53975
X19685Y54610
X13335Y53975
X13970Y54610
X14605Y55245
X10160Y50800
X10795Y51435
X11430Y52070
X15240Y50165
X15875Y50800
X16510Y51435
X3810Y46990
X3175Y47625
X39370Y64770
X18415Y80010
X26035Y78105
X25400Y78740
X24765Y79375
X29210Y74930
X28575Y75565
X27940Y76200
X32385Y71755
X31750Y72390
X31115Y73025
X35560Y68580
X34925Y69215
X34290Y69850
X40005Y64135
X111442Y43498
X38735Y65405
X41910Y64770
X42545Y65405
X43180Y66040
X44450Y64770
X43815Y64135
X43180Y63500
X35560Y63500
X34925Y64135
X34290Y64770
X26035Y66675
X25400Y67310
X24765Y67945
X23050Y31242
X11112Y30391
X11112Y29604
X10351Y29604
X9589Y29604
X9589Y28816
X10351Y28816
X11112Y28816
X9589Y28029
X10351Y28029
X11112Y28029
X9589Y27241
X10351Y27241
X11112Y27241
X22288Y31242
X10351Y30391
X23812Y31242
X22288Y30455
X23050Y30455
X23812Y30455
X23812Y29667
X23050Y29667
X22288Y29667
X22288Y28880
X23050Y28880
X23812Y28880
X22288Y28092
X23050Y28092
X23812Y28092
X11430Y83820
X68580Y67945
X74295Y67945
X66929Y70930
X61792Y71063
X65913Y72581
X83820Y62865
X83185Y68707
X80645Y69850
X75565Y83820
X78105Y88265
X95885Y93980
X69535Y59416
X65405Y55245
X50165Y81280
X22288Y27305
X36195Y88900
X48895Y88900
X11430Y71120
X22860Y49530
X106680Y54610
X99377Y49530
X75248Y49530
X51117Y49530
X26987Y49530
X9589Y31178
X10351Y31178
X11112Y31178
X9589Y30391
X47815Y30455
X94678Y28880
X95440Y28880
X96202Y28880
X94678Y28092
X95440Y28092
X96202Y28092
X94678Y27305
X95440Y27305
X96202Y27305
X46291Y31242
X47053Y31242
X47815Y31242
X46291Y30455
X47053Y30455
X94678Y29667
X47815Y29667
X47053Y29667
X46291Y29667
X46291Y28880
X47053Y28880
X47815Y28880
X46291Y28092
X47053Y28092
X47815Y28092
X46291Y27305
X47053Y27305
X47815Y27305
X46990Y36830
X70549Y27965
X23050Y27305
X23812Y27305
X70549Y31115
X71311Y31115
X72073Y31115
X70549Y30328
X71311Y30328
X72073Y30328
X72073Y29540
X71311Y29540
X70549Y29540
X70549Y28753
X71311Y28753
X72073Y28753
X2540Y48260
X71311Y27965
X72073Y27965
X70549Y27178
X71311Y27178
X72073Y27178
X94678Y31242
X95440Y31242
X96202Y31242
X94678Y30455
X95440Y30455
X96202Y30455
X96202Y29667
X95440Y29667
X57655Y52815
X54610Y53975
X55245Y54610
X56080Y53440
X58875Y54400
X59510Y55035
X60145Y55670
X10795Y39211
X22860Y36830
X71120Y36830
X95250Y36830
X57260Y65455
X60650Y72825
X73335Y67190
X58620Y52805
X99695Y92710
X63820Y52440
X64385Y51795
X67510Y52170
X68780Y52170
X70050Y52170
X71320Y52170
X72590Y52170
X47190Y54075
X48460Y54075
X49730Y54075
X51000Y54075
X47190Y62330
X48460Y62330
X92075Y86995
X118745Y81280
X118110Y81915
X117475Y82550
X87630Y82550
X88265Y83185
X88900Y83820
X86360Y86360
X86995Y86995
X87630Y87630
X88265Y88265
X88900Y88900
X89535Y89535
X90805Y85725
X91440Y86360
X49730Y62330
X99060Y85090
X99695Y85725
X100330Y86360
X98425Y87630
X99060Y88265
X99695Y88900
X100965Y90170
X101600Y90805
X102235Y91440
X97155Y90170
X97790Y90805
X98425Y91440
X99060Y92075
X88800Y68780
X87830Y47725
X89100Y47725
X85290Y50900
X86560Y50900
X87830Y50900
X89100Y50900
X85290Y53440
X86560Y53440
X87830Y53440
X89100Y53440
X85290Y55980
X86560Y55980
X87830Y55980
X89100Y55980
X86560Y47725
X88800Y70050
X88800Y71320
X88800Y72590
X108150Y90270
X109420Y90270
X110690Y90270
X111960Y90270
X118010Y87830
X118010Y89100
X118010Y90370
X118010Y91640
X80290Y81010
X81210Y80990
X49730Y44550
X51000Y62330
X40205Y68680
X41475Y68680
X42745Y68680
X44015Y68680
X24330Y44550
X25600Y44550
X26870Y44550
X28140Y44550
X29410Y44550
X9725Y43280
X10995Y43280
X12265Y43280
X48460Y44550
X114300Y85725
X51000Y44550
X52270Y44550
X53540Y44550
X72590Y44550
X73860Y44550
X75130Y44550
X76400Y44550
X77670Y44550
X96720Y44550
X97990Y44550
X99260Y44550
X100530Y44550
X85290Y47725
X62865Y92710
X53975Y85090
X50800Y79375
X50165Y80010
X53975Y76200
X53340Y76835
X52705Y77470
X58420Y80645
X57785Y81280
X57150Y81915
X59690Y86995
X59055Y87630
X58420Y88265
X64135Y91440
X63500Y92075
X54610Y84455
X66040Y93980
X65405Y93345
X64770Y92710
X66675Y78105
X67310Y78740
X67945Y79375
X74295Y78105
X73660Y78740
X73025Y79375
X81915Y60960
X82550Y61595
X84455Y57785
X83820Y57150
X17780Y85090
X3810Y57785
X4445Y58420
X5080Y59055
X4445Y73025
X5080Y73660
X5715Y74295
X8255Y85090
X7620Y85725
X6985Y86360
X8890Y84455
X9525Y85090
X10160Y85725
X19050Y83820
X18415Y84455
X83185Y56515
X22860Y93980
X22225Y94615
X21590Y95250
X20955Y95885
X20320Y96520
X19685Y97155
X39370Y94615
X38735Y95250
X38100Y95885
X52070Y86995
X51435Y87630
X50800Y88265
X55245Y83820
X95250Y75565
X109855Y70485
X95250Y68580
X95885Y69215
X96520Y69850
X99695Y73025
X100330Y73660
X100965Y74295
X72010Y72925
X72645Y73560
X70785Y73925
X71420Y74560
X84455Y79375
X85090Y80010
X85725Y80645
X109220Y69850
X95885Y76200
X96520Y76835
X107950Y75565
X108585Y76200
X109220Y76835
X116205Y78740
X115570Y79375
X114935Y80010
X113030Y81915
X112395Y82550
X111760Y83185
X115570Y84455
X114935Y85090
X116840Y54610
X88265Y58420
X87630Y59055
X86995Y59690
X96520Y52070
X95885Y51435
X95250Y50800
X110490Y46990
X111125Y47625
X111760Y48260
X114300Y45085
X114935Y45720
X115570Y46355
X115570Y53340
X116205Y53975
X70675Y64049
X113030Y55880
X113665Y56515
X114300Y57150
X107315Y55880
X106680Y56515
X106045Y57150
X116205Y62230
X115570Y62865
X114935Y63500
X114935Y68580
X115570Y69215
X116205Y69850
X108585Y69215
M30