G04 EAGLE Gerber RS-274X export*
G75*
%MOMM*%
%FSLAX34Y34*%
%LPD*%
%INSoldermask Bottom*%
%IPPOS*%
%AMOC8*
5,1,8,0,0,1.08239X$1,22.5*%
G01*
%ADD10C,3.203200*%
%ADD11R,1.803200X4.103200*%
%ADD12C,1.103200*%
%ADD13C,0.903200*%
%ADD14C,7.203200*%
%ADD15C,0.655600*%


D10*
X40000Y380000D03*
X250000Y40000D03*
X950000Y40000D03*
X1160000Y380000D03*
X40000Y960000D03*
X1160000Y960000D03*
X600000Y210000D03*
D11*
X977900Y315550D03*
X977900Y230550D03*
X736600Y315550D03*
X736600Y230550D03*
X495300Y315550D03*
X495300Y230550D03*
X254000Y315550D03*
X254000Y230550D03*
D12*
X854350Y950000D03*
X809350Y950000D03*
D13*
X739700Y763000D03*
X682700Y763000D03*
D10*
X504750Y25400D03*
X568250Y25400D03*
X631750Y25400D03*
X695250Y25400D03*
D14*
X480000Y50800D03*
D15*
X480000Y77050D03*
X466875Y73533D03*
X457267Y63925D03*
X453750Y50800D03*
X457267Y37675D03*
X466875Y28067D03*
X480000Y24550D03*
X493125Y28067D03*
X502733Y37675D03*
X506250Y50800D03*
X502733Y63925D03*
X493125Y73533D03*
D14*
X560000Y63500D03*
D15*
X560000Y89750D03*
X546875Y86233D03*
X537267Y76625D03*
X533750Y63500D03*
X537267Y50375D03*
X546875Y40767D03*
X560000Y37250D03*
X573125Y40767D03*
X582733Y50375D03*
X586250Y63500D03*
X582733Y76625D03*
X573125Y86233D03*
D14*
X640000Y63500D03*
D15*
X640000Y89750D03*
X626875Y86233D03*
X617267Y76625D03*
X613750Y63500D03*
X617267Y50375D03*
X626875Y40767D03*
X640000Y37250D03*
X653125Y40767D03*
X662733Y50375D03*
X666250Y63500D03*
X662733Y76625D03*
X653125Y86233D03*
D14*
X720000Y50800D03*
D15*
X720000Y77050D03*
X706875Y73533D03*
X697267Y63925D03*
X693750Y50800D03*
X697267Y37675D03*
X706875Y28067D03*
X720000Y24550D03*
X733125Y28067D03*
X742733Y37675D03*
X746250Y50800D03*
X742733Y63925D03*
X733125Y73533D03*
D10*
X1174750Y82550D03*
X1174750Y146050D03*
X1174750Y514350D03*
X1174750Y577850D03*
X25400Y146050D03*
X25400Y82550D03*
D14*
X50800Y171450D03*
D15*
X77050Y171450D03*
X73533Y184575D03*
X63925Y194183D03*
X50800Y197700D03*
X37675Y194183D03*
X28067Y184575D03*
X24550Y171450D03*
X28067Y158325D03*
X37675Y148717D03*
X50800Y145200D03*
X63925Y148717D03*
X73533Y158325D03*
D14*
X50800Y57150D03*
D15*
X77050Y57150D03*
X73533Y70275D03*
X63925Y79883D03*
X50800Y83400D03*
X37675Y79883D03*
X28067Y70275D03*
X24550Y57150D03*
X28067Y44025D03*
X37675Y34417D03*
X50800Y30900D03*
X63925Y34417D03*
X73533Y44025D03*
D14*
X1149350Y171450D03*
D15*
X1175600Y171450D03*
X1172083Y184575D03*
X1162475Y194183D03*
X1149350Y197700D03*
X1136225Y194183D03*
X1126617Y184575D03*
X1123100Y171450D03*
X1126617Y158325D03*
X1136225Y148717D03*
X1149350Y145200D03*
X1162475Y148717D03*
X1172083Y158325D03*
D14*
X1149350Y57150D03*
D15*
X1175600Y57150D03*
X1172083Y70275D03*
X1162475Y79883D03*
X1149350Y83400D03*
X1136225Y79883D03*
X1126617Y70275D03*
X1123100Y57150D03*
X1126617Y44025D03*
X1136225Y34417D03*
X1149350Y30900D03*
X1162475Y34417D03*
X1172083Y44025D03*
M02*
